<svg width="301" height="301" viewBox="0 0 301 301" fill="none" xmlns="http://www.w3.org/2000/svg">
<path d="M150.5 0L156.565 34.7738L166.232 0.824448L168.628 36.0417L181.791 3.28879L180.493 38.5637L197.007 7.366L192.029 42.312L211.714 13.0114L203.111 47.2457L225.75 20.1632L213.615 53.3107L238.962 28.7429L223.429 60.4404L251.204 38.6567L232.443 68.5569L262.343 49.7958L240.56 77.5712L272.257 62.0383L247.689 87.3845L280.837 75.25L253.754 97.8893L287.989 89.2861L258.688 108.971L293.634 103.993L262.436 120.507L297.711 119.209L264.958 132.372L300.176 134.768L266.226 144.435L301 150.5L266.226 156.565L300.176 166.232L264.958 168.628L297.711 181.791L262.436 180.493L293.634 197.007L258.688 192.029L287.989 211.714L253.754 203.111L280.837 225.75L247.689 213.615L272.257 238.962L240.56 223.429L262.343 251.204L232.443 232.443L251.204 262.343L223.429 240.56L238.962 272.257L213.615 247.689L225.75 280.837L203.111 253.754L211.714 287.989L192.029 258.688L197.007 293.634L180.493 262.436L181.791 297.711L168.628 264.958L166.232 300.176L156.565 266.226L150.5 301L144.435 266.226L134.768 300.176L132.372 264.958L119.209 297.711L120.507 262.436L103.993 293.634L108.971 258.688L89.2861 287.989L97.8893 253.754L75.25 280.837L87.3845 247.689L62.0383 272.257L77.5712 240.56L49.7958 262.343L68.5569 232.443L38.6567 251.204L60.4404 223.429L28.7429 238.962L53.3107 213.615L20.1632 225.75L47.2457 203.111L13.0114 211.714L42.312 192.029L7.366 197.007L38.5637 180.493L3.28879 181.791L36.0417 168.628L0.824448 166.232L34.7738 156.565L0 150.5L34.7738 144.435L0.824448 134.768L36.0417 132.372L3.28879 119.209L38.5637 120.507L7.366 103.993L42.312 108.971L13.0114 89.2861L47.2457 97.8893L20.1632 75.25L53.3107 87.3845L28.7429 62.0383L60.4404 77.5712L38.6567 49.7958L68.5569 68.5569L49.7958 38.6567L77.5712 60.4404L62.0383 28.7429L87.3845 53.3107L75.25 20.1632L97.8893 47.2457L89.2861 13.0114L108.971 42.312L103.993 7.366L120.507 38.5637L119.209 3.28879L132.372 36.0417L134.768 0.824448L144.435 34.7738L150.5 0Z" fill="black"/>
</svg>
