<?xml version="1.0" encoding="UTF-8" standalone="no"?>
<!DOCTYPE svg PUBLIC "-//W3C//DTD SVG 1.1//EN" "http://www.w3.org/Graphics/SVG/1.1/DTD/svg11.dtd">
<svg width="100%" height="100%" viewBox="0 0 426 520" version="1.1" xmlns="http://www.w3.org/2000/svg" xmlns:xlink="http://www.w3.org/1999/xlink" xml:space="preserve" xmlns:serif="http://www.serif.com/" style="fill-rule:evenodd;clip-rule:evenodd;stroke-linejoin:round;stroke-miterlimit:2;">
    <g transform="matrix(1,0,0,1,-3354.330709,-1559.055118)">
        <g id="C-CyberLip" transform="matrix(1,0,0,1,-944.88189,0)">
            <path d="M4711.579,1703.433C4714.981,1703.433 4718.245,1702.081 4720.651,1699.675C4723.058,1697.269 4724.409,1694.005 4724.409,1690.602C4724.409,1663.209 4724.409,1599.279 4724.409,1571.886C4724.409,1568.483 4723.058,1565.219 4720.651,1562.813C4718.245,1560.407 4714.981,1559.055 4711.579,1559.055C4648.833,1559.055 4374.789,1559.055 4312.044,1559.055C4308.641,1559.055 4305.377,1560.407 4302.971,1562.813C4300.564,1565.219 4299.213,1568.483 4299.213,1571.886C4299.213,1643.605 4299.213,1994.19 4299.213,2065.909C4299.213,2069.312 4300.564,2072.576 4302.971,2074.982C4305.377,2077.388 4308.641,2078.74 4312.044,2078.74C4374.789,2078.74 4648.833,2078.74 4711.579,2078.74C4714.981,2078.74 4718.245,2077.388 4720.651,2074.982C4723.058,2072.576 4724.409,2069.312 4724.409,2065.909C4724.409,2038.968 4724.409,1976.78 4724.409,1949.839C4724.409,1946.436 4723.058,1943.172 4720.651,1940.766C4718.245,1938.36 4714.981,1937.008 4711.579,1937.008C4704.876,1937.008 4696.698,1937.008 4689.996,1937.008C4686.593,1937.008 4683.33,1938.36 4680.923,1940.766C4678.517,1943.172 4677.165,1946.436 4677.165,1949.839C4677.165,1967.895 4677.165,2000.609 4677.165,2018.665C4677.165,2025.751 4671.421,2031.496 4664.334,2031.496C4617.17,2031.496 4453.696,2031.496 4406.532,2031.496C4399.445,2031.496 4393.701,2025.751 4393.701,2018.665L4393.701,1847.952C4393.701,1844.48 4395.108,1841.156 4397.601,1838.739C4406.488,1830.124 4428.157,1809.12 4437.044,1800.505C4439.538,1798.089 4440.945,1794.765 4440.945,1791.292L4440.945,1619.13C4440.945,1615.727 4442.297,1612.464 4444.703,1610.057C4447.109,1607.651 4450.373,1606.299 4453.776,1606.299C4494.911,1606.299 4623.2,1606.299 4664.334,1606.299C4671.421,1606.299 4677.165,1612.044 4677.165,1619.13C4677.165,1637.733 4677.165,1671.999 4677.165,1690.602C4677.165,1694.005 4678.517,1697.269 4680.923,1699.675C4683.33,1702.081 4686.593,1703.433 4689.996,1703.433C4696.698,1703.433 4704.876,1703.433 4711.579,1703.433Z"/>
        </g>
    </g>
</svg>
