<?xml version="1.0" encoding="UTF-8" standalone="no"?>
<!DOCTYPE svg PUBLIC "-//W3C//DTD SVG 1.1//EN" "http://www.w3.org/Graphics/SVG/1.1/DTD/svg11.dtd">
<svg width="100%" height="100%" viewBox="0 0 377 534" version="1.1" xmlns="http://www.w3.org/2000/svg" xmlns:xlink="http://www.w3.org/1999/xlink" xml:space="preserve" xmlns:serif="http://www.serif.com/" style="fill-rule:evenodd;clip-rule:evenodd;stroke-linejoin:round;stroke-miterlimit:2;">
    <g transform="matrix(1,0,0,1,-2338.582677,-624.259671)">
        <g id="N-Ooze" transform="matrix(2.672852,0,0,2.672852,690.007386,-344.201704)">
            <path d="M677.393,435.493C681.446,389.252 684.8,388.703 684.804,374.474C684.806,363.778 653.672,402.697 643.185,439.409C640.91,447.374 634.706,445.059 633.358,442.592C632.113,440.315 633.977,432.3 634.18,431.428C640.647,403.622 644.639,371.44 638.801,376.914C628.508,386.566 621.405,412.059 619.47,412.341C609.567,413.783 629.29,365.975 642.421,368.874C655.842,371.837 646.349,406.364 651.874,395.926C656.314,387.537 672.047,368.16 680.676,363.857C699.345,354.549 694.008,390.843 693.903,392.526L693.576,397.505C693.409,400.161 693.241,402.818 693.074,405.474C692.792,409.215 692.834,409.11 692.615,413.506C691.924,430.974 692.246,430.926 692.605,441.493L693.018,446.541C693.781,454.55 694.885,473.253 703.933,493.284C712.637,512.553 724.362,498.81 729.512,488.506C745.438,456.646 738.321,443.491 749.522,439.64C752.845,439.557 752.826,439.673 755.505,441.494C756.989,443.53 757.02,443.493 757.108,443.693C759.206,448.47 752.233,504.475 727.345,519.246C722.298,522.24 722.117,522.546 720.329,530.462C715.748,550.745 714.977,559.752 714.735,560.607C714.628,560.985 711.533,564.511 710.925,557.509L711.096,552.482C711.398,546.86 711.368,546.951 711.888,539.527C712.152,534.401 712.254,534.481 711.967,529.439C708.347,514.175 702.544,545.178 702.371,545.346C696.207,551.342 704.106,523.46 699.375,519.663C686.118,509.023 680.99,499.791 677.481,465.502C677.318,462.829 677.155,460.157 676.992,457.484C676.972,453.825 676.953,450.166 676.934,446.507L677.071,442.486C677.178,440.155 677.286,437.824 677.393,435.493Z"/>
        </g>
    </g>
</svg>
