<?xml version="1.0" encoding="UTF-8" standalone="no"?>
<!DOCTYPE svg PUBLIC "-//W3C//DTD SVG 1.1//EN" "http://www.w3.org/Graphics/SVG/1.1/DTD/svg11.dtd">
<svg width="100%" height="100%" viewBox="0 0 662 610" version="1.1" xmlns="http://www.w3.org/2000/svg" xmlns:xlink="http://www.w3.org/1999/xlink" xml:space="preserve" xmlns:serif="http://www.serif.com/" style="fill-rule:evenodd;clip-rule:evenodd;stroke-linejoin:round;stroke-miterlimit:2;">
    <g transform="matrix(1,0,0,1,-908.01812,-1303.862858)">
        <g transform="matrix(1,0,0,1,808,1244)">
            <path id="O-Archive" d="M144.5,492.966C145.638,493.064 154.951,493.863 158.259,496.781C164.716,502.475 168.605,498.686 170.22,500.785C173.581,505.155 174.081,504.734 179.556,505.079C186.521,505.518 199.688,521.208 203.423,522.683C210.197,525.356 209.879,525.905 210.501,525.907C217.123,525.927 207.749,520.562 206.921,507.444C206.701,503.961 197.81,493.481 190.603,489.331C173.975,479.757 176.99,494.57 176.919,495.604C176.68,499.073 167.709,493.989 161.357,490.717C161.147,490.609 158.198,486.805 163.445,488.634C173.937,492.289 167.034,482.368 160.318,465.577C159.437,463.376 151.88,444.484 150.999,437.458C149.963,429.199 146.917,424.897 145.923,418.439C145.294,414.351 142.295,412.057 141.318,409.577C133.211,389.002 136.536,383.055 135.685,380.426C133.719,374.359 136.856,370.633 138.682,366.574C139.237,365.34 138.905,357.693 139.316,356.426C139.711,355.204 142.581,346.344 140.683,340.427C139.581,336.991 142.057,331.665 140.685,327.426C138.951,322.073 141.416,321.771 139.685,316.426C139.315,315.284 137.234,308.859 140.319,301.426C142.731,295.613 142.568,294.818 143.08,287.44C143.376,283.163 152.114,281.989 156.314,269.424C160.235,257.696 161.196,258.178 166.312,245.421C170.479,235.034 171.611,235.68 175.703,227.603C179.615,219.881 187.496,209.807 179.496,209.968C171.194,210.134 170.789,213.474 150.424,206.686C141.46,203.698 132.702,195.243 132.332,194.603C128.824,188.536 137.831,189.891 142.556,190.079C142.878,190.092 146.359,191.726 149.574,190.685C154.03,189.241 158.749,189.208 164.424,187.314C176.007,183.45 176.478,184.926 177.261,184.216C183.475,178.584 184.414,179.983 200.397,169.331C214.66,159.826 214.092,159.046 215.397,158.332C225.112,153.018 223.134,150.507 232.397,144.331C240.735,138.773 239.155,137.019 247.26,131.22C249.496,129.619 254.071,123.534 254.394,123.336C257.658,121.337 269.477,109.993 270.741,108.781C271.968,107.602 277.75,105.678 279.603,104.668C283.843,102.355 282.205,99.601 306.426,89.319C311.245,87.273 311.622,89.289 316.574,87.685C325.03,84.946 327.688,89.888 335.424,87.314C355.999,80.47 361.721,81.612 364.574,80.685C373.593,77.753 373.798,78.937 374.574,78.684C375.462,78.396 384.688,75.397 386.206,77.735C389.218,82.372 362.927,84.762 359.426,86.318C342.214,93.967 338.65,92.386 340.315,96.573C343.833,105.42 350.937,101.073 357.426,98.319C359.858,97.286 360.027,98.512 362.574,97.685C381.705,91.468 381.961,92.351 383.574,91.682C391.217,88.509 391.949,91.729 399.577,88.683C413.781,83.009 414.178,85.061 429.507,84.963C437.591,84.912 434.804,71.685 421.593,75.724C419.963,76.222 408.641,76.244 408.639,76.243C406.89,75.182 410.362,73.296 421.505,72.907C425.354,72.773 424.73,71.531 427.729,68.778C429.128,67.495 432.9,69.701 434.55,70.004C443.783,71.704 440.803,88.917 440.315,90.426C439.089,94.219 442.28,95.9 444.261,94.217C451.814,87.803 445.406,71.636 444.921,67.439C444.56,64.313 435.487,61.949 439.377,60.307C443.701,58.482 447.169,62.859 448.543,63.002C455.892,63.766 455.41,65.104 460.74,70.22C461.943,71.374 471.022,73.87 467.648,75.692C466.579,76.269 465.464,76.758 464.395,77.336C460.524,79.43 464.058,85.305 469.542,86.001C478.795,87.176 479.801,89.394 488.55,91.004C504.122,93.87 510.163,98.699 512.542,99.001C513.188,99.083 519.078,99.831 520.574,100.316C529.266,103.131 527.701,96.249 527.217,95.738C519.09,87.151 516.851,91.1 506.369,85.696C504.732,84.852 504.748,82.555 507.541,83.044C515.823,84.494 515.879,84.091 516.574,84.316C520.748,85.668 523.072,84.829 524.574,85.316C530.323,87.177 530.642,84.763 536.424,86.686C542.496,88.706 542.548,87.192 545.542,86.999C559.415,86.107 559.98,84.44 572.397,90.703C581.624,95.357 579.921,97.673 585.397,100.668C596.212,106.582 600.924,110.408 618.261,127.738C620.485,129.962 621.187,133.458 623.397,134.668C630.128,138.35 641.601,150.103 647.74,155.22C672.896,176.182 686.107,180.461 697.426,185.682C698.796,186.314 708.016,185.811 709.574,186.316C713.069,187.447 713.074,186.33 716.542,185.999C727.046,184.996 725.708,181.568 735.425,177.306C737.393,176.443 738.585,178.4 737.682,180.574C734.797,187.521 735.997,188.717 729.397,192.332C727.626,193.302 727.113,195.638 724.261,198.216C723.574,198.837 723.34,198.371 713.577,202.682C705.188,206.387 692.216,206.816 687.574,205.315C683.403,203.967 681.971,207.859 683.785,210.271C698.473,229.799 701.241,246.086 708.331,258.603C711.351,263.933 710.936,264.016 713.317,269.577C716.315,276.576 718.555,274.917 722.781,281.269C725.218,284.932 724.299,285.254 725.686,289.424C727.835,295.885 728.437,313.251 727.684,315.574C725.534,322.216 727.986,324.07 728.651,325.423C731.912,332.065 730.259,364.242 731.785,366.271C738.382,375.046 733.837,382.012 735.315,386.574C737.526,393.397 729.433,404.748 726.318,411.426C725.689,412.776 726.561,414.676 725.314,418.424C717.862,440.825 721.125,443.723 705.317,480.423C701.343,489.65 712.827,485.92 713.571,485.678C717.606,484.367 729.953,484.243 729.949,485.497C729.945,487.185 719.531,487.386 719.461,487.405C701.706,492.239 701.321,493.131 700.685,494.608C698.404,499.9 713.531,491.01 717.574,492.316C724.509,494.556 724.682,493.986 731.576,491.686C740.32,488.768 740.808,494.524 749.574,491.685C757.62,489.078 761.902,495.194 761.206,496.265C760.602,497.195 734.608,497.67 716.603,509.669C715.166,510.626 699.698,520.935 698.74,521.78C674.28,543.383 676.472,545.513 674.217,547.217C668.781,551.325 660.235,564.248 653.261,571.261C645.24,579.329 646.301,580.182 638.261,588.261C634.973,591.567 635.259,591.739 632.219,595.259C628.42,599.659 617.324,609.156 616.738,609.738C608.656,617.775 607.511,616.369 599.259,624.219C598.948,624.515 589.131,630.435 588.74,630.78C581.981,636.75 572.248,638.588 570.423,639.317C562.778,642.371 562.695,642.004 554.5,642.034C546.658,642.063 546.82,642.908 539.426,645.315C532.187,647.672 532.07,646.776 524.444,647.079C521.963,647.177 522.162,648.008 519.5,648.034C517.952,648.049 510.228,648.124 500.426,651.315C494.53,653.235 486.753,652.964 481.576,654.686C470.029,658.527 457.343,656.546 452.74,660.78C440.532,672.014 435.857,668.807 431.45,667.996C423.98,666.621 425.14,664.615 420.262,659.739C416.591,656.07 402.269,658.929 398.426,657.684C397.881,657.508 394.343,656.362 391.458,655.999C378.569,654.375 378.499,655.032 377.426,654.684C372.925,653.227 372.814,653.81 372.426,653.684C358.1,649.044 349.741,652.667 336.397,645.668C334.933,644.899 332.956,640.151 328.574,641.684C307.39,649.098 269.399,617.599 264.221,611.741C261.9,609.115 252.34,601.857 251.738,601.261C248.44,597.987 248.275,598.271 244.741,595.219C240.82,591.834 235.724,584.987 228.741,580.219C225.658,578.115 226.233,576.013 216.741,569.219C216.649,569.154 202.345,554.862 202.26,554.78C199.867,552.483 199.189,553.52 196.741,551.219C187.222,542.275 182.612,539.373 175.741,534.219C159.418,521.977 156.449,518.503 132.426,510.684C116.276,505.428 102.986,507.411 100.781,505.219C95.189,499.657 122.15,489.965 122.603,489.669C131.507,483.845 139.736,485.064 143.555,484.91C146.034,484.81 146.006,483.873 148.424,484.686C156.242,487.311 148.493,489.671 145.426,488.685C141.105,487.296 130.436,489.734 129.791,490.727C126.834,495.281 140.404,493.058 144.5,492.966ZM675.463,412.496C674.832,419.774 672.794,427.534 674.499,428.503C677.371,430.135 680.497,407.153 680.688,406.577C684.352,395.501 681.844,395.072 683.322,390.429C684.658,386.235 685.019,380.337 685.074,379.45C685.429,373.657 682.863,375.127 679.444,374.921C679.01,374.895 673.494,372.364 666.669,382.603C661.001,391.106 662.231,391.646 661.92,398.56C661.848,400.176 659.18,401.798 658.998,403.543C657.817,414.908 658.008,415.001 653.318,425.426C651.793,428.817 656.181,434.772 652.219,439.259C646.205,446.073 648.854,448.933 647.681,451.574C646.951,453.219 646.034,454.777 645.315,456.427C643.985,459.48 647.274,459.226 646.673,462.546C646.51,463.446 645.02,471.681 649.421,473.649C655.681,476.447 654.707,466.606 661.472,455.482L662.894,457.205C665.478,460.044 666.141,453.864 666.753,452.627C667.285,451.551 672.034,441.948 671.62,438.436C670.849,431.89 668.92,445.478 664.392,451.305L663.818,450.412C664.844,442.98 667.886,436.677 667.905,436.553C669.904,423.805 670.282,423.945 673.537,411.504C673.653,410.495 674.955,399.163 676.498,399.159C679.344,399.15 675.6,411.871 675.463,412.496ZM677.825,388.5C677.96,385.974 677.339,385.835 678.706,383.666C680.605,380.655 680.535,390.692 679.795,392.62C675.111,404.821 677.704,389.847 677.825,388.5ZM677.629,512.631C677.474,512.793 670.658,522.074 678.363,515.337C681.706,512.414 682.847,507.677 679.516,510.52C679.416,510.605 677.779,512.462 677.629,512.631ZM641.771,415.561C641.634,417.665 640.424,418.843 642.525,418.633C644.81,418.404 644.043,410.446 641.771,415.561ZM660.929,471.546C659.437,463.715 654.618,475.695 655.034,477.642C656.192,483.051 660.671,472.173 660.929,471.546ZM274.565,172.565C274.412,170.881 274.533,170.813 274.401,170.752C273.369,170.275 272.801,171.436 272.736,171.57C272.068,172.935 273.134,172.434 274.565,172.565ZM169.176,470.52C168.545,468.983 169.054,467.933 167.493,468.477C165.566,469.149 168.543,475.159 169.176,470.52ZM154.949,436.502C156.207,444.21 159.107,441.965 159.162,441.448C159.178,441.303 156.728,428.562 154.949,436.502ZM193.834,273.519C194.667,279.84 198.464,269.553 196.523,269.428C194.727,269.312 193.888,273.352 193.834,273.519ZM326.465,617.02C331.347,614.859 327.061,612.686 325.723,613.77C323.717,615.394 323.992,616.488 326.465,617.02ZM685.534,504.634C682.315,506.719 685.146,507.071 685.322,507.001C685.495,506.933 687.105,506.294 687.102,505.503C687.101,505.36 686.99,505.441 685.534,504.634ZM202.04,256.489C202.528,253.396 202.677,253.541 203.741,250.597C209.717,234.053 196.976,255.896 197.164,260.568C197.23,262.214 200.741,264.059 202.04,256.489ZM161.083,447.635C159.601,445.488 159.711,445.327 159.486,445.321C158.564,445.301 158.665,445.556 158.661,446.528C158.645,449.988 161.36,454.739 161.732,455.391C168.484,467.207 161.303,448.217 161.083,447.635ZM147.968,344.5C147.689,340.63 148.005,340.514 147.257,339.75C143.524,335.938 144.027,349.673 144.06,350.575C144.22,354.94 148.088,351.497 147.968,344.5ZM206.319,480.59C205.513,479.013 204.863,477.36 204.057,475.783C202.333,472.406 201.14,478.639 203.776,482.276C208.562,488.88 206.401,480.82 206.319,480.59ZM193.027,285.461C192.899,284.497 193.323,283.513 193.195,282.55C192.563,277.792 188.519,287.586 190.022,289.887C191.665,292.401 192.591,286.857 193.027,285.461ZM640.032,289.5C640.077,290.148 640.925,302.376 644.309,296.397C646.395,292.712 640.529,278.912 640.039,285.351C639.934,286.73 640.137,288.121 640.032,289.5ZM238.5,511.034C235.33,511.28 234.85,510.299 232.783,512.74C231.039,514.8 234.477,529.121 246.74,540.22C247.749,541.133 259.21,545.058 260.504,545.032C269.792,544.847 269.047,541.875 269.034,541.495C268.868,536.319 264.85,534.869 264.35,533.577C261.98,527.454 262.066,527.531 259.319,521.574C258.747,520.334 259.555,516.524 257.606,515.335C254.236,513.278 253.881,513.855 252.272,515.221C249.608,517.48 245.931,510.899 238.5,511.034ZM153.034,320.511C153.164,321.454 153.626,324.807 157.332,331.603C160.094,336.668 168.091,337.856 170.332,341.603C170.746,342.296 171.375,343.348 178.397,347.669C179.876,348.579 182.917,349.392 183.219,349.785C185.669,352.974 186.073,352.407 189.603,354.332C191.172,355.188 197.018,364.44 198.996,354.551C199.484,352.106 203.415,350.397 199.669,344.397C187.712,325.252 173.737,321.796 161.26,310.78C160.083,309.741 153.624,306.021 152.331,308.39C149.409,313.74 151.93,313.935 153.034,320.511ZM650.034,374.5C649.938,377.516 649.753,377.427 649.19,380.43C649.151,380.638 648.895,384.83 651.801,380.859C652.27,380.218 660.77,376.217 664.336,370.394C666.536,366.801 669.099,369.68 672.336,364.394C673.463,362.555 678.712,361.385 682.318,352.423C683.642,349.133 688.769,345.454 688.921,342.556C689.228,336.728 688.769,336.615 691.682,329.574C692.449,327.72 691.527,322.874 687.27,326.218C686.889,326.517 682.976,328.556 682.74,328.78C674.624,336.501 657.477,350.802 655.332,354.397C649.852,363.576 650.037,363.833 650.034,374.5ZM615.966,222.5C615.65,217.919 615.283,218.04 614.921,213.444C614.762,211.422 610.332,203.332 607.764,205.775C604.187,209.177 604.755,209.822 606.681,214.426C607.61,216.645 606.795,230.488 605.65,232.575C603.422,236.635 604.669,236.819 606.232,240.597C606.796,241.961 603.651,246.993 606.436,247.67C607.119,247.836 607.786,247.998 611.669,240.603C617.226,230.019 615.935,223.26 615.966,222.5ZM220.034,522.5C219.675,526.309 219.996,526.923 216.423,528.35C212.885,529.761 214.077,535.424 216.395,536.664C223.116,540.261 223.211,540.025 228.74,545.22C229.323,545.767 233.722,546.84 233.244,549.441C232.748,552.137 234.222,551.408 238.428,552.688C239.477,553.007 245.661,551.568 240.331,542.603C235.345,534.216 229.948,532.675 229.004,527.55C228.916,527.068 225.194,516.439 223.263,514.781C223.092,514.634 221.608,513.36 220.468,514.467C220.079,514.845 220.038,521.856 220.034,522.5ZM152.968,409.5C152.915,408.927 152.395,403.249 151.546,402.452C148.911,399.979 147.547,405.905 149.679,412.427C151.349,417.535 149.84,417.917 152.299,422.628C157.205,432.024 153.152,414.115 152.968,409.5ZM194.466,447.504C192.065,431.96 192.183,431.963 191.685,430.426C190.077,425.462 188.88,414.195 188.316,412.574C187.596,410.505 188.344,410.46 187.685,408.426C184.731,399.31 184.584,381.692 183.672,379.406C181.645,374.318 180.054,385.109 177.912,382.166C172.751,375.077 166.03,389.353 167.312,393.572C169.262,399.987 169.137,406.023 169.315,406.574C170.535,410.338 169.941,414.422 170.315,415.574C171.604,419.538 171.759,419.464 172.079,423.556C172.289,426.254 175.628,430.522 176.004,432.55C177.746,441.946 180.626,447.282 180.682,447.423C182.063,450.879 181.173,451.059 182.315,454.574C186.198,466.519 185.76,466.673 186.331,467.603C191.237,475.582 190.779,475.867 197.192,482.766C197.656,483.266 198.671,487.961 200.511,487.962C203.731,487.963 199.133,480.591 197.996,476.45C193.882,461.466 192.752,461.675 193.035,460.358C194.274,454.58 199.498,469.261 199.608,469.348C202.471,471.622 200.136,462.697 198.69,458.422C196.811,452.866 196.53,453.049 194.466,447.504ZM192.548,448.495C193.452,453.914 190.454,451.921 190.308,451.648C187.731,446.827 187.087,441.388 186.977,440.46C185.607,428.891 183.174,424.418 182.881,421.469C181.877,411.385 181.306,411.383 181.757,410.639C183.917,407.076 183.176,411.549 184.446,415.522C184.99,417.222 185.343,425.996 192.548,448.495ZM645.034,324.5C644.871,333.488 654.999,337.495 655.217,337.783C660.05,344.179 661.929,341.261 667.739,335.784C668.362,335.197 670.711,335.279 673.212,332.258C674.952,330.155 675.358,328.539 664.602,321.333C657.623,316.658 658.967,313.876 650.543,313.001C650.318,312.978 640.49,305.519 641.999,314.458C642.755,318.936 644.506,318.405 645.034,324.5ZM323.5,597.034C322.078,596.856 321.059,597.576 318.739,595.261C318.513,595.035 316.359,592.885 317.459,591.469C321.948,585.687 310.099,586.48 308.739,585.216C302.921,579.812 302.666,580.201 302.336,579.605C299.032,573.638 298.227,574.269 294.22,568.741C292.866,566.873 289.41,566.641 288.318,563.577C285.92,556.853 282.775,559.146 281.35,555.577C279.091,549.92 278.092,550.658 272.547,548.329C272.256,548.207 262.843,551.894 261.458,552.001C260.651,552.063 252.545,552.686 251.99,555.547C251.183,559.712 266.273,572.594 266.397,572.668C278.779,580.059 279.337,578.946 280.261,579.784C289.251,587.939 291.417,583.843 307.603,592.332C310.031,593.606 318.296,604.857 306.443,606.078C295.28,607.229 313.752,614.39 314.427,614.685C316.51,615.593 321.253,611.23 321.741,610.781C323.324,609.324 328.774,608.626 329.01,606.448C329.868,598.54 328.228,596.947 323.5,597.034ZM606.966,474.5C606.749,471.359 606.554,471.484 605.996,468.45C605.765,467.194 604.318,459.326 600.669,453.397C593.135,441.158 583.249,440.451 567.444,441.079C566.922,441.099 564.929,441.942 564.458,442.001C550.028,443.797 564.033,431.699 567.551,430.996C574.699,429.567 574.357,428.4 577.542,427.999C586.789,426.834 587.738,423.368 592.271,426.785C596.426,429.917 597.328,428.31 601.259,431.781C608.676,438.328 610.917,435.014 610.754,434.453C609.709,430.861 605.196,428.723 601.603,426.331C591.922,419.885 607.715,419.45 613.668,429.397C618.149,436.883 621.342,429.343 621.78,428.742C624.932,424.417 625.839,427.591 629.738,431.217C635.775,436.831 639.2,413.017 637.682,409.426C634.84,402.705 632.537,403.107 633.079,389.444C633.1,388.923 633.978,386.821 634.001,386.458C634.489,378.876 635.485,379.061 636.079,371.444C636.429,366.955 643.09,359.774 641.685,355.426C640.422,351.518 642.372,351.478 641.922,347.45C640.997,339.169 636.599,334.187 635.781,333.259C633.623,330.816 630.963,318.565 630.968,317.496C631.034,304.48 631.296,304.487 631.316,304.426C632.721,300.086 631.594,300.013 632.079,295.444C632.407,292.356 639.053,291.047 633.315,274.574C631.859,270.392 634.833,267.753 636.601,271.435C642.274,283.256 638.088,264.574 635.688,258.421C632.347,249.853 634.005,248.926 627.709,242.122C625.043,239.241 627.06,247.302 624.607,246.306C623.189,245.73 620.809,240.526 616.297,249.397C615.56,250.846 610.041,261.699 602.403,264.232C594.66,266.801 604.577,254.694 599.923,224.439C599.671,222.8 599.279,222.991 598.996,221.45C596.775,209.378 597.087,209.403 596.682,208.426C594.145,202.309 595.004,202.027 591.669,196.397C582.445,180.831 584.269,179.899 583.216,178.739C574.789,169.45 576.537,168.061 568.262,159.738C559.47,150.897 560.088,150.464 559.26,149.78C546.601,139.334 546.853,139.016 545.603,138.332C531.512,130.624 530.047,119.537 524.458,118.999C512.797,117.876 514.136,114.468 503.603,109.294C502.054,108.534 498.041,106.562 483.424,101.686C476.292,99.306 464.865,98.827 464.427,98.684C457.8,96.529 457.059,104.179 452.603,106.668C446.116,110.289 445.935,110.08 438.493,109.963C435.908,109.922 428.656,107.39 426.318,101.577C424.684,97.515 423.828,98.033 419.5,98.034C409.126,98.037 409.445,99.995 401.458,101.001C392.948,102.073 383.631,106.727 369.603,113.702C354.038,121.442 349.879,118.318 347.996,128.55C346.608,136.086 337.011,143.764 335.74,144.78C328.772,150.355 329.623,151.146 322.741,156.779C317.218,161.3 317.267,161.231 312.261,166.261C286.337,192.314 281.127,211.525 280.999,212.542C279.844,221.701 277.453,220.963 276.999,224.542C273.453,252.465 278.906,260.509 280.682,264.423C282.392,268.191 280.407,271.012 277.426,269.682C261.931,262.767 255.018,248.058 252.712,249.82C248.156,253.301 246.098,265.571 245.681,266.574C242.636,273.912 243.757,274.206 241.684,280.574C239.488,287.322 240.156,288.119 239.684,289.574C237.892,295.109 239.407,295.104 241.682,300.423C243.847,305.482 242.732,313.772 243.315,315.574C244.117,318.048 243.563,318.031 241.996,326.55C240.188,336.375 237.217,336.727 236.999,339.542C236.421,346.995 235.956,346.862 235.968,347.504C236.196,360.058 234.978,360.492 238.668,366.398C248.183,381.624 244.942,407.653 242.215,411.271C238.652,415.998 240.506,416.569 241.079,427.556C241.107,428.104 241.961,430.126 242.001,430.542C242.814,439.057 243.944,438.807 244.001,439.542C244.428,445.093 243.923,445.343 247.219,449.741C248.482,451.426 250.566,458.188 255.669,449.603C262.207,438.604 280.291,432.323 287.679,434.208C297.303,436.664 277.868,436.873 275.706,437.852C259.65,445.123 262.713,448.63 259.215,453.271C252.865,461.695 257.579,466.022 253.529,469.536C249.135,473.348 247.933,458.655 244.575,457.345C239.954,455.541 232.491,475.942 234.315,481.574C236.141,487.21 234.925,497.621 246.577,502.318C251.428,504.273 250.169,507.018 251.197,508.738C253.733,512.982 252.964,502.042 252.922,501.444C252.88,500.854 252.029,498.849 251.999,498.458C251.571,492.885 250.496,492.721 252.682,487.574C253.236,486.269 253.511,478.584 256.332,473.398C258.095,470.155 257.955,470.158 258.093,466.495C258.185,464.048 258.827,464.354 262.22,460.26C267.23,454.213 267.821,454.808 268.22,454.259C270.753,450.764 270.63,450.751 273.741,447.781C276.151,445.479 290.021,445.188 291.574,444.685C298.426,442.465 298.578,443.326 305.453,445.671C305.527,445.696 311.401,443.574 314.293,448.606C317.463,454.122 302.81,451.196 302.428,451.312C297.748,452.734 297.719,452.004 292.493,452.037C288.449,452.062 278.472,458.811 276.332,462.397C270.339,472.437 271.29,477.704 270.684,479.574C269.189,484.192 269.865,496.228 273.314,506.576C275.838,514.148 274.743,514.528 278.668,521.398C280.114,523.928 288.915,539.329 300.261,550.739C313.122,563.67 312.453,564.298 313.74,565.22C322.486,571.478 334.302,583.804 338.738,588.262C352.463,602.054 347.294,607.658 354.55,609.004C363.009,610.574 360.495,615.25 369.397,619.703C388.151,629.084 399.277,630.278 403.593,631.276C415.305,633.985 415.267,631.718 418.551,630.688C420.913,629.946 420.124,638.679 419.261,639.207C417.683,640.172 417.793,639.018 414.255,635.784C413.43,635.029 407.768,635.019 407.439,634.948C390.757,631.303 390.052,634.956 382.603,631.294C371.154,625.667 370.526,627.045 359.603,620.331C352.551,615.997 350.211,623.286 349.999,624.542C347.983,636.483 362.679,633.555 365.261,635.784C372.07,641.662 376.57,639.242 381.574,641.319C385.905,643.116 385.923,642.838 390.556,643.079C391.104,643.108 393.126,643.962 393.542,644.001C400.929,644.707 400.858,645.028 401.5,645.035C410.867,645.126 411.168,646.643 416.601,643.67C420.505,641.534 419.767,644.486 421.35,648.577C423.11,653.128 427.672,649.563 425.685,643.426C424.396,639.447 426.182,626.94 430.216,622.261C431.233,621.082 430.978,618.298 431.351,617.421C432.396,614.959 444.172,616.184 444.575,616.35C451.41,619.167 453.929,626.453 454.318,627.577C455.317,630.466 460.418,632.421 460.667,633.437C461.24,635.769 453.581,638.708 452.394,639.336C449.132,641.061 451.769,647.213 459.574,644.685C463.543,643.399 482.989,643.12 491.424,640.314C497.298,638.36 497.545,639.019 498.574,638.685C499.847,638.271 511.506,634.482 514.423,633.318C517.939,631.915 525.457,630.977 527.217,629.217C532.027,624.407 529.23,620.842 528.782,620.27C525.375,615.927 529.857,612.546 525.461,611.998C524.756,611.911 512.218,617.236 520.738,608.739C524.599,604.89 528.961,608.484 531.683,601.577C534.842,593.559 534.585,593.515 539.331,586.397C549.049,571.825 566.144,560.855 576.22,548.26C583.166,539.576 595.224,521.724 599.683,510.577C607.045,492.172 606.979,477.444 606.966,474.5ZM505.53,623.896C507.268,624.27 508.162,623.943 507.704,625.623C507.284,627.168 500.124,626.094 505.53,623.896ZM483.535,628.964C485.629,629.425 486.768,629.796 485.263,631.27C483.823,632.679 479.058,630.897 483.535,628.964ZM628.042,256.601C626.749,253.217 626.818,252.871 626.883,252.54C628.103,246.381 635.176,262.981 632.501,264.503C631.87,264.861 631.565,264.589 628.042,256.601ZM208.569,228.648C209.392,231.067 208.956,231.038 208.126,233.481C208.063,233.668 207.556,240.332 210.406,234.44C216.005,222.869 217.248,223.614 217.65,222.577C224.342,205.335 226.602,205.65 225.632,204.391C223.502,201.627 220.694,211.957 218.425,213.267C212.332,216.786 221.975,202.97 221.232,200.597C218.552,192.034 212.609,199.251 207.741,202.78C205.735,204.235 205.961,206.9 205.681,207.574C202.348,215.596 202.705,215.695 202.216,216.261C192.502,227.5 191.986,240.125 189.219,243.259C185.387,247.6 186.578,248.348 182.784,252.739C181.666,254.032 176.109,271.106 175.999,272.542C175.599,277.745 175.453,277.677 173.318,282.426C172.682,283.842 173.374,292.941 172.681,294.574C170.863,298.864 171.743,299.02 170.315,303.426C167.434,312.323 178.37,322.761 181.615,316.594C183.334,313.326 183.948,319.16 183.98,319.455C184.508,324.475 188.68,318.686 187.689,315.428C186.061,310.078 190.475,302.64 189.257,299.596C188.177,296.898 182.825,300.301 184.312,295.428C185.074,292.928 184.468,292.853 185.316,290.426C188.246,282.034 187.274,281.84 189.686,274.576C199.015,246.485 200.395,247.069 200.903,244.557C201.184,243.172 202.71,235.631 208.569,228.648ZM161.046,278.496C161.259,274.666 161.565,274.798 163.142,271.328C163.249,271.091 176.364,238.617 176.368,238.511C176.606,232.125 174.842,239.842 170.765,244.728C169.126,246.693 157.181,280.155 156.987,281.541C156.269,286.676 156.369,286.607 154.978,291.65C154.138,294.7 156.894,296.065 157.163,293.464C157.726,288.011 160.004,284.819 161.046,278.496ZM244.039,201.5C245.27,209.685 253.387,203.945 254.668,201.603C256.931,197.465 256.615,197.108 260.606,194.664C265.43,191.71 259.252,188.208 263.783,184.783C268.319,181.354 267.869,180.905 269.683,175.548C272.088,168.449 247.077,178.742 244.039,201.5ZM632.966,458.5C632.924,449.911 634.393,449.359 626.664,435.395C625.625,433.518 621.697,432.448 620.318,436.423C617.756,443.807 614.363,444.619 619.543,450.459C621.459,452.617 620.609,455.163 621.706,457.397C626.433,467.03 625.805,467.698 621.318,477.426C620.793,478.566 620.96,488.476 621.315,489.574C623.549,496.47 616.723,509.79 616.217,510.218C609.97,515.493 615.909,519.459 609.259,524.219C601.897,529.489 601.922,529.651 597.664,537.605C596.948,538.942 596.164,538.333 593.738,540.739C592.24,542.226 590.79,543.762 589.261,545.216C588.252,546.176 585.259,546.005 584.425,546.35C580.966,547.783 582.216,548.799 581.921,552.556C581.643,556.09 573.824,563.092 569.664,570.605C568.631,572.47 561.809,573.858 557.78,578.74C550.979,586.983 551.853,587.585 551.219,588.259C546.798,592.965 547.781,593.711 543.261,598.261C541.774,599.759 540.239,601.21 538.784,602.739C538.081,603.478 537.199,606.39 539.566,607.017C541.968,607.653 541.834,608.102 542.079,610.557C542.386,613.638 545.987,616.844 549.574,615.685C555.88,613.647 555.904,614.188 562.556,613.921C563.054,613.901 576.577,609.556 579.259,607.22C582.323,604.55 581.582,602.757 589.557,601.921C590.801,601.791 598.428,597.538 600.22,595.26C605.731,588.249 606.408,588.904 611.781,581.741C616.973,574.817 627.998,564.827 628.668,563.603C634.767,552.453 638.537,554.849 641.668,549.603C648.025,538.953 652.267,542.691 657.669,533.603C662.767,525.028 669.654,525.181 668.921,519.446C668.526,516.347 666.358,516.566 667.686,512.576C668.061,511.448 671.21,501.984 666.261,497.783C663.488,495.429 655.601,501.961 655.336,502.394C653.63,505.179 643.317,515.542 642.332,517.397C635.711,529.868 633.815,529.375 632.921,543.556C632.768,545.992 629.867,548.948 628.317,544.577C625.387,536.312 621.502,544.549 620.219,546.259C612.337,556.769 611.916,556.418 611.332,557.397C603.692,570.196 602.831,569.56 602.332,570.397C591.036,589.321 582.047,595.856 573.261,604.216C573.142,604.329 568.67,606.605 566.426,605.681C555.127,601.033 575.312,583.165 583.739,574.739C606.758,551.719 607.574,552.558 609.22,550.26C616.924,539.494 618.116,540.598 618.669,539.601C621.826,533.914 613.071,536.793 612.452,536.671C611.481,536.481 605.062,533.555 617.397,525.331C621.012,522.921 644.758,507.091 642.923,477.392C642.607,472.276 630.426,483.903 629.499,483.906C628.82,483.909 625.683,483.919 629.318,475.423C632.779,467.334 632.617,467.285 632.966,458.5ZM280.5,158.966C281.377,158.905 289.495,158.338 290.002,153.457C290.91,144.717 293.506,146.005 301.261,138.262C306.119,133.411 300.021,131.816 297.739,133.784C293.531,137.412 292.739,136.743 288.444,137.079C283.125,137.494 274.117,144.667 269.318,155.426C266.488,161.772 276.19,159.336 280.5,158.966ZM679.966,311.5C679.424,303.651 677.592,296.632 676.287,295.819C675.191,295.136 671.56,298.649 670.997,294.457C668.494,275.814 664.828,274.021 666.316,269.426C669.692,258.999 660.64,257.243 661.327,253.454C662.193,248.677 660.983,248.833 657.463,245.536C654.119,242.404 660.327,232.951 652.603,228.332C647.322,225.173 651.862,221.68 648.581,220.35C638.91,216.432 641.191,206.501 635.602,208.765C631.304,210.507 633.753,218.106 633.673,218.546C632.493,225.02 636.041,230.532 639.681,238.426C640.597,240.411 640.692,246.937 642.331,249.603C642.76,250.3 647.22,257.555 647.782,258.27C650.242,261.407 647.939,263.71 650.331,267.603C655.76,276.435 650.846,277.821 654.682,287.423C660.775,302.672 653.057,309.135 660.41,313.647C665.568,316.813 665.335,317.015 669.76,321.197C672.859,324.126 673.26,323.534 677.542,322.999C684.761,322.097 680.589,318.758 679.966,311.5ZM630.037,171.507C631.399,181.5 657.451,201.312 653.315,188.573C651.838,184.022 657.997,181.659 653.604,179.331C640.121,172.186 639.523,171.332 634.603,168.331C629.324,165.112 630.113,170.741 630.037,171.507ZM617.966,160.5C618.288,157.087 617.939,156.896 620.217,154.262C622.49,151.634 617.069,146.587 616.603,146.332C608.42,141.855 609.306,140.703 601.742,135.22C598.257,132.693 598.602,125.472 588.397,118.669C574.197,109.203 583.337,124.097 584.742,125.221C590.274,129.647 587.37,131.217 589.318,135.574C595.666,149.77 618.248,175.534 617.966,160.5ZM255.966,152.5C255.899,141.905 254.003,139.432 257.551,140.074C260.895,140.679 259.874,141.972 262.332,146.604C263.882,149.525 266.779,148.052 267.664,146.606C271.286,140.689 283.428,136.257 285.664,132.606C290.43,124.825 307.256,114.159 309.542,113.999C322.545,113.093 321.82,116.936 323.471,118.536C324.134,119.179 328.277,121.272 329.079,108.444C329.302,104.874 330.649,104.857 329.346,101.577C327.954,98.071 326.679,97.377 324.221,100.214C322.696,101.975 303.217,99.662 298.74,103.78C294.792,107.414 294.744,107.618 289.439,108.079C287.197,108.274 287.758,109.123 285.668,112.602C280.799,120.711 272.8,123.815 271.423,124.35C270.97,124.525 266.343,129.002 264.454,128.678C258.466,127.65 259.102,129.877 256.219,133.259C251.504,138.792 248.509,138.578 246.779,140.742C242.912,145.577 241.445,144.159 238.331,149.397C232.867,158.587 223.393,159.034 221.336,162.394C216.748,169.886 203.271,175.429 201.74,176.78C194.189,183.447 191.434,178.963 189.335,182.394C184.95,189.561 179.955,188.168 175.261,192.216C173.868,193.417 173.473,192.303 164.424,195.314C161.071,196.43 161.1,194.948 157.496,194.968C143.304,195.045 142.994,196.536 143.285,197.656C143.459,198.329 143.894,197.635 151.423,200.683C155.356,202.274 155.592,201.026 159.574,202.316C162.419,203.237 162.449,202.968 176.5,202.966C196.797,202.962 199.094,197.675 202.423,196.349C211.83,192.602 214.873,180.058 217.669,185.389C222.488,194.576 223.833,196.413 233.577,192.651C236.882,191.375 242.997,183.829 243.668,182.603C253.487,164.648 255.365,163.344 255.966,152.5ZM144.037,370.507C144.663,375.15 145.126,375.159 143.688,379.574C143.538,380.034 142.839,382.179 144.35,385.58C146.851,391.207 152.436,380.171 161.423,376.318C162.968,375.655 167.434,373.74 179.259,365.22C184.972,361.104 172.882,358.098 170.668,354.397C167.348,348.845 161.945,351.649 160.74,352.78C156.823,356.461 156.988,356.591 152.397,359.332C144.706,363.922 144.15,369.396 144.037,370.507ZM568.5,111.966C581.393,110.675 564.098,104.91 563.424,104.686C555.211,101.948 555.349,97.397 549.426,99.315C544.153,101.023 539.295,99.617 536.74,101.783C531.888,105.898 540.115,110.931 542.668,115.398C547.687,124.178 548.222,123.746 557.259,130.781C560.831,133.561 567.457,142.909 570.397,144.668C574.531,147.143 574.401,151.444 577.423,152.65C586.255,156.178 583.776,164.887 591.74,172.22C593.861,174.172 594.724,173.586 597.682,180.423C597.991,181.136 600.74,187.489 601.001,189.542C601.095,190.283 602.091,198.129 607.429,196.314C613.904,194.111 619.828,206.087 625.579,203.65C629.179,202.125 626.914,195.133 626.685,194.426C624.542,187.813 625.469,183.541 620.669,174.397C617.655,168.658 614.421,170.79 608.603,167.331C593.628,158.429 588.349,140.761 582.603,137.332C563.154,125.722 554.831,113.535 568.5,111.966ZM395.506,78.188C391.558,77.602 394.883,75.413 397.452,75.795C397.696,75.831 399.939,77.777 395.506,78.188Z"/>
        </g>
    </g>
</svg>
