<?xml version="1.0" encoding="UTF-8" standalone="no"?>
<!DOCTYPE svg PUBLIC "-//W3C//DTD SVG 1.1//EN" "http://www.w3.org/Graphics/SVG/1.1/DTD/svg11.dtd">
<svg width="100%" height="100%" viewBox="0 0 991 1003" version="1.1" xmlns="http://www.w3.org/2000/svg" xmlns:xlink="http://www.w3.org/1999/xlink" xml:space="preserve" xmlns:serif="http://www.serif.com/" style="fill-rule:evenodd;clip-rule:evenodd;stroke-linecap:round;stroke-linejoin:round;stroke-miterlimit:1.5;">
    <g transform="matrix(1,0,0,1,-213.303806,-449.524278)">
        <g id="NA" transform="matrix(1,0,0,1,-1181.102362,-330.708661)">
            <g transform="matrix(0.952381,0,0,0.963873,922.384702,-16.521504)">
                <path d="M1511.811,1095.468L1511.811,1597.445C1511.811,1732.706 1400.672,1842.52 1263.78,1842.52L767.717,1842.52C630.824,1842.52 519.685,1732.706 519.685,1597.445L519.685,1095.468C519.685,960.208 630.824,850.394 767.717,850.394L1263.78,850.394C1400.672,850.394 1511.811,960.208 1511.811,1095.468Z" style="fill:none;stroke:black;stroke-width:47.84px;"/>
            </g>
            <g transform="matrix(-1.222222,-1.222222,-1.222222,1.222222,5498.687664,1732.283465)">
                <path d="M1653.543,1086.614L1653.543,1511.811" style="fill:none;stroke:black;stroke-width:26.52px;"/>
            </g>
        </g>
    </g>
</svg>
