<?xml version="1.0" encoding="UTF-8" standalone="no"?>
<!DOCTYPE svg PUBLIC "-//W3C//DTD SVG 1.1//EN" "http://www.w3.org/Graphics/SVG/1.1/DTD/svg11.dtd">
<svg width="100%" height="100%" viewBox="0 0 934 945" version="1.1" xmlns="http://www.w3.org/2000/svg" xmlns:xlink="http://www.w3.org/1999/xlink" xml:space="preserve" xmlns:serif="http://www.serif.com/" style="fill-rule:evenodd;clip-rule:evenodd;stroke-linejoin:round;stroke-miterlimit:2;">
    <g transform="matrix(1,0,0,1,-3548.939659,-1889.76378)">
        <g transform="matrix(0.941026,0,0,0.952381,3059.902317,1079.865017)">
            <g id="Dark-mode" serif:id="Dark mode">
                <path d="M1511.811,1095.468L1511.811,1597.445C1511.811,1732.706 1400.672,1842.52 1263.78,1842.52L767.717,1842.52C630.824,1842.52 519.685,1732.706 519.685,1597.445L519.685,1095.468C519.685,960.208 630.824,850.394 767.717,850.394L1263.78,850.394C1400.672,850.394 1511.811,960.208 1511.811,1095.468ZM1308.277,1585.617C1308.277,1585.617 1065.837,1610.124 1065.354,1346.457C1064.895,1095.469 1313.386,1100.516 1313.386,1100.516C1250.34,1036.922 1162.477,997.438 1065.354,997.438C873.705,997.438 718.11,1151.178 718.11,1340.542C718.11,1529.907 873.705,1683.647 1065.354,1683.647C1159.881,1683.647 1245.637,1646.246 1308.277,1585.617Z" style="fill:white;"/>
            </g>
        </g>
    </g>
</svg>
