<?xml version="1.0" encoding="UTF-8" standalone="no"?>
<!DOCTYPE svg PUBLIC "-//W3C//DTD SVG 1.1//EN" "http://www.w3.org/Graphics/SVG/1.1/DTD/svg11.dtd">
<svg width="100%" height="100%" viewBox="0 0 991 1003" version="1.1" xmlns="http://www.w3.org/2000/svg" xmlns:xlink="http://www.w3.org/1999/xlink" xml:space="preserve" xmlns:serif="http://www.serif.com/" style="fill-rule:evenodd;clip-rule:evenodd;stroke-linecap:round;stroke-linejoin:round;stroke-miterlimit:1.5;">
    <g transform="matrix(1,0,0,1,-1394.406168,-449.524278)">
        <g transform="matrix(0.952381,0,0,0.963873,922.384702,-347.230166)">
            <g id="NA">
                <path d="M1511.811,1095.468L1511.811,1597.445C1511.811,1732.706 1400.672,1842.52 1263.78,1842.52L767.717,1842.52C630.824,1842.52 519.685,1732.706 519.685,1597.445L519.685,1095.468C519.685,960.208 630.824,850.394 767.717,850.394L1263.78,850.394C1400.672,850.394 1511.811,960.208 1511.811,1095.468Z" style="fill:none;stroke:black;stroke-width:47.84px;"/>
            </g>
        </g>
        <path d="M1748.031,826.772C1748.031,708.661 1889.764,708.661 1889.764,708.661C1889.764,708.661 2031.496,708.661 2031.496,826.772C2031.496,944.882 1889.764,944.882 1889.764,944.882L1889.764,1086.614" style="fill:none;stroke:black;stroke-width:45.83px;"/>
        <path d="M1889.764,1181.102L1889.764,1228.346" style="fill:none;stroke:black;stroke-width:45.83px;"/>
    </g>
</svg>
