<?xml version="1.0" encoding="UTF-8" standalone="no"?>
<!DOCTYPE svg PUBLIC "-//W3C//DTD SVG 1.1//EN" "http://www.w3.org/Graphics/SVG/1.1/DTD/svg11.dtd">
<svg width="100%" height="100%" viewBox="0 0 991 1003" version="1.1" xmlns="http://www.w3.org/2000/svg" xmlns:xlink="http://www.w3.org/1999/xlink" xml:space="preserve" xmlns:serif="http://www.serif.com/" style="fill-rule:evenodd;clip-rule:evenodd;stroke-linecap:round;stroke-linejoin:round;stroke-miterlimit:1.5;">
    <g transform="matrix(1,0,0,1,-213.303806,-780.23294)">
        <g id="Shuffle">
            <g transform="matrix(0.952381,0,0,0.963873,-258.71766,-16.521504)">
                <path d="M1511.811,1095.468L1511.811,1597.445C1511.811,1732.706 1400.672,1842.52 1263.78,1842.52L767.717,1842.52C630.824,1842.52 519.685,1732.706 519.685,1597.445L519.685,1095.468C519.685,960.208 630.824,850.394 767.717,850.394L1263.78,850.394C1400.672,850.394 1511.811,960.208 1511.811,1095.468Z" style="fill:none;stroke:black;stroke-width:47.84px;"/>
            </g>
            <g transform="matrix(1,0,0,1,-282.759383,29.322584)">
                <g transform="matrix(1,0,0,-1,-71.571522,2609.881283)">
                    <path d="M1031.164,1275.78C1034.008,1271.799 1034.008,1266.451 1031.164,1262.47C1015.055,1239.918 963.53,1167.782 963.53,1167.782C959.228,1161.76 952.283,1158.186 944.882,1158.186L708.661,1158.186C696.013,1158.186 685.745,1168.454 685.745,1181.102C685.745,1193.75 696.013,1204.019 708.661,1204.019L933.089,1204.019C933.089,1204.019 978.417,1267.479 998.438,1295.509C1000.588,1298.518 1004.058,1300.304 1007.755,1300.304C1011.453,1300.304 1014.923,1298.518 1017.072,1295.509C1021.792,1288.902 1027.321,1281.161 1031.164,1275.78ZM1097.148,1419.623C1094.14,1423.834 1094.14,1429.491 1097.148,1433.702C1113.244,1456.236 1162.454,1525.131 1162.454,1525.131C1166.756,1531.153 1173.701,1534.728 1181.102,1534.728L1361.997,1534.728L1306.63,1590.095C1297.687,1599.038 1297.687,1613.56 1306.63,1622.504C1315.574,1631.447 1330.096,1631.447 1339.039,1622.504L1433.528,1528.016C1433.649,1527.895 1433.768,1527.773 1433.886,1527.649C1437.459,1523.916 1439.525,1519.272 1440.084,1514.485C1440.243,1513.129 1440.28,1511.765 1440.197,1510.41C1439.869,1505.02 1437.646,1499.725 1433.527,1495.606L1339.039,1401.118C1330.09,1392.169 1315.58,1392.169 1306.63,1401.118C1297.681,1410.068 1297.681,1424.578 1306.63,1433.527L1361.997,1488.894L1192.896,1488.894C1192.896,1488.894 1149.985,1428.82 1130.137,1401.032C1127.864,1397.85 1124.193,1395.961 1120.282,1395.961C1116.371,1395.961 1112.7,1397.85 1110.427,1401.032C1105.943,1407.31 1100.829,1414.47 1097.148,1419.623Z"/>
                </g>
                <g transform="matrix(1,0,0,1,-71.571522,11.456087)">
                    <path d="M708.661,1086.614L944.882,1086.614L1181.102,1417.323L1417.323,1417.323L1322.835,1322.835L1417.323,1417.323L1322.835,1511.811" style="fill:none;stroke:black;stroke-width:45.83px;"/>
                </g>
            </g>
        </g>
    </g>
</svg>
