<?xml version="1.0" encoding="UTF-8" standalone="no"?>
<!DOCTYPE svg PUBLIC "-//W3C//DTD SVG 1.1//EN" "http://www.w3.org/Graphics/SVG/1.1/DTD/svg11.dtd">
<svg width="100%" height="100%" viewBox="0 0 347 283" version="1.1" xmlns="http://www.w3.org/2000/svg" xmlns:xlink="http://www.w3.org/1999/xlink" xml:space="preserve" xmlns:serif="http://www.serif.com/" style="fill-rule:evenodd;clip-rule:evenodd;stroke-linejoin:round;stroke-miterlimit:2;">
    <g transform="matrix(1,0,0,1,-2488.094182,-1394.406168)">
        <g transform="matrix(0.366667,0,0,0.5,1362.10993,826.771654)">
            <path d="M3070.866,1699.377L3070.866,1607.71C3156.775,1607.71 3197.402,1562.609 3218.879,1519.655C3244.466,1468.481 3244.587,1417.323 3244.587,1417.323C3244.587,1417.323 3244.939,1320.041 3303.347,1242.164C3347.327,1183.523 3421.139,1135.269 3543.307,1135.269C3665.476,1135.269 3739.287,1183.523 3783.267,1242.164C3841.675,1320.041 3842.028,1417.323 3842.028,1417.323C3842.028,1417.323 3842.148,1468.481 3867.735,1519.655C3889.212,1562.609 3929.839,1607.71 4015.748,1607.71L4015.748,1699.377C3893.58,1699.377 3819.768,1651.123 3775.788,1592.482C3717.38,1514.605 3717.028,1417.323 3717.028,1417.323C3717.028,1417.323 3716.907,1366.165 3691.32,1314.991C3669.843,1272.037 3629.216,1226.936 3543.307,1226.936C3457.398,1226.936 3416.771,1272.037 3395.294,1314.991C3369.707,1366.165 3369.587,1417.323 3369.587,1417.323C3369.587,1417.323 3369.234,1514.605 3310.826,1592.482C3266.846,1651.123 3193.035,1699.377 3070.866,1699.377Z"/>
        </g>
    </g>
</svg>
