<?xml version="1.0" encoding="UTF-8" standalone="no"?>
<!DOCTYPE svg PUBLIC "-//W3C//DTD SVG 1.1//EN" "http://www.w3.org/Graphics/SVG/1.1/DTD/svg11.dtd">
<svg width="100%" height="100%" viewBox="0 0 143 427" version="1.1" xmlns="http://www.w3.org/2000/svg" xmlns:xlink="http://www.w3.org/1999/xlink" xml:space="preserve" xmlns:serif="http://www.serif.com/" style="fill-rule:evenodd;clip-rule:evenodd;stroke-linejoin:round;stroke-miterlimit:2;">
    <g transform="matrix(1,0,0,1,-2148.889855,-614.173228)">
        <g id="I-Ooze" transform="matrix(2.672852,0,0,2.672852,734.456523,-17.648356)">
            <path d="M546.483,302.499C546.636,301.004 546.851,277.318 559.49,277.748C567.837,278.033 566.287,285.896 566.571,306.499C566.723,316.098 566.675,315.987 567.002,325.515C567.212,332.561 567.209,332.483 567.557,339.497L568.031,346.533L568.548,353.496L569.084,358.545C570.233,366.568 570.193,366.512 571.59,374.492C571.564,376.499 571.656,376.441 571.365,378.467C567.328,388.97 559.091,383.459 557.424,380.548C550.452,368.373 549.376,363.976 547.674,364.648C547.295,364.798 544.066,404.373 539.559,394.465C538.3,391.695 542.319,349.28 540.351,348.68C539.155,348.315 538.922,348.389 538.74,349.601C538.384,351.971 537.627,366.848 534.625,362.429C532.805,359.751 538.953,343.406 532.229,335.722C531.799,335.231 526.074,328.689 531.523,327.595C536.91,326.514 544.489,336.811 545.305,337.921C547.821,341.338 546.606,333.86 546.547,333.497L546.141,324.51L545.994,318.496L545.989,317.498L546.098,311.491L546.483,302.499ZM580.579,237.413C582.068,240.728 581.537,240.779 581.454,242.48C578.89,246.491 572.291,251.62 567.546,256.541C564.216,259.994 578.745,268.934 582.333,274.56C582.623,276.993 582.605,277.011 581.139,279.046C574.638,281.939 566.028,273.526 559.307,267.745C556.664,265.471 550.952,274.369 544.239,279.133C535.157,285.579 541.104,294.327 536.561,294.861C530.871,295.531 538.454,287.215 533.916,279.233C528.518,269.741 544.857,263.191 548.1,258.238C549.869,255.534 534.889,244.227 538.683,238.611C543.375,231.663 553.716,245.068 556.824,248.112C560.296,251.512 573.909,231.745 580.579,237.413Z"/>
        </g>
    </g>
</svg>
