<?xml version="1.0" encoding="UTF-8" standalone="no"?>
<!DOCTYPE svg PUBLIC "-//W3C//DTD SVG 1.1//EN" "http://www.w3.org/Graphics/SVG/1.1/DTD/svg11.dtd">
<svg width="100%" height="100%" viewBox="0 0 378 467" version="1.1" xmlns="http://www.w3.org/2000/svg" xmlns:xlink="http://www.w3.org/1999/xlink" xml:space="preserve" xmlns:serif="http://www.serif.com/" style="fill-rule:evenodd;clip-rule:evenodd;stroke-linejoin:round;stroke-miterlimit:2;">
    <g transform="matrix(1,0,0,1,-1700.787402,-623.918536)">
        <g id="R-Ooze" transform="matrix(2.672852,0,0,2.672852,-544.158759,-898.602574)">
            <path d="M939.552,619.606C931.951,627.665 921.988,631.224 921.612,634.519C920.129,647.533 920.096,655.577 910.873,675.67C899.733,699.936 882.576,706.069 881.331,710.454C874.24,735.436 877.054,747.535 872.481,743.521C871.199,742.396 871.801,731.77 871.987,720.515C872.202,713.997 872.892,713.34 871.591,713.231C869.426,713.05 870.203,714.196 869.273,716.412C867.674,722.367 867.668,722.292 867.011,728.45C866.374,734.43 862.515,732.427 862.278,729.528C862.018,726.363 862.363,726.433 862.961,721.547C863.062,717.905 863.465,717.939 862.563,714.45C856.763,712.877 840.686,710.226 839.922,691.495C839.542,682.185 846.52,670.185 854.738,664.856C861.839,660.252 872.843,658.603 874.488,658.357C877.532,658.359 877.456,658.226 880.494,658.527C880.998,658.707 891.571,662.486 883.501,664.503C882.585,664.732 852.078,667.504 849.599,689.509C847.156,711.191 881.169,707.797 898.231,673.358C906.02,657.636 908.832,641.705 907.354,640.804C905.328,639.569 905.912,644.413 878.512,647.696L874.493,647.758C874.28,647.735 860.833,647.958 852.631,639.375C827.892,613.485 884.631,560.616 913.31,599.638C920.097,608.873 917.451,616.994 923.844,611.928C957.666,585.126 959.383,562.831 970.469,571.54C981.067,579.866 961.428,583.116 954.066,648.455L953.546,654.503C953.348,658.68 951.368,700.614 960.605,706.297C964.282,708.559 968.426,699.039 974.48,695.428C976.537,695.213 976.457,695.189 978.367,695.747C980.377,697.647 985.302,699.705 972.998,713.933C966.923,720.957 964.515,718.938 963.617,722.533C963.104,724.585 961.475,736.417 958.892,732.234C957.616,730.168 959.772,722.397 956.62,721.217C927.499,710.315 928.981,654.116 941.317,620.496L940.568,618.851C940.146,618.86 939.974,619.597 939.552,619.606ZM886.054,615.422C885.996,615.736 884.961,625.561 882.5,625.497C878.387,625.389 884.691,594.413 880.167,604.167C879.862,604.825 877.714,618.066 874.989,614.128C873.566,612.071 878.4,600.079 870.882,605.988C853.782,619.429 855.461,639.855 883.401,633.098C891.513,631.136 907.693,625.247 907.769,621.501C907.991,610.513 890.16,594.243 888.304,602.45C887.791,604.717 887.86,604.71 886.054,615.422Z"/>
        </g>
    </g>
</svg>
