<?xml version="1.0" encoding="UTF-8" standalone="no"?>
<!DOCTYPE svg PUBLIC "-//W3C//DTD SVG 1.1//EN" "http://www.w3.org/Graphics/SVG/1.1/DTD/svg11.dtd">
<svg width="100%" height="100%" viewBox="0 0 342 378" version="1.1" xmlns="http://www.w3.org/2000/svg" xmlns:xlink="http://www.w3.org/1999/xlink" xml:space="preserve" xmlns:serif="http://www.serif.com/" style="fill-rule:evenodd;clip-rule:evenodd;stroke-linejoin:round;stroke-miterlimit:2;">
    <g transform="matrix(1,0,0,1,-1653.543307,-2881.889764)">
        <g transform="matrix(1,0,0,1,29.166667,548.851706)">
            <path d="M1646.252,2710.241L1624.377,2710.241L1624.377,2409.449C1624.377,2409.449 1624.377,2333.038 1700.787,2333.038L1889.764,2333.038C1966.175,2333.038 1966.175,2409.449 1966.175,2409.449L1966.175,2454.776C1966.175,2454.776 1966.175,2531.187 1889.764,2531.187L1795.276,2531.187C1795.259,2531.187 1777.198,2531.195 1777.198,2549.265C1777.198,2567.334 1795.259,2567.342 1795.276,2567.342L1889.764,2567.342C1889.764,2567.342 1966.175,2567.342 1966.175,2643.753L1966.175,2710.241L1944.3,2710.241L1944.3,2643.753C1944.3,2589.217 1889.764,2589.217 1889.764,2589.217L1795.276,2589.217C1795.256,2589.217 1755.323,2589.207 1755.323,2549.265C1755.323,2509.322 1795.256,2509.312 1795.276,2509.312L1889.764,2509.312C1944.3,2509.312 1944.3,2454.776 1944.3,2454.776L1944.3,2409.449C1944.3,2409.449 1944.3,2354.913 1889.764,2354.913L1700.787,2354.913C1646.252,2354.913 1646.252,2409.449 1646.252,2409.449L1646.252,2710.241ZM1929.716,2710.241L1907.841,2710.241L1907.841,2643.753C1907.841,2625.683 1889.78,2625.675 1889.764,2625.675L1795.276,2625.675C1795.276,2625.675 1718.865,2625.675 1718.865,2549.265C1718.865,2472.854 1795.276,2472.854 1795.276,2472.854L1889.764,2472.854C1907.833,2472.854 1907.841,2454.792 1907.841,2454.776L1907.841,2409.449C1907.841,2409.433 1907.833,2391.371 1889.764,2391.371L1700.787,2391.371C1682.718,2391.371 1682.71,2409.433 1682.71,2409.449L1682.71,2710.241L1660.835,2710.241L1660.835,2409.449C1660.835,2409.429 1660.845,2369.496 1700.787,2369.496L1889.764,2369.496C1929.706,2369.496 1929.716,2409.429 1929.716,2409.449L1929.716,2454.776C1929.716,2454.796 1929.706,2494.729 1889.764,2494.729L1795.276,2494.729C1795.276,2494.729 1740.74,2494.729 1740.74,2549.265C1740.74,2603.8 1795.276,2603.8 1795.276,2603.8L1889.764,2603.8C1889.784,2603.8 1929.716,2603.81 1929.716,2643.753L1929.716,2710.241Z" style="fill:rgb(29,0,219);"/>
        </g>
    </g>
</svg>
