<svg width="301" height="301" viewBox="0 0 301 301" fill="none" xmlns="http://www.w3.org/2000/svg">
<path d="M147.68 7.77142C148.637 5.1359 152.363 5.13591 153.32 7.77142L159.438 24.6308C160.303 27.0152 163.554 27.3166 164.842 25.1318L173.955 9.68353C175.379 7.26863 179.043 7.95333 179.499 10.7197L182.415 28.4169C182.827 30.9196 185.966 31.8128 187.634 29.9023L199.43 16.3906C201.274 14.2788 204.749 15.6257 204.689 18.4286L204.304 36.3593C204.25 38.8951 207.171 40.3505 209.162 38.7792L223.24 27.665C225.44 25.928 228.609 27.8906 228.035 30.6347L224.361 48.1894C223.841 50.6722 226.446 52.6391 228.692 51.4599L244.572 43.122C247.054 41.8189 249.808 44.33 248.74 46.9218L241.903 63.5038C240.936 65.8488 243.135 68.261 245.559 67.5146L262.701 62.2363C265.38 61.4113 267.626 64.3858 266.099 66.7372L256.332 81.7802C254.951 83.9076 256.669 86.6826 259.189 86.3945L277.008 84.3564C279.794 84.0377 281.456 87.3743 279.523 89.4052L267.158 102.396C265.409 104.234 266.588 107.277 269.118 107.457L287.008 108.728C289.805 108.927 290.825 112.512 288.552 114.153L274.01 124.651C271.954 126.136 272.553 129.345 275.007 129.986L292.36 134.522C295.072 135.232 295.416 138.943 292.88 140.139L276.657 147.786C274.362 148.868 274.362 152.132 276.657 153.214L292.88 160.861C295.416 162.057 295.072 165.768 292.36 166.477L275.007 171.014C272.553 171.655 271.954 174.864 274.01 176.349L288.552 186.848C290.825 188.489 289.805 192.074 287.008 192.272L269.118 193.543C266.588 193.723 265.409 196.766 267.158 198.603L279.523 211.596C281.455 213.627 279.794 216.963 277.008 216.644L259.189 214.605C256.669 214.317 254.951 217.092 256.332 219.22L266.099 234.263C267.626 236.614 265.38 239.589 262.701 238.764L245.559 233.485C243.135 232.739 240.936 235.151 241.903 237.496L248.74 254.078C249.808 256.67 247.054 259.181 244.572 257.878L228.692 249.54C226.446 248.361 223.841 250.328 224.361 252.81L228.035 270.366C228.609 273.11 225.44 275.072 223.24 273.335L209.162 262.222C207.171 260.65 204.25 262.105 204.304 264.641L204.689 282.572C204.749 285.375 201.274 286.721 199.43 284.609L187.634 271.098C185.966 269.187 182.827 270.08 182.415 272.583L179.499 290.28C179.043 293.047 175.379 293.731 173.955 291.316L164.842 275.868C163.554 273.683 160.303 273.985 159.438 276.369L153.32 293.228C152.363 295.864 148.637 295.864 147.68 293.228L141.562 276.369C140.697 273.985 137.446 273.683 136.158 275.868L127.045 291.316C125.621 293.731 121.957 293.047 121.501 290.28L118.585 272.583C118.173 270.08 115.034 269.187 113.366 271.098L101.57 284.609C99.726 286.721 96.2511 285.375 96.311 282.572L96.6968 264.641C96.7513 262.105 93.8293 260.65 91.8384 262.222L77.7612 273.335C75.5608 275.072 72.3914 273.11 72.9653 270.366L76.6392 252.81C77.1587 250.328 74.5539 248.361 72.3081 249.54L56.4282 257.878C53.946 259.181 51.1917 256.67 52.2603 254.078L59.0972 237.496C60.0638 235.151 57.8651 232.739 55.4409 233.485L38.2993 238.764C35.6199 239.588 33.3741 236.614 34.9009 234.263L44.6685 219.22C46.0494 217.092 44.331 214.317 41.811 214.605L23.9917 216.644C21.2062 216.963 19.5451 213.627 21.478 211.596L33.8433 198.603C35.5918 196.766 34.4124 193.723 31.8823 193.543L13.9917 192.272C11.1953 192.074 10.1752 188.489 12.4478 186.848L26.9907 176.349C29.0469 174.864 28.4466 171.655 25.9927 171.014L8.64014 166.477C5.92797 165.768 5.58402 162.057 8.11963 160.861L24.3433 153.214C26.6377 152.132 26.6377 148.868 24.3433 147.786L8.11963 140.139C5.58408 138.943 5.92796 135.232 8.64014 134.522L25.9927 129.986C28.4467 129.345 29.047 126.136 26.9907 124.651L12.4478 114.153C10.1747 112.512 11.1951 108.927 13.9917 108.728L31.8823 107.457C34.4125 107.277 35.592 104.234 33.8433 102.396L21.478 89.4052C19.5451 87.3743 21.2062 84.0377 23.9917 84.3564L41.811 86.3945C44.3311 86.6827 46.0495 83.9076 44.6685 81.7802L34.9009 66.7372C33.3741 64.3858 35.6199 61.4115 38.2993 62.2363L55.4409 67.5146C57.8651 68.261 60.0639 65.8488 59.0972 63.5038L52.2603 46.9218C51.1918 44.33 53.9461 41.8191 56.4282 43.122L72.3081 51.4599C74.5539 52.6391 77.1587 50.6722 76.6392 48.1894L72.9653 30.6337C72.3915 27.8897 75.5608 25.9278 77.7612 27.665L91.8384 38.7792C93.8293 40.3506 96.7513 38.8952 96.6968 36.3593L96.311 18.4286C96.2508 15.6257 99.7259 14.2789 101.57 16.3906L113.366 29.9023C115.034 31.8129 118.173 30.9196 118.585 28.4169L121.501 10.7197C121.957 7.95332 125.621 7.26869 127.045 9.68353L136.158 25.1318C137.446 27.3166 140.697 27.0152 141.562 24.6308L147.68 7.77142ZM148.405 95.7724C148.187 99.1846 143.345 99.6333 142.503 96.3193L134.422 64.4902L138.384 97.0888C138.797 100.483 134.12 101.814 132.684 98.7109L118.891 68.9091L128.777 100.225C129.806 103.485 125.453 105.653 123.471 102.867L104.437 76.1064L119.909 105.072C121.52 108.088 117.638 111.019 115.178 108.644L91.5513 85.8369L112.082 111.468C114.219 114.136 110.944 117.729 108.089 115.848L80.6733 97.7695L105.564 119.191C108.155 121.422 105.596 125.556 102.444 124.23L72.1733 111.498L100.576 127.981C103.533 129.698 101.777 134.232 98.4351 133.508L66.3403 126.555L97.2886 137.538C100.51 138.682 99.6171 143.461 96.1997 143.364L63.3735 142.427L95.813 147.537C99.19 148.069 99.1901 152.932 95.813 153.464L63.3735 158.573L96.1987 157.636C99.6165 157.538 100.511 162.318 97.2886 163.462L66.3403 174.445L98.4351 167.492C101.777 166.768 103.533 171.302 100.576 173.018L72.1733 189.502L102.444 176.769C105.595 175.444 108.155 179.578 105.564 181.809L80.6733 203.23L108.089 185.152C110.944 183.271 114.219 186.865 112.082 189.533L91.5513 215.163L115.178 192.355C117.638 189.981 121.52 192.912 119.909 195.928L104.437 224.894L123.471 198.134C125.453 195.347 129.806 197.515 128.777 200.775L118.891 232.092L132.684 202.289C134.12 199.186 138.797 200.517 138.384 203.911L134.422 236.51L142.503 204.681C143.345 201.367 148.186 201.815 148.405 205.227L150.5 238L152.595 205.227C152.814 201.815 157.655 201.367 158.497 204.681L166.579 236.51L162.616 203.911C162.203 200.517 166.88 199.186 168.316 202.289L182.109 232.092L172.223 200.775C171.194 197.515 175.547 195.347 177.529 198.134L196.563 224.894L181.091 195.928C179.481 192.912 183.362 189.981 185.822 192.355L209.449 215.163L188.918 189.533C186.781 186.865 190.056 183.271 192.911 185.152L220.327 203.23L195.436 181.809C192.845 179.578 195.405 175.444 198.556 176.769L228.827 189.502L200.424 173.018C197.467 171.302 199.223 166.768 202.565 167.492L234.66 174.445L203.711 163.462C200.49 162.318 201.384 157.538 204.801 157.636L237.626 158.573L205.188 153.464C201.81 152.932 201.81 148.069 205.188 147.537L237.626 142.427L204.801 143.364C201.384 143.462 200.49 138.682 203.711 137.538L234.66 126.555L202.565 133.508C199.223 134.232 197.467 129.698 200.424 127.981L228.827 111.498L198.556 124.23C195.405 125.556 192.845 121.422 195.436 119.191L220.327 97.7695L192.911 115.848C190.056 117.729 186.781 114.136 188.918 111.468L209.449 85.8369L185.822 108.644C183.362 111.019 179.48 108.088 181.091 105.072L196.563 76.1064L177.529 102.867C175.547 105.653 171.194 103.485 172.223 100.225L182.109 68.9091L168.316 98.7109C166.88 101.814 162.203 100.483 162.616 97.0888L166.579 64.4902L158.497 96.3193C157.655 99.6333 152.813 99.1846 152.595 95.7724L150.5 62.9999L148.405 95.7724Z" fill="black"/>
</svg>
