<svg width="448" height="478" viewBox="0 0 448 478" fill="none" xmlns="http://www.w3.org/2000/svg">
<path d="M0 416.026V161.5V100C0 44.7715 44.7715 0 100 0H348C403.228 0 448 44.7715 448 100V271.25C448 304.525 421.025 331.5 387.75 331.5C354.475 331.5 327.5 358.475 327.5 391.75V416.026C327.5 432.337 321.021 447.979 309.487 459.513C285.47 483.53 246.53 483.53 222.513 459.513C210.979 447.979 204.5 432.337 204.5 416.026V372.25C204.5 349.744 186.256 331.5 163.75 331.5C141.244 331.5 123 349.744 123 372.25V416.026C123 432.337 116.521 447.979 104.987 459.513C80.9698 483.53 42.0302 483.53 18.0129 459.513C6.47945 447.979 0 432.337 0 416.026Z" fill="#FF5087"/>
</svg>
