<?xml version="1.0" encoding="UTF-8" standalone="no"?>
<!DOCTYPE svg PUBLIC "-//W3C//DTD SVG 1.1//EN" "http://www.w3.org/Graphics/SVG/1.1/DTD/svg11.dtd">
<svg width="100%" height="100%" viewBox="0 0 571 653" version="1.1" xmlns="http://www.w3.org/2000/svg" xmlns:xlink="http://www.w3.org/1999/xlink" xml:space="preserve" xmlns:serif="http://www.serif.com/" style="fill-rule:evenodd;clip-rule:evenodd;stroke-linejoin:round;stroke-miterlimit:2;">
    <g transform="matrix(1,0,0,1,-645.379134,-490.277464)">
        <g id="C-Ooze" transform="matrix(2.672852,0,0,2.672852,352,186)">
            <path d="M110.351,246.487C121.043,151.279 199.884,149.821 206.491,149.307C210.163,149.313 213.836,149.318 217.508,149.324C261.864,152.293 278.808,167.826 291.515,167.848C300.677,167.864 305.504,127.583 266.437,121.913C258.316,120.734 262.338,130.668 259.32,133.246C254.087,137.716 261.777,120.328 253.497,121.469C231.159,124.547 223.944,135.097 222.365,137.406C220.179,140.602 217.839,137.789 219.772,133.617C228.95,113.802 261.541,114.005 265.523,114.03C267.184,114.166 268.846,114.302 270.508,114.438C306.385,120.713 309.269,145.436 310.62,156.493C310.572,158.828 310.523,161.163 310.474,163.497C310.259,164.757 308.738,173.661 304.147,178.159C297.037,185.128 300.797,192.294 296.561,192.856C293.33,193.285 294.096,187.81 294.047,187.69C290.945,180.005 287.462,213.89 285.451,214.352C278.767,215.888 288.909,184.544 284.537,183.4C256.482,176.059 257.253,172.893 228.541,169.084C226.857,168.968 225.173,168.851 223.488,168.734C190.675,168.256 166.002,176.074 148.609,198.585C134.541,216.793 122.196,251.446 136.369,286.558C142.319,301.299 148.501,295.981 156.445,289.432C185.58,265.414 191.047,258.074 223.486,253.35L228.522,252.968C232.189,253.009 235.856,253.05 239.524,253.092L244.501,253.489C249.475,254.167 287.658,257.11 313.082,292.794C330.059,316.621 320.298,318.37 319.3,319.068C316.048,320.001 316.02,319.776 313.314,318.955C306.889,314.365 308.873,312.722 301.355,303.632C297.831,299.37 298.848,310.446 294.404,308.678C292.197,307.8 293.031,286.725 289.924,295.708C286.113,306.725 288.716,325.722 282.594,322.342C279.24,320.49 284.734,291.026 283.256,288.648C281.633,286.036 278.115,293.488 277.802,293.826C274.069,297.861 274.514,286.903 274.25,284.543C273.614,278.852 250.712,275.424 248.546,275.099C246.53,274.916 244.513,274.732 242.497,274.549C240.165,274.523 237.832,274.497 235.499,274.471C233.148,274.652 230.796,274.833 228.445,275.014C214.323,277.07 206.755,279.724 191.247,290.117C178.507,298.656 179.844,300.649 176.501,326.5C176.004,330.345 172.792,329.66 172.83,326.495C173.009,311.56 177.341,299.631 173.475,302.447C158.47,313.378 157.511,312.213 156.78,313.646C151.512,323.981 148.499,345.625 148.103,348.468L147.744,353.528C147.657,353.942 146.727,358.32 144.441,357.651C141.431,356.771 145.07,332.294 143.629,321.483C142.358,311.944 137.15,316.401 129.631,310.326C112.777,296.706 111.063,270.227 110.546,266.495C110.398,264.503 110.249,262.512 110.101,260.52L109.95,256.496L110.073,251.483L110.351,246.487Z" style="stroke:rgb(253,253,253);stroke-width:0.37px;"/>
        </g>
    </g>
</svg>
