<?xml version="1.0" encoding="UTF-8" standalone="no"?>
<!DOCTYPE svg PUBLIC "-//W3C//DTD SVG 1.1//EN" "http://www.w3.org/Graphics/SVG/1.1/DTD/svg11.dtd">
<svg width="100%" height="100%" viewBox="0 0 392 385" version="1.1" xmlns="http://www.w3.org/2000/svg" xmlns:xlink="http://www.w3.org/1999/xlink" xml:space="preserve" xmlns:serif="http://www.serif.com/" style="fill-rule:evenodd;clip-rule:evenodd;stroke-linejoin:round;stroke-miterlimit:2;">
    <g transform="matrix(1,0,0,1,-1431.485412,-3055.781958)">
        <g id="C-Raver" transform="matrix(-1,0,-0,-1,3629.176671,5252.665776)">
            <path d="M2197.691,2000.904C2197.691,2079.746 2170.454,2126.454 2136.906,2154.589C2086.908,2196.52 2020.821,2196.723 2001.871,2196.819C1973.224,2196.964 1884.435,2196.82 1883.64,2196.819C1860.385,2196.814 1841.16,2188.656 1827.592,2175.088C1814.02,2161.515 1805.861,2142.281 1805.861,2119.014C1805.861,2086.703 1835.721,2054.609 1883.666,2054.609L1883.685,2054.609C1883.685,2054.609 1961.358,2054.69 2001.933,2054.69C2027.273,2054.69 2042.081,2034.656 2042.081,2000.904C2042.081,1976.115 2026.722,1954.144 2001.933,1954.144C1961.404,1954.144 1883.819,1954.778 1883.819,1954.778L1883.666,1954.779C1861.503,1954.779 1842.589,1948.141 1829.045,1936.478C1814.746,1924.165 1805.861,1906.19 1805.861,1882.794C1805.861,1863.354 1811.507,1848.391 1820.771,1837.24C1834.111,1821.182 1855.873,1812.47 1883.666,1812.47C1934.8,1812.47 1987.576,1812.279 2003.393,1812.471C2022.293,1812.702 2087.619,1810.589 2137.051,1850.093C2170.453,1876.786 2197.691,1922.185 2197.691,2000.904ZM2160.191,2000.904C2160.191,1937.885 2140.381,1900.757 2113.64,1879.388C2072.861,1846.799 2018.528,1850.158 2002.936,1849.969C1987.18,1849.777 1934.605,1849.97 1883.666,1849.97C1868.924,1849.97 1856.692,1852.685 1849.616,1861.203C1845.271,1866.432 1843.361,1873.677 1843.361,1882.794C1843.361,1893.689 1846.856,1902.328 1853.515,1908.062C1860.914,1914.433 1871.496,1917.268 1883.598,1917.279C1886.485,1917.256 1962.079,1916.644 2001.933,1916.644C2048.02,1916.644 2079.581,1954.817 2079.581,2000.904C2079.581,2029.754 2071.625,2051.807 2058.958,2066.863C2045.139,2083.289 2025.563,2092.19 2001.933,2092.19C1961.667,2092.19 1884.879,2092.111 1883.661,2092.109C1860.66,2092.111 1843.361,2103.513 1843.361,2119.014C1843.361,2131.182 1847.011,2141.473 1854.109,2148.572C1861.207,2155.67 1871.497,2159.32 1883.665,2159.319L1883.696,2159.319C1883.696,2159.319 1972.966,2159.465 2001.681,2159.319C2017.225,2159.24 2071.797,2160.251 2112.809,2125.856C2139.935,2103.107 2160.191,2064.655 2160.191,2000.904Z"/>
        </g>
    </g>
</svg>
