<?xml version="1.0" encoding="UTF-8" standalone="no"?>
<!DOCTYPE svg PUBLIC "-//W3C//DTD SVG 1.1//EN" "http://www.w3.org/Graphics/SVG/1.1/DTD/svg11.dtd">
<svg width="100%" height="100%" viewBox="0 0 619 749" version="1.1" xmlns="http://www.w3.org/2000/svg" xmlns:xlink="http://www.w3.org/1999/xlink" xml:space="preserve" xmlns:serif="http://www.serif.com/" style="fill-rule:evenodd;clip-rule:evenodd;stroke-linejoin:round;stroke-miterlimit:2;">
    <g transform="matrix(1,0,0,1,-3807.016883,-321.05483)">
        <g transform="matrix(2.672852,0,0,2.672852,3635,228)">
            <path d="M96.596,128.659C94.75,126.924 94.833,126.977 93.183,125.145C99.493,118.559 99.84,116.329 101.937,107.563C102.18,103.915 102.265,103.99 101.84,100.42C101.068,98.445 99.799,91.28 90.752,95.975C68.547,107.501 66.023,162.018 94.531,160.869C104.441,160.469 120.215,147.385 126.147,118.428C129.346,102.81 129.987,89.565 129.989,89.539L130.319,85.487C130.704,77.939 130.768,78.006 130.998,70.514C131.349,55.993 130.983,56.069 131.23,41.466C134.079,30.423 143.359,34.797 144.069,42.545C146.144,65.175 147.206,64.984 150.179,87.544C150.997,93.751 150.991,100.896 152.945,94.885C154.352,90.558 164.708,58.702 181.786,45.871C201.197,31.288 218.884,43.521 227.032,79.606C237.377,125.418 236.971,186.25 254.833,224.323C256.6,228.089 257.581,225.892 257.684,225.662C264.119,211.258 268.304,186.988 268.896,183.553C269.147,181.54 269.397,179.527 269.648,177.515L269.886,174.532L270.202,170.48C270.479,162.004 270.52,162.088 270.166,153.527C268.242,137.439 267.598,137.432 268.836,132.645L269.049,132.269C271.312,132.282 271.354,132.692 273.376,131.539C277.744,129.048 278.755,131.407 282.679,128.185C283.778,129.033 292.26,134.105 295.438,170.504C295.696,179.534 296.021,179.43 295.295,194.486C295.153,196.17 295.011,197.854 294.868,199.538L294.28,204.471C287.209,252.885 274.853,248.678 271.93,256.669C261.19,286.029 270.941,317.472 262.44,314.655C260.851,314.129 260.349,309.955 260.295,309.512L260.061,304.526C259.913,300.24 260.314,257.007 255.965,260.826C254.582,262.04 255.521,285.784 253.602,286.658C246.257,290.002 253.668,263.13 245.722,254.262C242.712,251.324 242.713,251.429 239.9,248.195C224.159,224.047 220.472,191.304 213.658,130.483L213.129,125.537C210.685,101.009 206.146,23.94 182.911,68.712C167.488,98.432 159.358,155.575 160.616,174.49L161.074,179.536C161.241,181.855 161.407,184.175 161.573,186.495C161.743,188.839 161.913,191.183 162.082,193.527C162.276,196.848 162.47,200.17 162.663,203.491C162.86,207.781 162.816,207.701 163.089,211.523C163.263,215.181 163.438,218.838 163.612,222.496C163.691,228.504 163.713,228.399 163.524,234.502C162.786,239.434 163.822,245.642 156.407,249.225C154.454,249.633 154.539,249.623 152.505,249.475C149.945,248.551 143.292,250.24 140.395,202.505C140.293,199.507 140.191,196.508 140.088,193.51C140.049,191.173 140.009,188.837 139.969,186.501L139.993,182.507C140.13,178.503 140.268,174.499 140.405,170.496C140.993,158.349 141.196,158.207 139.552,142.494L138.905,136.462C138.721,134.145 138.537,131.829 138.353,129.513C138.352,128.25 138.79,113.311 136.102,124.228C135.815,125.394 135.846,125.321 135.564,126.521C125.037,166.804 99.858,166.861 97.862,170.695C94.914,176.355 98.115,190.435 92.634,186.289C90.719,184.84 87.399,161.678 83.867,170.627C81.429,176.803 89.628,203.28 82.435,199.595C78.579,197.619 80.378,168.7 74.069,160.844C65.937,150.72 65.818,146.414 64.392,136.507C64.38,134.502 64.369,132.498 64.357,130.493C69.553,78.68 114.454,75.973 109.041,107.426C106.631,121.426 98.193,127.507 96.596,128.659Z" style="fill:rgb(254,254,254);"/>
        </g>
    </g>
</svg>
