<?xml version="1.0" encoding="UTF-8" standalone="no"?>
<!DOCTYPE svg PUBLIC "-//W3C//DTD SVG 1.1//EN" "http://www.w3.org/Graphics/SVG/1.1/DTD/svg11.dtd">
<svg width="100%" height="100%" viewBox="0 0 416 385" version="1.1" xmlns="http://www.w3.org/2000/svg" xmlns:xlink="http://www.w3.org/1999/xlink" xml:space="preserve" xmlns:serif="http://www.serif.com/" style="fill-rule:evenodd;clip-rule:evenodd;stroke-linejoin:round;stroke-miterlimit:2;">
    <g transform="matrix(1,0,0,1,-1398.572835,-1878.199022)">
        <g transform="matrix(-0.830784,0,-0,-1,3227.55242,4075.018134)">
            <path d="M2201.51,2000.904C2201.51,2075.501 2175.129,2121.318 2138.999,2149.887C2085.29,2192.356 2007.421,2196.819 1951.474,2196.819C1895.546,2196.819 1817.741,2194.776 1764.05,2152.846C1727.962,2124.663 1701.437,2078.353 1701.437,2000.904C1701.437,1925.691 1728.132,1880.997 1764.43,1853.92C1818.005,1813.955 1895.667,1812.47 1951.474,1812.47C2007.308,1812.47 2085.047,1816.879 2138.648,1857.495C2175.002,1885.042 2201.51,1929.147 2201.51,2000.904ZM2156.372,2000.904C2156.372,1943.347 2137.39,1907.297 2108.23,1885.201C2063.561,1851.353 1998.004,1849.97 1951.474,1849.97C1904.915,1849.97 1839.283,1848.481 1794.587,1881.823C1765.371,1903.617 1746.575,1940.364 1746.575,2000.904C1746.575,2064.051 1765.542,2102.544 1794.966,2125.523C1839.547,2160.338 1905.036,2159.319 1951.474,2159.319C1997.891,2159.319 2063.319,2157.959 2107.88,2122.724C2137.262,2099.49 2156.372,2061.569 2156.372,2000.904Z"/>
        </g>
        <g transform="matrix(-0.339373,0,-0,-0.408498,2268.577444,2889.266289)">
            <path d="M2234.19,2000.904C2234.19,2085.596 2202.549,2137.118 2161.529,2169.553C2101.189,2217.266 2014.328,2223.969 1951.474,2223.969C1888.664,2223.969 1801.965,2219.718 1741.667,2172.628C1700.749,2140.673 1668.757,2088.718 1668.757,2000.904C1668.757,1915.055 1701.166,1864.625 1742.596,1833.719C1802.61,1788.951 1888.96,1785.32 1951.474,1785.32C2014.052,1785.32 2100.596,1791.913 2160.671,1837.436C2202.237,1868.933 2234.19,1918.859 2234.19,2000.904ZM2123.692,2000.904C2123.692,1953.613 2110.166,1923.415 2086.207,1905.261C2047.993,1876.303 1991.28,1877.12 1951.474,1877.12C1911.593,1877.12 1854.706,1873.464 1816.42,1902.024C1792.321,1920.001 1779.255,1950.967 1779.255,2000.904C1779.255,2053.715 1792.741,2086.523 1817.349,2105.741C1855.351,2135.419 1911.888,2132.169 1951.474,2132.169C1991.005,2132.169 2047.399,2133.066 2085.349,2103.057C2109.853,2083.682 2123.692,2051.496 2123.692,2000.904Z"/>
        </g>
    </g>
</svg>
