<?xml version="1.0" encoding="UTF-8" standalone="no"?>
<!DOCTYPE svg PUBLIC "-//W3C//DTD SVG 1.1//EN" "http://www.w3.org/Graphics/SVG/1.1/DTD/svg11.dtd">
<svg width="100%" height="100%" viewBox="0 0 426 520" version="1.1" xmlns="http://www.w3.org/2000/svg" xmlns:xlink="http://www.w3.org/1999/xlink" xml:space="preserve" xmlns:serif="http://www.serif.com/" style="fill-rule:evenodd;clip-rule:evenodd;stroke-linejoin:round;stroke-miterlimit:2;">
    <g transform="matrix(1,0,0,1,-3826.771654,-425.19685)">
        <g transform="matrix(1,0,0,1,-472.440945,-0)">
            <path d="M4299.213,425.197L4724.409,425.197L4724.409,755.906L4535.433,755.906L4535.433,944.882L4488.189,944.882L4488.189,755.906L4346.457,755.906L4346.457,944.882L4299.213,944.882L4299.213,425.197ZM4535.433,519.685L4535.433,614.173L4629.921,614.173L4629.921,519.685C4629.921,519.685 4629.921,472.441 4582.677,472.441C4535.433,472.441 4535.433,519.685 4535.433,519.685ZM4346.457,519.685L4346.457,614.173L4440.945,614.173L4440.945,519.685C4440.945,519.685 4440.945,472.441 4393.701,472.441C4346.457,472.441 4346.457,519.685 4346.457,519.685Z"/>
        </g>
    </g>
</svg>
