<?xml version="1.0" encoding="UTF-8" standalone="no"?>
<!DOCTYPE svg PUBLIC "-//W3C//DTD SVG 1.1//EN" "http://www.w3.org/Graphics/SVG/1.1/DTD/svg11.dtd">
<svg width="100%" height="100%" viewBox="0 0 237 237" version="1.1" xmlns="http://www.w3.org/2000/svg" xmlns:xlink="http://www.w3.org/1999/xlink" xml:space="preserve" xmlns:serif="http://www.serif.com/" style="fill-rule:evenodd;clip-rule:evenodd;stroke-linejoin:round;stroke-miterlimit:2;">
    <g transform="matrix(1,0,0,1,-472.458862,-1654.129244)">
        <g transform="matrix(1,0,0,1,0.017917,921.84578)">
            <path d="M519.685,968.504C472.441,968.504 472.441,921.26 472.441,921.26L472.441,779.528C472.441,732.283 519.685,732.283 519.685,732.283L661.417,732.283C661.417,732.283 708.661,732.283 708.661,779.528L708.661,832.677C708.661,832.677 708.661,874.016 662.417,874.016L637.295,874.016C637.295,874.016 684.248,874.016 684.539,920.674C684.539,920.674 684.539,967.918 637.295,967.918C590.551,967.918 590.051,921.26 590.051,921.26L590.051,874.016L519.685,874.016C519.685,874.016 566.421,874.016 566.929,921.26C566.929,921.26 566.421,968.504 519.685,968.504ZM565.133,774.65L565.133,826.156L577.88,826.156C590.626,826.156 590.626,850.418 590.626,850.418C590.626,850.418 590.626,826.156 603.372,826.156L616.119,826.156C616.119,826.156 616.671,800.143 616.119,788.243L616.119,774.65L603.372,774.65C590.825,774.65 590.626,749.434 590.626,749.434C590.626,749.434 590.626,774.65 577.88,774.65L565.133,774.65Z" style="fill:rgb(255,0,137);"/>
        </g>
    </g>
</svg>
