<?xml version="1.0" encoding="UTF-8" standalone="no"?>
<!DOCTYPE svg PUBLIC "-//W3C//DTD SVG 1.1//EN" "http://www.w3.org/Graphics/SVG/1.1/DTD/svg11.dtd">
<svg width="100%" height="100%" viewBox="0 0 237 237" version="1.1" xmlns="http://www.w3.org/2000/svg" xmlns:xlink="http://www.w3.org/1999/xlink" xml:space="preserve" xmlns:serif="http://www.serif.com/" style="fill-rule:evenodd;clip-rule:evenodd;stroke-linejoin:round;stroke-miterlimit:2;">
    <g transform="matrix(1,0,0,1,-1062.992126,-708.661417)">
        <g transform="matrix(1,0,0,1,590.551181,-23.622047)">
            <path d="M519.685,968.504C472.441,968.504 472.441,921.26 472.441,921.26L472.441,779.528C472.441,732.283 519.685,732.283 519.685,732.283L661.417,732.283C661.417,732.283 708.661,732.283 708.661,779.528L708.661,826.772C708.661,826.772 708.661,874.016 661.417,874.016C661.417,874.016 708.661,874.016 708.661,921.26C708.661,968.504 661.417,968.504 661.417,968.504C614.173,968.504 590.551,921.26 590.551,921.26C590.551,921.26 566.929,968.504 519.685,968.504ZM569.291,803.416C562.205,810.375 562.205,838.214 569.291,845.174C576.378,852.134 604.724,852.134 611.811,845.174C618.898,838.214 618.898,810.375 611.811,803.416C604.724,796.456 576.378,796.456 569.291,803.416Z" style="fill:rgb(255,0,137);"/>
        </g>
    </g>
</svg>
