<?xml version="1.0" encoding="UTF-8" standalone="no"?>
<!DOCTYPE svg PUBLIC "-//W3C//DTD SVG 1.1//EN" "http://www.w3.org/Graphics/SVG/1.1/DTD/svg11.dtd">
<svg width="100%" height="100%" viewBox="0 0 367 526" version="1.1" xmlns="http://www.w3.org/2000/svg" xmlns:xlink="http://www.w3.org/1999/xlink" xml:space="preserve" xmlns:serif="http://www.serif.com/" style="fill-rule:evenodd;clip-rule:evenodd;stroke-linejoin:round;stroke-miterlimit:2;">
    <g transform="matrix(1,0,0,1,-4771.653543,-1559.055118)">
        <g id="C-ComputerSpace">
            <circle cx="4795.276" cy="1582.677" r="23.622"/>
            <g transform="matrix(1,0,0,1,0,478.346457)">
                <circle cx="4795.276" cy="1582.677" r="23.622"/>
            </g>
            <g transform="matrix(1,0,0,1,52.60566,0)">
                <circle cx="4795.276" cy="1582.677" r="23.622"/>
            </g>
            <g transform="matrix(1,0,0,1,52.60566,478.346457)">
                <circle cx="4795.276" cy="1582.677" r="23.622"/>
            </g>
            <g transform="matrix(1,0,0,1,106.299213,0)">
                <circle cx="4795.276" cy="1582.677" r="23.622"/>
            </g>
            <g transform="matrix(1,0,0,1,106.299213,478.346457)">
                <circle cx="4795.276" cy="1582.677" r="23.622"/>
            </g>
            <g transform="matrix(1,0,0,1,159.992765,0)">
                <circle cx="4795.276" cy="1582.677" r="23.622"/>
            </g>
            <g transform="matrix(1,0,0,1,159.992765,478.346457)">
                <circle cx="4795.276" cy="1582.677" r="23.622"/>
            </g>
            <g transform="matrix(1,0,0,1,212.598425,0)">
                <circle cx="4795.276" cy="1582.677" r="23.622"/>
            </g>
            <g transform="matrix(1,0,0,1,212.598425,53.149606)">
                <circle cx="4795.276" cy="1582.677" r="23.622"/>
            </g>
            <g transform="matrix(1,0,0,1,212.598425,318.897638)">
                <circle cx="4795.276" cy="1582.677" r="23.622"/>
            </g>
            <g transform="matrix(1,0,0,1,212.598425,106.299213)">
                <circle cx="4795.276" cy="1582.677" r="23.622"/>
            </g>
            <g transform="matrix(1,0,0,1,212.598425,372.047244)">
                <circle cx="4795.276" cy="1582.677" r="23.622"/>
            </g>
            <g transform="matrix(1,0,0,1,212.598425,159.448819)">
                <circle cx="4795.276" cy="1582.677" r="23.622"/>
            </g>
            <g transform="matrix(1,0,0,1,212.598425,425.19685)">
                <circle cx="4795.276" cy="1582.677" r="23.622"/>
            </g>
            <g transform="matrix(1,0,0,1,212.598425,478.346457)">
                <circle cx="4795.276" cy="1582.677" r="23.622"/>
            </g>
            <g transform="matrix(1,0,0,1,265.204086,0)">
                <circle cx="4795.276" cy="1582.677" r="23.622"/>
            </g>
            <g transform="matrix(1,0,0,1,265.204086,53.149606)">
                <circle cx="4795.276" cy="1582.677" r="23.622"/>
            </g>
            <g transform="matrix(1,0,0,1,265.204086,318.897638)">
                <circle cx="4795.276" cy="1582.677" r="23.622"/>
            </g>
            <g transform="matrix(1,0,0,1,265.204086,106.299213)">
                <circle cx="4795.276" cy="1582.677" r="23.622"/>
            </g>
            <g transform="matrix(1,0,0,1,265.204086,372.047244)">
                <circle cx="4795.276" cy="1582.677" r="23.622"/>
            </g>
            <g transform="matrix(1,0,0,1,265.204086,159.448819)">
                <circle cx="4795.276" cy="1582.677" r="23.622"/>
            </g>
            <g transform="matrix(1,0,0,1,265.204086,425.19685)">
                <circle cx="4795.276" cy="1582.677" r="23.622"/>
            </g>
            <g transform="matrix(1,0,0,1,265.204086,478.346457)">
                <circle cx="4795.276" cy="1582.677" r="23.622"/>
            </g>
            <g transform="matrix(1,0,0,1,318.897638,0)">
                <circle cx="4795.276" cy="1582.677" r="23.622"/>
            </g>
            <g transform="matrix(1,0,0,1,318.897638,53.149606)">
                <circle cx="4795.276" cy="1582.677" r="23.622"/>
            </g>
            <g transform="matrix(1,0,0,1,318.897638,318.897638)">
                <circle cx="4795.276" cy="1582.677" r="23.622"/>
            </g>
            <g transform="matrix(1,0,0,1,318.897638,106.299213)">
                <circle cx="4795.276" cy="1582.677" r="23.622"/>
            </g>
            <g transform="matrix(1,0,0,1,318.897638,372.047244)">
                <circle cx="4795.276" cy="1582.677" r="23.622"/>
            </g>
            <g transform="matrix(1,0,0,1,318.897638,159.448819)">
                <circle cx="4795.276" cy="1582.677" r="23.622"/>
            </g>
            <g transform="matrix(1,0,0,1,318.897638,425.19685)">
                <circle cx="4795.276" cy="1582.677" r="23.622"/>
            </g>
            <g transform="matrix(0,1,-1,0,6377.952756,-3159.448819)">
                <circle cx="4795.276" cy="1582.677" r="23.622"/>
            </g>
            <g transform="matrix(0,1,-1,0,6377.952756,-3106.299213)">
                <circle cx="4795.276" cy="1582.677" r="23.622"/>
            </g>
            <g transform="matrix(0,1,-1,0,6377.952756,-3053.149606)">
                <circle cx="4795.276" cy="1582.677" r="23.622"/>
            </g>
            <g transform="matrix(0,1,-1,0,6377.952756,-3000)">
                <circle cx="4795.276" cy="1582.677" r="23.622"/>
            </g>
            <g transform="matrix(0,1,-1,0,6377.952756,-2946.850394)">
                <circle cx="4795.276" cy="1582.677" r="23.622"/>
            </g>
            <g transform="matrix(0,1,-1,0,6377.952756,-2893.700787)">
                <circle cx="4795.276" cy="1582.677" r="23.622"/>
            </g>
            <g transform="matrix(0,1,-1,0,6377.952756,-2840.551181)">
                <circle cx="4795.276" cy="1582.677" r="23.622"/>
            </g>
            <g transform="matrix(0,1,-1,0,6377.952756,-2787.401575)">
                <circle cx="4795.276" cy="1582.677" r="23.622"/>
            </g>
            <g transform="matrix(1,0,0,1,318.897638,478.346457)">
                <circle cx="4795.276" cy="1582.677" r="23.622"/>
            </g>
        </g>
    </g>
</svg>
