<?xml version="1.0" encoding="UTF-8" standalone="no"?>
<!DOCTYPE svg PUBLIC "-//W3C//DTD SVG 1.1//EN" "http://www.w3.org/Graphics/SVG/1.1/DTD/svg11.dtd">
<svg width="100%" height="100%" viewBox="0 0 227 268" version="1.1" xmlns="http://www.w3.org/2000/svg" xmlns:xlink="http://www.w3.org/1999/xlink" xml:space="preserve" xmlns:serif="http://www.serif.com/" style="fill-rule:evenodd;clip-rule:evenodd;stroke-linejoin:round;stroke-miterlimit:2;">
    <g transform="matrix(1,0,0,1,-514.258577,-2346.579724)">
        <g transform="matrix(1.017912,0,0,0.613512,94.42287,1393.384485)">
            <path d="M574.877,1789.891C607.969,1789.891 634.87,1834.611 634.87,1889.764C634.87,1944.917 607.969,1989.637 574.877,1989.637L472.441,1989.637C439.327,1989.637 412.448,1944.954 412.448,1889.764L412.448,1653.543C412.448,1598.353 439.327,1553.67 472.441,1553.67L574.877,1553.67C607.969,1553.67 634.87,1598.39 634.87,1653.543C634.87,1708.696 607.969,1753.416 574.877,1753.416L532.434,1753.416L532.434,1789.891L574.877,1789.891ZM574.877,1840.827L517.084,1840.827C508.606,1840.827 501.734,1829.425 501.734,1815.359L501.734,1727.948C501.734,1713.882 508.606,1702.48 517.084,1702.48L574.877,1702.48C591.063,1702.48 604.17,1680.521 604.17,1653.543C604.17,1626.566 591.063,1604.607 574.877,1604.607L472.441,1604.607C456.244,1604.607 443.148,1626.548 443.148,1653.543L443.148,1889.764C443.148,1916.759 456.244,1938.7 472.441,1938.7L574.877,1938.7C591.063,1938.7 604.17,1916.741 604.17,1889.764C604.17,1862.787 591.063,1840.827 574.877,1840.827Z"/>
        </g>
    </g>
</svg>
