<?xml version="1.0" encoding="UTF-8" standalone="no"?>
<!DOCTYPE svg PUBLIC "-//W3C//DTD SVG 1.1//EN" "http://www.w3.org/Graphics/SVG/1.1/DTD/svg11.dtd">
<svg width="100%" height="100%" viewBox="0 0 270 270" version="1.1" xmlns="http://www.w3.org/2000/svg" xmlns:xlink="http://www.w3.org/1999/xlink" xml:space="preserve" xmlns:serif="http://www.serif.com/" style="fill-rule:evenodd;clip-rule:evenodd;stroke-linejoin:round;stroke-miterlimit:2;">
    <g transform="matrix(1,0,0,1,-231.381234,-2168.389108)">
        <g transform="matrix(1.166667,0,0,0.7,-267.716535,1062.992126)">
            <path d="M614.173,1815.359C638.812,1815.359 658.816,1848.699 658.816,1889.764C658.816,1930.829 638.812,1964.169 614.173,1964.169L472.441,1964.169C447.785,1964.169 427.798,1930.856 427.798,1889.764L427.798,1653.543C427.798,1612.451 447.785,1579.139 472.441,1579.139L614.173,1579.139C638.812,1579.139 658.816,1612.478 658.816,1653.543C658.816,1694.608 638.812,1727.948 614.173,1727.948L517.084,1727.948L517.084,1815.359L614.173,1815.359Z"/>
        </g>
    </g>
</svg>
