<?xml version="1.0" encoding="UTF-8" standalone="no"?>
<!DOCTYPE svg PUBLIC "-//W3C//DTD SVG 1.1//EN" "http://www.w3.org/Graphics/SVG/1.1/DTD/svg11.dtd">
<svg width="100%" height="100%" viewBox="0 0 137 250" version="1.1" xmlns="http://www.w3.org/2000/svg" xmlns:xlink="http://www.w3.org/1999/xlink" xml:space="preserve" xmlns:serif="http://www.serif.com/" style="fill-rule:evenodd;clip-rule:evenodd;stroke-linejoin:round;stroke-miterlimit:2;">
    <g transform="matrix(1,0,0,1,-988.899072,-1047.135258)">
        <g transform="matrix(1,0,0,1,965.594159,1017.031496)">
            <path d="M87.978,41.515C87.578,35.274 95.427,28.71 94.304,33.551C92.718,40.389 97.289,28.707 103.599,30.245C107.587,31.217 93.584,37.874 98.383,38.686C99.688,38.907 100.692,37.783 102.523,38.445C103.482,38.792 105.513,41.171 105.741,41.439C105.19,41.559 105.062,42.479 104.511,42.6C102.957,42.94 101.977,40.238 99.451,43.491C97.087,50.022 107.973,46.666 105.382,50.408C104.636,51.484 104.387,50.8 101.528,50.301C99.574,49.716 99.673,49.692 97.671,49.765C97.789,51.568 98.027,51.471 99.53,52.496C98.375,56.356 96.779,55.744 96.748,58.488C96.653,67.19 101.112,56.159 103.51,56.406C105.728,56.634 106.638,57.09 108.176,52.283C111.031,52.24 111.742,52.475 112.703,48.74C112.924,48.319 114.849,44.641 115.62,43.563C122.415,38.985 116.419,47.313 116.39,47.511C115.702,52.274 122.139,43.018 122.5,42.499C123.436,42.304 123.279,41.157 125.213,41.935C127.388,42.809 127.326,42.25 129.443,41.21C131.319,44.392 131.992,43.538 135.539,43.031C137.18,42.817 138.822,42.603 140.463,42.389L141.921,42.322L141.863,43.475C141.519,43.669 141.071,42.946 140.728,43.14C139.519,43.822 139.876,44.597 138.225,44.419C137.968,44.392 137.589,44.288 137.456,44.509C137.269,44.82 136.804,46.008 141.612,46.335C144.047,47.402 145.094,47.151 144.287,48.294C143.7,49.127 143.466,48.704 134.463,48.397C131.402,48.292 135.479,52.246 136.444,52.617C157.154,60.582 127.504,53.338 127.2,55.344C126.919,57.192 134.883,58.627 135.051,58.836C137.78,62.248 124.262,58.87 124.143,60.297C123.714,65.42 138.364,61.144 138.611,61.237C149.229,65.251 151.179,61.863 152.5,63.5C154.375,65.821 151.573,64.588 148.691,65.574C147.039,66.139 151.598,67.751 154.305,69.705C167.492,79.224 150.757,70.248 150.492,70.093C148.401,69.482 148.397,69.571 146.456,70.671C139.967,67.188 140.014,67.173 139.424,67.368C135.767,68.58 154.159,78.378 142.512,75.45C139.998,74.816 138.778,71.803 138.821,74.519C138.821,74.519 140.521,76.425 140.669,76.591C139.064,77.183 138.675,78.251 133.597,77.054C131.132,75.309 130.126,73.406 128.412,76.852C123.99,74.528 123.657,75.421 119.321,72.853C114.866,70.216 117.933,75.629 117.702,76.527C117.369,77.819 117.312,78.083 118.59,78.293C122.734,78.974 122.651,78.913 126.595,80.077C127.216,80.286 130.608,81.426 134.561,82.004C145.67,83.628 144.67,86.513 155.368,89.645C154.615,93.687 151.455,88.8 149.405,91.368C148.362,92.675 148.21,92.267 146.492,92.316C144.798,89.965 144.28,90.928 141.673,92.216C139.463,90.323 139.402,89.76 136.628,90.772C134.013,91.725 138.362,92.181 138.639,92.399C142.167,95.176 142.526,94.423 146.345,96.66C153.564,100.888 144.654,98.317 144.464,98.263C141.048,97.278 148.008,106.028 143.503,104.491C143.225,104.396 133.951,89.945 131.772,92.701C130.777,93.96 139.702,101.261 133.579,102.691C130.664,103.372 132.278,99.367 128.329,94.658C127.466,93.629 124.893,89.271 123.457,90.452C121.291,92.234 134.837,104.096 126.518,100.466C123.424,93.96 121.616,96.019 121.574,96.523C121.536,96.974 122.219,96.546 124.365,101.44C124.266,105.117 125.526,104.796 126.133,108.445L125.499,109.416C118.398,103.767 118.854,94.317 115.616,98.627C114.639,99.927 117.615,101.051 117.66,101.5C118.261,107.449 108.343,94.44 105.685,95.867C105.214,96.12 109.947,109.996 109.137,112.41C106.737,119.553 107.364,119.75 107.002,120.294C103.65,125.325 107.999,158.974 110.807,163.742C110.042,165.058 110.268,165.03 110.527,166.478C110.4,166.906 109.151,166.601 109.983,168.312C110.163,168.684 109.805,168.674 110.421,173.462C110.438,179.264 113.912,209.568 114.42,264.5C114.511,274.4 118.452,279.253 108.503,279.357C95.679,279.491 95.501,278.601 95.291,277.555C95.038,276.29 95.804,276.332 96.916,261.513C96.991,260.515 99.984,245.98 98.999,211.547C97.767,168.494 95.609,159.921 95.234,157.501C94.856,156.004 94.89,156.095 94.144,154.664C94.867,152.86 94.991,152.551 91.4,130.533C91.074,128.533 82.781,123.251 81.201,115.549C80.362,111.455 79.22,111.736 79.259,107.542C79.276,105.729 77.548,106.056 76.742,106.777C73.567,109.622 73.593,109.628 69.577,111.218C69.526,107.938 71.061,108.813 73.227,106.315C81.866,96.349 69.66,106.182 69.422,106.373C67.042,104.556 66.528,104.141 64.397,106.331C63.266,107.996 63.276,107.987 63.175,108.129C62.328,109.33 62.305,109.145 61.41,110.413C58.806,113.833 58.658,113.915 58.321,114.1C53.981,116.489 58.763,109.087 58.998,108.723C66.526,97.069 54.876,109.402 54.63,109.662C44.739,120.134 55.529,104.708 54.584,104.376C50.496,102.94 49.312,113.613 46.305,112.95C42.988,112.218 42.851,112.606 42.698,112.357C41.967,111.165 54.984,99.46 44.511,105.522C41.339,107.357 41.478,107.312 38.419,109.18C35.488,110.97 32.983,108.794 35.629,107.698C41.277,105.359 46.441,93.256 63.513,93.629C67.174,93.709 73.646,87.098 73.617,86.482C73.442,82.739 67.638,88.726 67.255,89.121C63.642,92.849 63.089,90.486 61.381,89.269C55.797,94.505 54.66,89.459 55.643,88.606C70.326,75.855 51.494,88.904 51.221,89.134C48.551,91.386 45.397,90.447 44.818,91.693C43.478,94.576 43.732,94.618 41.59,96.815L40.374,96.6C41.107,92.91 41.128,92.938 41.165,92.615C41.356,90.953 37.984,94.884 37.436,95.105C32.966,96.917 40.832,87.738 40.596,86.46C39.645,81.303 35.74,94.049 31.005,90.672C33.943,86.796 33.946,86.836 34.178,86.486C38.821,79.485 29.724,88.084 29.427,88.365C29.019,88.679 26.599,92.356 24.687,87.264C23.696,86.462 23.82,86.458 23.305,85.273C26.958,83.568 26.702,83.347 29.851,80.957C39.545,73.598 40.889,76.328 41.499,75.498C42.054,74.742 42.096,73.686 42.652,72.93C43.412,71.896 53.541,74.873 52.011,72.374C50.015,69.113 54.524,70.905 56.154,67.354C58.915,61.336 47.4,69.188 48.415,65.499C49.615,61.142 45.747,65.721 44.49,64.513C42.514,62.615 49.824,61.14 50.006,60.471C50.717,57.868 41.253,60.558 40.522,60.765C37.621,61.59 37.827,58.184 41.406,57.302C50.135,55.151 38.738,54.904 38.432,54.897C24.95,54.605 52.14,48.837 58.669,55.358C61.352,58.039 70.797,61.612 66.252,56.757C62.522,52.774 71.315,46.69 66.503,47.359C64.508,47.637 61.615,49.666 61.513,49.676C59.085,49.93 62.163,47.431 60.24,45.877C59.637,45.395 59.035,44.914 58.433,44.432C58.677,44.286 63.524,41.626 61.286,40.795C51.08,37.005 69.348,36.378 73.488,44.509C74.511,46.517 76.041,44.663 77.073,46.738C81.999,56.641 81.541,58.777 84.099,57.365C87.788,53.843 87.584,53.38 86.396,48.438C86.365,46.764 86.751,46.962 87.698,45.781C89.167,43.949 88.625,43.824 87.978,41.515Z" style="fill:rgb(245,244,222);"/>
        </g>
    </g>
</svg>
