<svg width="144" height="533" viewBox="0 0 144 533" fill="none" xmlns="http://www.w3.org/2000/svg">
<path d="M1.25889e-05 461L3.14722e-06 245C1.40906e-06 205.235 32.2355 173 72 173C111.765 173 144 205.235 144 245L144 461C144 500.764 111.765 533 72 533C32.2355 533 1.4327e-05 500.765 1.25889e-05 461Z" fill="black"/>
<path d="M144 72L144 76C144 115.765 111.765 148 72 148C32.2355 148 1.40906e-06 115.764 3.14722e-06 76L3.32206e-06 72C5.06022e-06 32.2355 32.2355 -4.88538e-06 72 -3.14722e-06C111.765 -1.40906e-06 144 32.2355 144 72Z" fill="black"/>
</svg>
