<?xml version="1.0" encoding="UTF-8" standalone="no"?>
<!DOCTYPE svg PUBLIC "-//W3C//DTD SVG 1.1//EN" "http://www.w3.org/Graphics/SVG/1.1/DTD/svg11.dtd">
<svg width="100%" height="100%" viewBox="0 0 150 472" version="1.1" xmlns="http://www.w3.org/2000/svg" xmlns:xlink="http://www.w3.org/1999/xlink" xml:space="preserve" xmlns:serif="http://www.serif.com/" style="fill-rule:evenodd;clip-rule:evenodd;stroke-linejoin:round;stroke-miterlimit:2;">
    <g transform="matrix(1,0,0,1,-1106.102362,-2691.558432)">
        <path d="M1106.102,2766.558C1106.102,2725.165 1139.709,2691.558 1181.102,2691.558C1222.496,2691.558 1256.102,2725.165 1256.102,2766.558L1256.102,3088.542C1256.102,3129.936 1222.496,3163.542 1181.102,3163.542C1139.709,3163.542 1106.102,3129.936 1106.102,3088.542L1106.102,2766.558ZM1181.102,2739.887C1160.406,2739.887 1143.602,2756.69 1143.602,2777.387C1143.602,2798.084 1160.406,2814.887 1181.102,2814.887C1201.799,2814.887 1218.602,2798.084 1218.602,2777.387C1218.602,2756.69 1201.799,2739.887 1181.102,2739.887ZM1143.602,2872.146L1143.602,3080.137C1143.602,3100.834 1160.406,3117.637 1181.102,3117.637C1201.799,3117.637 1218.602,3100.834 1218.602,3080.137L1218.602,2872.146C1218.602,2851.449 1201.799,2834.646 1181.102,2834.646C1160.406,2834.646 1143.602,2851.449 1143.602,2872.146Z"/>
    </g>
</svg>
