<?xml version="1.0" encoding="UTF-8" standalone="no"?>
<!DOCTYPE svg PUBLIC "-//W3C//DTD SVG 1.1//EN" "http://www.w3.org/Graphics/SVG/1.1/DTD/svg11.dtd">
<svg width="100%" height="100%" viewBox="0 0 237 237" version="1.1" xmlns="http://www.w3.org/2000/svg" xmlns:xlink="http://www.w3.org/1999/xlink" xml:space="preserve" xmlns:serif="http://www.serif.com/" style="fill-rule:evenodd;clip-rule:evenodd;stroke-linejoin:round;stroke-miterlimit:2;">
    <g transform="matrix(1,0,0,1,-1417.322835,-708.661417)">
        <g transform="matrix(1,0,0,1,944.88189,0)">
            <path d="M708.661,755.906C708.661,755.906 708.661,708.661 661.417,708.661L519.685,708.661C519.685,708.661 472.441,708.661 472.441,755.906C472.441,803.15 519.685,803.15 519.685,803.15C566.929,803.15 566.929,755.906 566.929,755.906C566.929,755.906 584.646,803.15 584.646,826.772C584.646,850.394 566.929,897.638 566.929,897.638C566.929,897.638 566.929,850.394 519.685,850.394C519.685,850.394 472.441,850.121 472.441,897.638C472.441,897.638 472.441,944.882 519.685,944.882L661.417,944.882C661.417,944.882 708.661,944.882 708.661,897.638C708.661,850.394 661.417,850.394 661.417,850.394C661.417,850.394 614.173,850.394 614.173,897.638C614.173,897.638 596.457,850.394 596.457,826.772C596.457,803.15 614.173,755.906 614.173,755.906C614.173,755.906 614.173,803.15 661.417,803.15C708.661,803.15 708.661,755.906 708.661,755.906Z" style="fill:rgb(255,0,137);"/>
        </g>
    </g>
</svg>
