<?xml version="1.0" encoding="UTF-8" standalone="no"?>
<!DOCTYPE svg PUBLIC "-//W3C//DTD SVG 1.1//EN" "http://www.w3.org/Graphics/SVG/1.1/DTD/svg11.dtd">
<svg width="100%" height="100%" viewBox="0 0 628 616" version="1.1" xmlns="http://www.w3.org/2000/svg" xmlns:xlink="http://www.w3.org/1999/xlink" xml:space="preserve" xmlns:serif="http://www.serif.com/" style="fill-rule:evenodd;clip-rule:evenodd;stroke-linejoin:round;stroke-miterlimit:2;">
    <g transform="matrix(1,0,0,1,-2362.181877,-613.022909)">
        <g transform="matrix(1.512584,0,0,1.512584,2153.182206,195.595599)">
            <path d="M220.785,366.271C221.023,366.367 221.262,366.463 221.5,366.559C221.58,366.327 222.074,366.453 222.154,366.221C222.597,364.936 222.479,360.991 227.689,346.565C229.059,342.77 245.008,290.166 274.288,304.922C300.509,318.137 302.498,408.665 347.751,471.316C357.474,484.777 366.776,498.038 402.235,476.091C455.303,443.244 507.078,353.469 522.625,344.722C539.261,335.362 557.613,350.243 552.182,368.415C541.79,403.184 542.544,403.347 540.09,433.472C539.972,434.91 538.294,455.505 531.6,449.381C525.94,444.204 534.436,403.345 526.796,411.734C520.274,418.895 477.448,508.651 405.309,539.04C400.093,541.237 399.006,541.368 393.227,562.422C380.855,607.497 392.044,680.337 382.531,682.619C377.179,683.903 377.232,677.573 376.73,647.496C376.408,628.172 379.747,573.309 373.571,552.476C371.129,544.239 360.882,558.591 361.666,573.489C361.691,573.976 366.629,612.715 357.621,608.209C351.399,605.096 359.007,547.98 351.232,544.948C331.658,537.317 302.136,531.061 278.792,444.422C265.996,396.931 263.113,368.259 262.437,361.534C262.325,360.422 262.618,360.012 261.5,360.024C260.368,360.036 261.067,360.804 257.25,372.419C224.107,473.263 236.422,496.605 215.505,501.524C212.819,502.156 197.506,503.828 193.989,484.409C192.093,473.937 190.348,464.298 188.357,351.504C188.335,350.287 189.061,323.166 186.883,332.711C185.899,337.024 171.595,445.251 144.499,444.536C139.516,444.405 134.23,437.86 142.457,435.386C155.14,431.573 160.28,352.739 174.942,299.618C175.719,296.804 179.477,271.088 195.396,276.793C198.249,277.815 210.366,276.923 219.815,353.458C219.941,354.479 220.251,356.994 220.785,366.271Z"/>
        </g>
    </g>
</svg>
