<?xml version="1.0" encoding="UTF-8" standalone="no"?>
<!DOCTYPE svg PUBLIC "-//W3C//DTD SVG 1.1//EN" "http://www.w3.org/Graphics/SVG/1.1/DTD/svg11.dtd">
<svg width="100%" height="100%" viewBox="0 0 381 378" version="1.1" xmlns="http://www.w3.org/2000/svg" xmlns:xlink="http://www.w3.org/1999/xlink" xml:space="preserve" xmlns:serif="http://www.serif.com/" style="fill-rule:evenodd;clip-rule:evenodd;stroke-linejoin:round;stroke-miterlimit:2;">
    <g transform="matrix(1,0,0,1,-1929.553044,-2215.662406)">
        <g transform="matrix(1,0,0,1,112.397323,396.734038)">
            <path d="M1960.02,2125.625C1960.218,2164.718 1928.64,2196.618 1889.547,2196.817C1850.454,2197.015 1818.554,2165.437 1818.355,2126.344L1817.157,1890.123C1817.011,1861.403 1834.223,1835.437 1860.732,1824.385C1887.242,1813.333 1917.801,1819.383 1938.1,1839.701L2055.202,1956.916L2056.03,1888.902C2056.506,1849.81 2088.629,1818.46 2127.72,1818.936C2166.811,1819.412 2198.162,1851.535 2197.686,1890.626L2194.81,2126.846C2194.463,2155.343 2177.072,2180.857 2150.674,2191.596C2124.277,2202.335 2094.013,2196.208 2073.871,2176.047L1959.696,2061.761L1960.02,2125.625ZM1922.521,2125.815L1921.965,2016.328C1921.926,2008.725 1926.482,2001.852 1933.5,1998.926C1940.517,1996.001 1948.606,1997.602 1953.979,2002.981L2100.401,2149.543C2109.879,2159.031 2124.121,2161.914 2136.543,2156.86C2148.966,2151.807 2157.15,2139.8 2157.313,2126.39L2160.189,1890.17C2160.413,1871.774 2145.659,1856.657 2127.264,1856.433C2108.868,1856.209 2093.751,1870.962 2093.527,1889.358L2092.157,2001.897C2092.065,2009.441 2087.462,2016.194 2080.474,2019.037C2073.486,2021.88 2065.475,2020.258 2060.144,2014.921L1911.571,1866.205C1902.018,1856.643 1887.637,1853.796 1875.162,1858.997C1862.687,1864.198 1854.588,1876.417 1854.656,1889.933L1855.855,2126.153C1855.948,2144.55 1870.96,2159.41 1889.357,2159.317C1907.754,2159.224 1922.614,2144.212 1922.521,2125.815Z"/>
        </g>
    </g>
</svg>
