<?xml version="1.0" encoding="UTF-8" standalone="no"?>
<!DOCTYPE svg PUBLIC "-//W3C//DTD SVG 1.1//EN" "http://www.w3.org/Graphics/SVG/1.1/DTD/svg11.dtd">
<svg width="100%" height="100%" viewBox="0 0 237 237" version="1.1" xmlns="http://www.w3.org/2000/svg" xmlns:xlink="http://www.w3.org/1999/xlink" xml:space="preserve" xmlns:serif="http://www.serif.com/" style="fill-rule:evenodd;clip-rule:evenodd;stroke-linejoin:round;stroke-miterlimit:2;">
    <g transform="matrix(1,0,0,1,-1889.76378,-708.661417)">
        <g transform="matrix(1,0,0,1,236.220472,0)">
            <path d="M1653.543,708.661L1653.543,874.016C1653.543,944.882 1724.409,944.882 1724.409,944.882C1771.654,944.882 1771.654,897.638 1771.654,897.638C1771.654,897.638 1771.654,850.394 1724.409,850.394C1724.409,850.394 1677.165,850.394 1677.165,897.638L1677.165,767.717C1724.409,767.717 1795.276,944.882 1866.142,944.882L1889.764,944.882L1889.764,779.528C1889.764,708.661 1818.898,708.661 1818.898,708.661C1818.898,708.661 1771.654,708.661 1771.654,755.906C1771.654,803.15 1818.898,803.15 1818.898,803.15C1818.898,803.15 1866.142,803.15 1866.142,755.906L1866.142,885.827C1818.898,885.827 1748.031,708.661 1677.165,708.661L1653.543,708.661Z" style="fill:rgb(255,0,137);"/>
        </g>
    </g>
</svg>
