<?xml version="1.0" encoding="UTF-8" standalone="no"?>
<!DOCTYPE svg PUBLIC "-//W3C//DTD SVG 1.1//EN" "http://www.w3.org/Graphics/SVG/1.1/DTD/svg11.dtd">
<svg width="100%" height="100%" viewBox="0 0 545 590" version="1.1" xmlns="http://www.w3.org/2000/svg" xmlns:xlink="http://www.w3.org/1999/xlink" xml:space="preserve" xmlns:serif="http://www.serif.com/" style="fill-rule:evenodd;clip-rule:evenodd;stroke-linejoin:round;stroke-miterlimit:2;">
    <g transform="matrix(1,0,0,1,-1048.192141,-2787.152716)">
        <g transform="matrix(0.707107,-0.707107,0.707107,0.707107,1358.610412,3103.957671)">
            <path d="M-31.239,-9.665C-26.51,-22.326 -14.301,-31.351 -0,-31.351C18.397,-31.351 33.333,-16.415 33.333,1.982C33.333,33.529 7.759,59.103 -23.788,59.103C-68.473,59.104 -104.697,22.879 -104.697,-21.805C-104.697,-79.628 -57.823,-126.502 -0,-126.502C70.96,-126.502 128.485,-68.978 128.485,1.982C128.485,86.08 60.31,154.255 -23.788,154.255C-121.023,154.255 -199.848,75.43 -199.848,-21.805C-199.848,-132.179 -110.373,-221.654 -0,-221.654C123.511,-221.654 223.636,-121.528 223.636,1.982C223.636,138.631 112.861,249.406 -23.788,249.406C-173.574,249.406 -294.999,127.981 -294.999,-21.805C-294.999,-184.729 -162.924,-316.805 -0,-316.805C174.967,-316.805 316.805,-174.967 316.805,0C316.805,18.397 301.869,33.333 283.472,33.333C265.074,33.333 250.138,18.397 250.138,0C250.138,-138.148 138.148,-250.138 -0,-250.138C-126.105,-250.138 -228.333,-147.91 -228.333,-21.805C-228.333,91.162 -136.755,182.739 -23.788,182.739C76.042,182.739 156.969,101.812 156.969,1.982C156.969,-84.709 86.692,-154.987 -0,-154.987C-73.554,-154.987 -133.181,-95.36 -133.181,-21.805C-133.181,38.611 -84.204,87.588 -23.788,87.588C23.491,87.588 61.818,49.261 61.818,1.982C61.818,-32.159 34.141,-59.836 -0,-59.836C-21.003,-59.836 -38.03,-42.809 -38.03,-21.805C-38.03,-16.671 -35.313,-12.171 -31.239,-9.665Z"/>
        </g>
    </g>
</svg>
