<?xml version="1.0" encoding="UTF-8" standalone="no"?>
<!DOCTYPE svg PUBLIC "-//W3C//DTD SVG 1.1//EN" "http://www.w3.org/Graphics/SVG/1.1/DTD/svg11.dtd">
<svg width="100%" height="100%" viewBox="0 0 467 567" version="1.1" xmlns="http://www.w3.org/2000/svg" xmlns:xlink="http://www.w3.org/1999/xlink" xml:space="preserve" xmlns:serif="http://www.serif.com/" style="fill-rule:evenodd;clip-rule:evenodd;stroke-linejoin:round;stroke-miterlimit:2;">
    <g transform="matrix(1,0,0,1,-1076.199549,-2740.162799)">
        <g transform="matrix(0.707107,-0.707107,0.707107,0.707107,1309.54762,3023.622047)">
            <path d="M293.888,0C293.888,5.749 289.221,10.417 283.472,10.417C277.723,10.417 273.055,5.749 273.055,0C273.055,-131.147 166.581,-237.621 35.434,-237.621C-95.713,-237.621 -202.187,-131.147 -202.187,0C-202.187,92.034 -127.467,166.753 -35.434,166.753C56.6,166.753 131.319,92.034 131.319,0C131.319,-52.92 88.354,-95.885 35.434,-95.885C-17.487,-95.885 -60.451,-52.92 -60.451,0C-60.451,13.807 -49.241,25.017 -35.434,25.017C-21.627,25.017 -10.417,13.807 -10.417,0C-10.417,-25.306 10.128,-45.851 35.434,-45.851C60.74,-45.851 81.285,-25.306 81.285,0C81.285,64.419 28.985,116.719 -35.434,116.719C-99.853,116.719 -152.152,64.419 -152.152,0C-152.152,-103.532 -68.098,-187.586 35.434,-187.586C138.966,-187.586 223.02,-103.532 223.02,0C223.02,142.645 107.211,258.454 -35.434,258.454C-178.079,258.454 -293.888,142.645 -293.888,0C-293.888,-5.749 -289.221,-10.417 -283.472,-10.417C-277.723,-10.417 -273.055,-5.749 -273.055,0C-273.055,131.147 -166.581,237.621 -35.434,237.621C95.713,237.621 202.187,131.147 202.187,0C202.187,-92.034 127.467,-166.753 35.434,-166.753C-56.6,-166.753 -131.319,-92.034 -131.319,0C-131.319,52.92 -88.354,95.885 -35.434,95.885C17.487,95.885 60.451,52.92 60.451,-0C60.451,-13.807 49.241,-25.017 35.434,-25.017C21.627,-25.017 10.417,-13.807 10.417,0C10.417,25.306 -10.128,45.851 -35.434,45.851C-60.74,45.851 -81.285,25.306 -81.285,0C-81.285,-64.419 -28.985,-116.719 35.434,-116.719C99.853,-116.719 152.152,-64.419 152.152,0C152.152,103.532 68.098,187.586 -35.434,187.586C-138.966,187.586 -223.02,103.532 -223.02,0C-223.02,-142.645 -107.211,-258.454 35.434,-258.454C178.079,-258.454 293.888,-142.645 293.888,0Z"/>
        </g>
    </g>
</svg>
