<?xml version="1.0" encoding="UTF-8" standalone="no"?>
<!DOCTYPE svg PUBLIC "-//W3C//DTD SVG 1.1//EN" "http://www.w3.org/Graphics/SVG/1.1/DTD/svg11.dtd">
<svg width="100%" height="100%" viewBox="0 0 533 554" version="1.1" xmlns="http://www.w3.org/2000/svg" xmlns:xlink="http://www.w3.org/1999/xlink" xml:space="preserve" xmlns:serif="http://www.serif.com/" style="fill-rule:evenodd;clip-rule:evenodd;stroke-linejoin:round;stroke-miterlimit:2;">
    <g transform="matrix(1,0,0,1,-1198.175012,-580.79962)">
        <g id="O-Ooze" transform="matrix(2.672852,0,0,2.672852,-356.737854,226.404075)">
            <path d="M583.722,237.469C574.437,199.273 600.625,169.172 604.606,164.596L609.578,159.586C623.41,148.264 632.949,140.456 660.494,138.34L668.505,138.387C671.361,138.604 706.207,141.251 702.235,150.37C699.893,155.746 697.773,149.696 670.522,148.017C664.449,147.897 664.559,147.836 658.471,148.082C657.929,148.155 632.502,147.506 610.898,173.816C598.347,189.102 582.815,225.618 609.483,258.515C611.719,260.907 611.625,260.862 614.084,262.984C658.699,301.14 746.152,264.342 742.68,227.483C741.884,219.032 733.855,209.541 730.564,211.604C723.111,216.277 723.732,217.075 710.612,224.703C701.954,229.736 709.141,251.763 702.452,248.578C700.28,247.544 699.346,227.471 696.376,233.399C694.053,238.034 696.33,252.066 691.643,248.286C689.049,246.194 692.054,233.73 686.513,234.62C668.983,237.436 654.776,239.169 635.621,224.357L631.673,220.359C627.519,214.568 627.313,214.676 625.455,207.508C625.115,203.444 625.116,203.544 625.433,199.489C630.803,181.072 644.968,175.96 666.488,173.351L670.478,173.103L674.507,172.923L679.479,172.98L685.509,173.396C698.698,175.175 707.291,175.627 728.652,186.171C730.663,187.164 732.471,188.057 750.208,168.247C767.863,148.528 764.831,138.284 772.342,133.081C776.925,132.012 778.108,132.507 780.681,136.412C783.935,151.561 765.971,174.741 765.749,177.527C765.661,178.623 766.066,187.318 763.446,188.262C760.547,189.306 761.647,181.436 758.778,184.779C753.475,190.959 753.473,190.818 747.765,196.741C745.505,199.086 747.67,199.267 751.987,205.135C758.787,214.38 758.938,220.49 759.649,224.486C759.848,229.038 759.795,228.98 759.513,233.502C747.93,290.001 684.241,292.369 682.58,296.535C680.352,302.126 679.085,337.703 676.336,339.229C675.227,339.845 673.847,339.358 673.399,338.576C671.869,335.906 672.785,335.711 672.983,328.527L673.265,324.483C673.399,322.337 675.129,294.709 670.629,297.735C667.114,300.099 670.406,325.096 664.368,321.668C661.613,320.104 667.288,297.913 657.51,296.441C646.832,294.833 627.328,294.821 604.621,275.367L599.666,270.356C598.395,268.766 588.905,258.903 584.693,242.442L583.722,237.469ZM659.414,216.851C663.651,217.617 683.1,221.132 711.176,202.098C715.886,198.905 692.894,194.96 685.508,194.383C657.993,192.236 629.711,202.15 651.743,214.068C654.9,215.776 654.975,215.445 659.414,216.851Z"/>
        </g>
    </g>
</svg>
