<?xml version="1.0" encoding="UTF-8" standalone="no"?>
<!DOCTYPE svg PUBLIC "-//W3C//DTD SVG 1.1//EN" "http://www.w3.org/Graphics/SVG/1.1/DTD/svg11.dtd">
<svg width="100%" height="100%" viewBox="0 0 237 237" version="1.1" xmlns="http://www.w3.org/2000/svg" xmlns:xlink="http://www.w3.org/1999/xlink" xml:space="preserve" xmlns:serif="http://www.serif.com/" style="fill-rule:evenodd;clip-rule:evenodd;stroke-linejoin:round;stroke-miterlimit:2;">
    <g transform="matrix(1,0,0,1,-758.585781,-1182.066527)">
        <g transform="matrix(1,0,0,1,286.144836,473.40511)">
            <path d="M708.661,755.906L708.661,897.638C708.661,944.882 661.417,944.882 661.417,944.882L519.685,944.882C472.441,944.882 472.441,897.638 472.441,897.638L472.441,755.906C472.441,708.661 519.685,708.661 519.685,708.661L661.417,708.661C708.661,708.661 708.661,755.906 708.661,755.906ZM540.627,802.185C540.627,825.438 517.005,825.807 517.005,825.807C517.005,825.807 540.627,825.807 540.627,849.43L540.627,874.016L564.249,874.016C587.871,874.016 587.871,897.638 587.871,897.638C587.871,897.638 587.871,874.016 611.493,874.016L635.115,874.016L635.115,847.86C636.138,825.807 658.701,825.807 658.701,825.807C658.701,825.807 636.138,825.807 635.115,803.755L635.115,778.563L611.493,778.563C588.24,778.563 587.871,754.941 587.871,754.941C587.871,754.941 587.871,778.563 564.249,778.563L540.627,778.563L540.627,802.185Z" style="fill:rgb(255,0,137);"/>
        </g>
    </g>
</svg>
