<?xml version="1.0" encoding="UTF-8" standalone="no"?>
<!DOCTYPE svg PUBLIC "-//W3C//DTD SVG 1.1//EN" "http://www.w3.org/Graphics/SVG/1.1/DTD/svg11.dtd">
<svg width="100%" height="100%" viewBox="0 0 237 237" version="1.1" xmlns="http://www.w3.org/2000/svg" xmlns:xlink="http://www.w3.org/1999/xlink" xml:space="preserve" xmlns:serif="http://www.serif.com/" style="fill-rule:evenodd;clip-rule:evenodd;stroke-linejoin:round;stroke-miterlimit:2;">
    <g transform="matrix(1,0,0,1,-767.716535,-708.661417)">
        <g transform="matrix(1,0,0,1,295.275591,0)">
            <path d="M708.661,755.906L708.661,897.638C708.661,944.882 661.417,944.882 661.417,944.882L519.685,944.882C472.441,944.882 472.441,897.638 472.441,897.638L472.441,755.906C472.441,708.661 519.685,708.661 519.685,708.661L661.417,708.661C708.661,708.661 708.661,755.906 708.661,755.906ZM569.672,847.651C576.632,854.611 604.471,854.611 611.43,847.651C618.39,840.691 618.39,812.852 611.43,805.893C604.471,798.933 576.632,798.933 569.672,805.893C562.712,812.852 562.712,840.691 569.672,847.651Z" style="fill:rgb(255,0,137);"/>
        </g>
    </g>
</svg>
