<?xml version="1.0" encoding="UTF-8" standalone="no"?>
<!DOCTYPE svg PUBLIC "-//W3C//DTD SVG 1.1//EN" "http://www.w3.org/Graphics/SVG/1.1/DTD/svg11.dtd">
<svg width="100%" height="100%" viewBox="0 0 1586 1574" version="1.1" xmlns="http://www.w3.org/2000/svg" xmlns:xlink="http://www.w3.org/1999/xlink" xml:space="preserve" xmlns:serif="http://www.serif.com/" style="fill-rule:evenodd;clip-rule:evenodd;stroke-linejoin:round;stroke-miterlimit:2;">
    <g transform="matrix(1,0,0,1,-88.179265,-856.530916)">
        <g transform="matrix(1,0,0,1,87.948284,-324.698404)">
            <path d="M0.231,1464.567C0.231,1464.567 0,1181.559 283.465,1181.331C566.929,1181.102 1301.859,1181.331 1301.859,1181.331C1402.405,1181.102 1584.966,1275.591 1585.34,1464.567C1585.34,1464.567 1582.294,1698.922 1582.294,1842.52C1582.294,1984.252 1464.567,2125.984 1275.591,2125.984L1181.102,2125.984C1181.102,2125.984 1577.676,2125.984 1570.376,2503.937C1566.271,2716.496 1228.346,2881.89 999.045,2598.425L597.861,2196.85C597.861,2196.85 590.551,2401.546 590.551,2503.937C590.551,2645.669 425.197,2755.178 283.465,2755.178C70.866,2755.178 8.175,2503.937 8.175,2503.937L0.231,1464.567ZM1203.425,1967.804L1203.424,1967.651L1275.591,1967.651C1363.415,1967.651 1423.961,1908.388 1423.961,1842.52C1423.961,1704.704 1426.748,1483.743 1427.001,1463.916C1426.222,1381.191 1346.403,1339.563 1302.219,1339.664L1301.81,1339.664C1301.81,1339.664 567.008,1339.436 283.592,1339.664C161.973,1339.762 158.657,1457.781 158.567,1464.169L158.566,1464.212L166.326,2479.432C171.535,2493.785 181.49,2517.425 197.475,2541.189C214.711,2566.815 240.095,2596.845 283.465,2596.845C321.515,2596.845 362.358,2581.079 394.067,2556.866C412.859,2542.516 432.218,2526.488 432.218,2503.937C432.218,2399.662 439.628,2191.2 439.628,2191.2C441.877,2128.214 481.269,2072.559 539.925,2049.497C598.581,2026.435 665.329,2040.358 709.874,2084.946L1111.058,2486.521C1114.967,2490.433 1118.667,2494.547 1122.145,2498.847C1197.576,2592.095 1291.129,2608.397 1357.042,2572.029C1386.121,2555.984 1411.477,2531.728 1412.073,2500.88C1416.332,2280.325 1181.102,2284.318 1181.102,2284.318C1093.657,2284.318 1022.769,2213.429 1022.769,2125.984C1022.769,2038.539 1093.657,1967.651 1181.102,1967.651C1188.717,1967.651 1196.157,1967.702 1203.425,1967.804Z"/>
        </g>
        <g transform="matrix(1,0,0,1,87.948284,-230.210215)">
            <path d="M865.715,1464.567C865.715,1420.874 901.189,1385.4 944.882,1385.4C988.575,1385.4 1024.049,1420.874 1024.049,1464.567L1024.049,1653.543C1024.049,1697.237 988.575,1732.71 944.882,1732.71C901.189,1732.71 865.715,1697.237 865.715,1653.543L865.715,1464.567Z"/>
        </g>
        <g transform="matrix(1,0,0,1,324.475999,-230.210215)">
            <path d="M865.715,1464.567C865.715,1420.874 901.189,1385.4 944.882,1385.4C988.575,1385.4 1024.049,1420.874 1024.049,1464.567L1024.049,1653.543C1024.049,1697.237 988.575,1732.71 944.882,1732.71C901.189,1732.71 865.715,1697.237 865.715,1653.543L865.715,1464.567Z"/>
        </g>
    </g>
</svg>
