<?xml version="1.0" encoding="UTF-8" standalone="no"?>
<!DOCTYPE svg PUBLIC "-//W3C//DTD SVG 1.1//EN" "http://www.w3.org/Graphics/SVG/1.1/DTD/svg11.dtd">
<svg width="100%" height="100%" viewBox="0 0 237 237" version="1.1" xmlns="http://www.w3.org/2000/svg" xmlns:xlink="http://www.w3.org/1999/xlink" xml:space="preserve" xmlns:serif="http://www.serif.com/" style="fill-rule:evenodd;clip-rule:evenodd;stroke-linejoin:round;stroke-miterlimit:2;">
    <g transform="matrix(1,0,0,1,-1062.992126,-1536.019008)">
        <g transform="matrix(1,0,0,1,590.551181,803.735543)">
            <path d="M519.685,968.504C472.441,968.504 472.441,921.26 472.441,921.26L472.441,779.528C472.441,732.283 519.685,732.283 519.685,732.283L661.417,732.283C661.417,732.283 708.661,732.283 708.661,779.528L708.661,826.772C708.661,826.772 708.661,874.016 661.417,874.016C661.417,874.016 708.661,874.016 708.661,921.26C708.661,968.504 661.417,968.504 661.417,968.504C614.173,968.504 590.551,921.26 590.551,921.26C590.551,921.26 566.929,968.504 519.685,968.504ZM543.307,779.551C542.658,802.185 519.685,802.185 519.685,802.185C519.685,802.185 542.658,802.185 543.307,824.82L543.307,826.186L566.929,826.186C566.929,826.186 590.551,826.78 590.551,849.808C590.551,849.808 590.551,826.186 614.173,826.186L637.795,826.186L637.795,824.82C637.805,825.144 637.809,825.474 637.809,825.807C637.809,802.555 661.417,802.185 661.417,802.185C661.417,802.185 637.809,802.185 637.809,778.563C637.809,778.897 637.805,779.227 637.795,779.551L637.795,778.942L608.083,778.942C590.551,775.183 590.551,755.32 590.551,755.32C590.551,772.425 578.165,777.463 571.331,778.942L543.323,778.942C543.322,778.816 543.321,778.69 543.321,778.563C543.321,778.69 543.32,778.816 543.319,778.942L543.307,778.942L543.307,779.551Z" style="fill:rgb(255,0,137);"/>
        </g>
    </g>
</svg>
