<?xml version="1.0" encoding="UTF-8" standalone="no"?>
<!DOCTYPE svg PUBLIC "-//W3C//DTD SVG 1.1//EN" "http://www.w3.org/Graphics/SVG/1.1/DTD/svg11.dtd">
<svg width="100%" height="100%" viewBox="0 0 636 630" version="1.1" xmlns="http://www.w3.org/2000/svg" xmlns:xlink="http://www.w3.org/1999/xlink" xml:space="preserve" xmlns:serif="http://www.serif.com/" style="fill-rule:evenodd;clip-rule:evenodd;stroke-linejoin:round;stroke-miterlimit:2;">
    <g transform="matrix(1,0,0,1,-1453.855658,-1102.435068)">
        <g id="BLACK" transform="matrix(1,0,0,1,1428.038958,1070.183912)">
            <path d="M380.513,497.495C376.133,495.591 376.988,498.755 376.085,506.432C375.715,509.573 378.548,560.122 380.782,568.417C381.186,569.918 380.151,571.69 382.783,581.415C391.207,612.54 410.794,614.605 414.467,614.992C419.58,615.531 419.345,616.479 424.467,616.992C432.046,617.75 437.961,624.614 431.562,624.917C412.475,625.818 412.693,626.924 393.518,627.979C391.336,628.099 391.618,628.898 389.538,628.94C363.717,629.462 363.748,629.713 361.58,629.164C361.07,629.035 349.421,628.686 348.512,629.514C344.698,632.986 355.172,635.163 347.668,648.603C340.937,660.657 315.448,653.325 320.731,634.58C321.703,631.131 319.545,630.123 318.561,630.078C315.758,629.95 315.792,630.883 283.5,630.965C275.821,630.985 283.454,636.064 281.018,643.385C278.648,650.511 278.273,662.475 256.526,662.014C255.19,661.985 240.014,658.349 238.584,658.006C227.713,655.401 204.896,623.981 219.998,600.791C221.419,598.61 224.768,593.466 240.772,575.742C244.967,571.096 252.016,566.142 255.628,559.577C262.915,546.329 264.417,547.013 268.198,532.414C268.91,529.664 272.789,525.349 272.893,523.569C273.399,514.888 274.717,515.13 274.973,506.511C274.999,505.664 279.433,488.171 279.836,486.58C280.388,484.403 280.932,469.973 280.987,468.526C281.207,462.677 283.782,463.308 283.931,457.548C284.28,444.087 282.198,443.995 284.836,433.58C285.643,430.394 284.818,430.337 285.259,392.5C285.265,391.94 285.043,392.03 284.967,385.503C284.92,381.426 286.262,381.457 285.218,377.583C284.283,374.115 284.056,360.035 284.031,358.506C283.993,356.186 281.724,352.998 282.523,350.51C285.078,342.558 285.131,320.686 283.218,313.583C281.112,305.764 284.348,305.492 282.218,297.583C281.943,296.564 282.743,296.464 280.539,284.493C279.812,280.545 281.278,280.518 280.218,276.583C278.906,271.713 279.792,260.892 274.206,239.58C273.341,236.281 273.06,222.04 273.03,220.512C272.931,215.509 267.847,204.109 267.031,189.514C267.013,189.19 263.701,176.551 263.018,168.522C262.09,157.622 245.253,128.853 243.345,125.592C237.009,114.766 239.081,113.578 230.77,104.258C226.75,99.75 214.18,75.596 214.046,71.522C213.736,62.068 217.451,52.132 218.781,50.741C249.838,18.232 266.794,36.92 263.547,44.52C262.908,46.015 255.479,63.403 244.764,52.26C242.815,50.233 242.362,42.132 233.471,46.441C213.83,55.96 220.534,67.808 223.457,67.939C232.047,68.323 231.921,67.071 240.498,67.034C243.193,67.022 244.193,66.085 245.462,66.06C257.929,65.808 264.544,66.8 270.417,65.218C274.107,64.224 313.232,67.418 315.325,65.326C316.921,63.729 308.639,51.565 314.789,45.807C320.417,40.537 343.243,40.718 339.883,57.57C339.859,57.687 335.43,65.801 338.4,65.932C351.739,66.521 353.807,64.426 356.581,65.224C366.46,68.066 376.197,63.538 386.584,66.168C397.53,68.941 387.018,56.501 390.326,50.413C397.38,37.428 422.942,38.03 432.104,53.767C433.752,56.597 437.612,73.578 428.696,89.61C428,90.862 417.438,109.854 422.422,106.384C423.165,105.867 422.439,105.305 430.246,98.207C436.389,92.62 434.901,90.688 442.571,87.644C448.669,85.224 446.322,81.12 466.576,73.684C487.474,66.011 487.124,61.481 496.42,63.836C502.633,65.409 505.254,61.068 526.5,61.035C568.267,60.969 577.567,68.651 598.412,75.755C612.475,80.549 630.176,110.43 630.991,116.463C631.741,122.006 643.665,136.444 641.107,148.44C640.19,152.737 644.65,156.603 642.164,166.42C640.572,172.706 644.773,175.331 640.206,192.417C638.217,199.856 640.901,200.161 638.863,207.575C638.482,208.962 638.058,208.765 630.735,223.61C620.244,244.878 610.715,246.504 614.806,249.056C618.938,251.633 633.421,256.574 629.055,262.158C627.113,264.643 610.93,254.156 609.357,258.411C608.098,261.814 622.509,271.958 601.562,278.662C592.417,281.588 587.966,268.237 583.426,270.319C572.175,275.479 574.063,277.836 574.034,285.5C573.964,304.266 570.78,307.278 563.835,317.756C551.008,337.107 538.522,336.426 548.221,346.751C554.936,353.901 567.08,375.89 565.615,382.529C563.239,393.299 567.256,393.933 565.703,408.531C565.299,412.326 567.608,410.772 578.443,413.86C580.641,414.486 585.957,402.76 597.484,402.979C607.982,403.177 603.103,424.023 613.302,416.23C624.236,407.875 617.881,400.043 623.557,401.325C624.582,401.556 635.424,412.874 617.768,425.778C614.062,428.486 622.737,431.529 627.148,436.78C636.915,448.405 638.832,446.885 645.979,460.214C646.035,460.318 649.074,463.277 652.228,470.615C653.674,473.98 651.795,474.3 653.314,477.575C659.169,490.206 662.472,494.974 660.144,504.423C658.273,512.016 663.58,512.405 660.338,520.433C659.944,521.409 662.31,521.798 658.207,533.416C656.958,536.953 660.449,538.179 654.814,544.754C649.718,550.699 657.459,553.295 649.693,567.604C642.76,580.379 646.053,582.367 635.738,592.738C617.274,611.305 596.004,624.772 593.546,624.932C588.159,625.283 588.686,626.793 583.56,628.64C580.334,629.802 576.991,627.164 565.562,630.662C563.231,631.375 559.096,629.681 547.583,632.782C543.409,633.906 537.395,634.017 536.503,634.033C535.46,634.052 535.566,633.071 523.5,633.034C514.397,633.007 514.638,631.44 505.514,631.024C500.68,630.804 501.519,627.827 480.579,623.002C478.108,622.432 458.26,610.762 457.739,610.25C447.377,600.064 446.727,600.875 436.301,590.699C428.389,582.979 427.147,587.825 427.278,588.555C427.663,590.703 436.091,601.127 436.93,602.165C446.287,613.737 452.982,625.654 439.673,648.609C438.913,649.92 426.452,660.892 415.579,658.163C414.554,657.905 414.558,659.043 402.424,656.864C400.581,656.533 379.463,643.794 394.208,633.09C406.903,623.874 417.536,634.987 413.709,643.596C410.458,650.911 415.227,650.288 420.428,649.117C426.594,647.729 429.744,648.514 434.675,640.603C435.099,639.922 440.591,625.834 436.686,615.421C433.447,606.782 421.826,587.279 421.021,598.483C420.714,602.757 415.949,608.419 415.02,600.527C413.286,585.79 399.877,603.636 393.746,593.343C393.643,593.17 388.75,587.954 391.137,579.424C392.957,572.92 399.448,574.017 395.849,568.247C386.833,553.792 388.881,552.989 384.267,536.579C384.134,536.108 380.953,519.523 381.114,518.437C381.68,514.599 385.561,515.109 385.924,519.458C386.423,525.458 395.449,556.944 407.762,570.255C408.751,571.324 423.975,587.781 423.446,579.506C423.237,576.238 396.433,546.77 394.005,531.543C393.489,528.304 389.042,522.961 388.931,517.484C388.77,509.577 386.31,510.23 384.68,502.43C382.317,491.119 381.93,490.867 380.959,490.874C379.378,490.887 380.423,496.972 380.513,497.495ZM438.966,478.5C438.678,474.79 440.01,473.813 436.559,472.391C420.947,465.96 421.449,462.458 409.789,455.011C405.408,452.213 399.986,441.439 401.868,449.449C404.375,460.119 417.224,470.659 419.225,472.742C422.321,475.967 419.945,478.948 424.5,478.973C434.834,479.032 443.143,504.605 432.211,512.064C423.599,517.94 441.979,520.5 464.421,527.755C469.689,529.458 470.409,513.432 462.569,510.336C460.621,509.566 446.597,504.028 441.842,494.346C438.193,486.916 438.996,486.696 438.966,478.5ZM281.966,542.5C282.546,534.273 286.128,534.31 283.383,526.548C282.062,522.814 284.254,521.181 283.982,515.447C283.504,505.368 280.841,517.044 277.649,527.561C274.433,538.161 273.497,537.728 271.224,544.41C263.827,566.164 249.309,568.686 255.785,573.074C273.547,585.111 256.374,603.165 245.45,599.632C237.466,597.05 243.665,606.734 241.214,609.216C238.765,611.697 233.703,605.441 233.153,604.948C227.04,599.467 224.153,619.687 225.321,622.59C226.689,625.988 251.755,618.973 259.089,608.208C266.694,597.046 269.956,598.319 271.076,585.435C271.189,584.142 281.164,573.91 281.966,542.5ZM478.966,494.5C479.424,489.412 478.821,489.054 482.271,485.284C484.585,482.755 478.787,481.507 479.087,478.449C479.203,477.267 479.292,476.361 493.53,474.989C511.898,473.219 493.919,462.722 496.487,457.492C497.015,456.417 500.061,452.83 508.38,466.578C511.14,471.14 520.001,462.691 532.603,455.668C538.569,452.343 560.649,423.176 549.488,422.974C535.195,422.714 535.279,423.467 521.418,427.163C499.547,432.995 490.646,450.717 487.235,454.254C485.825,455.716 473.492,468.503 475.143,476.577C477.28,487.028 473.522,486.957 474.079,497.561C474.103,498.022 478.256,503.676 478.966,494.5ZM299.032,366.5C299.033,371.459 299.039,421.35 300.641,428.465C300.747,428.937 297.166,456.705 299.782,466.417C300.304,468.355 299.073,468.371 299.034,491.5C299.023,498.271 298.947,498.228 296.494,504.498C296.084,505.547 297.942,505.444 297.965,518.5C297.971,521.537 298.021,549.09 296.164,556.42C295.43,559.32 297.218,566.311 295.164,574.42C294.645,576.471 296.078,577.863 294.164,585.42C293.248,589.037 295.389,601.913 293.184,612.418C291.866,618.698 297.789,619.107 297.921,615.561C298.462,601.094 303.045,572.761 301.893,567.438C300.353,560.321 302.896,558.762 302.965,553.503C303.044,547.429 302.355,547.425 303.836,541.58C305.996,533.052 299.137,532.044 305.659,516.567C306.432,514.733 303.311,487.548 305.836,477.58C307.475,471.109 305.316,449.941 305.072,447.55C304.522,442.156 307.662,439.656 305.218,430.583C304.493,427.89 306.062,418.428 304.218,411.583C302.863,406.552 303.578,406.546 304.836,401.58C305.446,399.17 301.221,343.295 302.986,304.523C303.196,299.903 304.356,299.981 303.197,295.583C302.374,292.458 303.712,292.333 302.197,286.583C300.589,280.48 305.795,275.017 303.218,265.583C303.119,265.219 302.538,227.368 303.326,225.428C305.201,220.81 305.687,220.461 302.995,216.214C301.803,214.334 301.159,191.553 302.816,183.582C303.274,181.378 301.073,181.518 301.035,155.5C301.029,151.856 300.119,152.069 300.056,148.534C299.839,136.421 300.765,131.325 299.218,125.583C298.69,123.624 298.08,110.808 298.018,109.521C298.004,109.21 296.069,102.001 296.06,101.538C296.032,100.149 295.73,85.223 293.581,84.345C287.262,81.767 292.884,92.411 292.965,115.5C292.977,118.856 294.112,119.989 294.12,130.523C294.131,145.321 295.944,146.993 295.965,149.498C296.113,167.606 295.845,167.499 297.725,185.487C298.108,189.148 297.034,189.104 297.034,231.5C297.034,241.992 296.599,242.023 297.782,246.417C298.345,248.507 296.815,248.581 298.859,273.459C299.512,281.403 296.433,282.423 298.803,291.417C299.689,294.781 298.556,294.822 299.03,304.497C299.096,305.848 295.842,315.764 297.228,319.584C299.346,325.422 299.032,325.452 299.032,366.5ZM482.5,233.966C493.702,234.07 493.719,233.459 504.584,236.24C520.148,240.222 534.466,257.439 536.011,265.556C536.168,266.378 537.359,272.637 545.583,269.794C552.894,267.267 552.833,267.064 560.519,266.956C571.536,266.802 558.731,247.457 558.298,246.603C553.237,236.627 555.113,233.905 532.396,221.682C521.276,215.698 522.697,212.958 510.417,209.803C505.592,208.563 504.231,206.71 498.15,214.226C496.734,215.977 488.524,226.126 473.556,227.913C463.347,229.132 472.046,234.958 474.507,235.013C478.563,235.104 478.371,234.089 482.5,233.966ZM379.303,207.836C377.889,208.596 377.897,208.468 377.889,208.596C377.379,216.922 376.999,216.801 376.979,217.518C376.558,232.534 377.017,232.406 375.985,247.521C375.515,254.399 378.615,258.857 376.205,267.417C375.113,271.294 377.503,276.165 376.787,279.578C375.422,286.084 377.865,286.111 376.833,292.576C373.971,310.496 373.649,439.043 375.164,444.58C377.787,454.167 373.543,455.578 375.18,461.576C381.333,484.124 378.834,484.612 379.85,486.355C382.873,491.539 380.378,484.024 383.55,477.523C384.778,475.006 378.013,465.574 380.117,457.43C382.021,450.063 380.178,450.094 380.06,445.538C379.415,420.638 379.035,420.665 379.035,418.5C379.032,387.683 379.01,383.15 379.324,382.425C382.192,375.814 378.677,375.419 380.317,368.434C381.506,363.373 378.806,363.291 380.319,358.433C381.859,353.487 382.3,353.38 380.313,348.582C377.485,341.755 379.895,339.961 379.946,337.532C380.495,311.625 381.437,311.597 380.857,309.423C377.963,298.597 381.965,291.493 380.123,280.569C379.419,276.399 381.577,272.409 380.887,269.434C380.274,266.792 380.139,266.213 380.988,235.527C381.004,234.979 381.932,232.596 381.95,231.528C382.22,215.234 385.564,213.846 379.303,207.836ZM430.966,402.5C430.787,398.819 430.627,398.942 429.884,395.343C429.315,392.589 426.478,397.076 426.303,397.354C423.094,402.431 422.87,395.122 412.22,387.927C406.237,383.884 401.632,384.938 404.313,391.575C411.42,409.169 417.291,413.586 421.056,418.79C427.393,427.55 445.57,430.289 441.691,442.573C437.201,456.793 435.601,455.973 432.433,458.435C430.328,460.072 437.887,467.896 443.415,461.433C451.385,452.115 451.12,451.557 465.412,445.311C477.166,440.174 483.464,446.729 486.234,444.21C490.121,440.675 484.498,442.988 479.453,441.641C459.638,436.351 456.268,434.648 454.39,433.699C438.481,425.657 431.469,409.196 430.966,402.5ZM424.5,313.034C421.032,312.968 416.351,314.082 411.264,309.77C408.862,307.734 406.88,309.376 406.592,309.615C399.043,315.872 410.805,317.846 416.396,320.703C424.062,324.621 420.885,331.259 429.522,329.983C439.383,328.526 439.963,336.946 438.536,340.516C435.466,348.198 427.824,341.19 426.997,346.545C425.543,355.961 420.626,357.297 412.847,364.825C409.05,368.5 414.179,367.435 418.424,368.714C434.968,373.698 423.881,382.557 427.716,385.292C430.957,387.603 429.498,383.997 430.219,375.427C430.865,367.745 443.921,346.978 452.223,341.099C463.533,333.089 447.735,334.034 436.94,317.223C433.015,311.11 431.73,312.588 424.5,313.034ZM573.966,184.5C573.455,160.585 565.225,158.501 562.908,155.209C561.868,153.73 559.729,150.691 543.353,143.869C530.106,138.35 501.243,138.651 491.801,144.986C481.755,151.726 480.876,150.504 480.417,151.446C478.9,154.561 485.106,155.707 486.582,156.313C502.421,162.807 503.361,188.246 502.677,189.64C500.306,194.474 499.932,183.763 495.113,176.786C487.681,166.026 488.634,164.631 476.577,159.291C471.436,157.014 465.128,172.09 465.279,173.528C465.493,175.568 471.957,176.087 472.575,176.137C476.58,176.458 485.136,184.854 481.029,191.218C471.519,205.953 465.935,179.718 460.906,185.833C459.332,187.748 459.949,194.748 460.017,195.523C461.193,208.867 474.754,191.059 504.418,200.752C513.229,203.632 506.88,190.376 516.628,180.628C527.376,169.881 540.618,179.481 541.555,181.472C548.518,196.271 537.245,200.71 535.637,201.724C530.501,204.961 539.934,211.814 543.614,213.009C546.31,213.884 573.162,209.78 573.966,184.5ZM364.966,132.5C365.238,121.234 366.099,121.453 366.09,120.488C365.759,86.188 367.063,83.312 363.457,82.998C354.191,82.191 357.393,94.378 356.951,127.526C356.915,130.204 352.6,137.479 353.845,139.258C359.312,147.066 355.49,147.988 356.107,157.562C356.607,165.318 355.302,202.417 355.813,204.42C356.145,205.721 355.959,235.121 355.859,235.572C353.677,245.365 355.718,265.037 354.806,268.582C352.79,276.421 356.957,289.207 354.164,299.42C353.468,301.964 355.101,304.427 354.618,306.532C353.158,312.891 354.445,321.106 353.662,323.562C351.559,330.156 355.116,333.629 353.782,338.583C353.553,339.434 352.028,345.095 353.164,349.58C356.277,361.87 351.556,369.176 352.501,371.5C355.88,379.805 353.155,391.595 354.164,395.58C354.498,396.899 356.695,405.572 354.739,412.581C353.112,418.412 356.936,418.539 355.227,424.417C353.961,428.771 357.011,429.537 357.034,446.5C357.064,467.788 358.263,467.799 357.782,469.583C355.733,477.186 360.127,478.158 357.142,489.424C356.98,490.037 356.945,534.716 357.164,535.58C360.306,547.985 355.172,549.601 357.754,558.419C358.478,560.893 356.249,564.966 357.164,568.58C358.406,573.482 358.333,584.297 359.164,587.58C360.979,594.745 359.69,603.725 360.09,614.566C360.201,617.588 367.054,618.648 367.033,613.496C366.859,572.45 366.875,572.575 366.836,572.42C364.823,564.473 366.544,555.217 365.836,552.42C363.613,543.644 365.718,532.947 365.775,532.5C365.809,532.227 365.007,529.753 364.97,528.493C364.456,510.807 366.204,510.905 365.837,509.422C364.619,504.499 366.397,504.387 365.141,499.591C362.789,490.615 364.481,466.88 362.817,460.418C362.498,459.179 360.335,450.781 362.309,444.427C365.209,435.089 361.567,428.017 362.382,424.468C364.546,415.044 361.298,376.833 362.218,373.417C364.349,365.504 360.094,365.302 362.218,357.417C364.647,348.399 361.864,347.682 361.967,343.497C362.205,333.797 361.815,301.335 362.197,299.417C364.608,287.316 362.057,274.037 363.166,269.422C364.477,263.969 362.858,264.001 363.035,258.501C363.105,256.327 362.857,225.757 363.218,224.417C364.143,220.987 363.12,221.021 362.986,217.474C362.458,203.468 361.904,203.581 362.218,202.417C363.672,197.018 362.919,191.751 363.338,190.438C364.783,185.907 363.644,173.547 364.218,171.417C365.644,166.125 363.849,166.163 363.968,161.496C364.645,134.786 364.923,134.821 364.966,132.5ZM541.5,281.034C530.146,281.915 538.077,290.051 530.247,298.26C511.881,317.516 497.578,308.922 494.401,307.832C488.172,305.694 480.085,296.117 479.986,292.474C479.389,270.497 509.085,275.069 510.027,291.511C510.896,306.692 534.697,283.836 522.575,279.32C514.935,276.474 514.797,277.154 507.353,273.846C493.431,267.66 492.065,270.108 480.103,259.917C465.437,247.422 465.631,243.237 459.714,246.847C437.793,260.221 439.949,265.604 439.332,267.431C435.017,280.217 433.822,280.027 434.054,293.532C434.217,303.066 443.999,292.575 444.5,292.568C451.032,292.488 438.909,306.208 439.491,308.503C442.128,318.905 462.181,330.564 462.814,331.042C466.363,333.722 466.491,331.336 470.443,329.39C482.818,323.295 494.352,325.135 495.582,324.816C500.03,323.661 499.974,324.815 504.506,325.031C513.535,325.462 522.811,330.058 518.196,316.581C517.489,314.516 519.392,309.884 523.561,308.992C542.719,304.894 528.083,327.608 531.778,331.218C541.875,341.081 556.872,314.535 558.15,312.273C560.351,308.376 569.002,285.876 569.013,285.472C569.517,267.746 559.226,280.576 541.5,281.034ZM421.456,516.657C420.548,517.291 420.536,517.308 420.56,518.484C437.123,543.338 464.418,550.888 469.086,557.784C479.194,572.712 479.131,574.782 478.954,590.522C478.903,595.008 472.849,599.509 470.646,603.568C468.926,606.739 471.718,606.512 511.419,619.73C520.655,622.805 521.107,617.666 530.583,620.218C543.404,623.671 568.055,616.239 572.537,613.563C580.752,608.659 581.655,611.229 590.427,607.342C614.032,596.879 614.966,588.652 617.76,585.74C628.176,574.886 625.377,573.231 631.991,559.761C632.558,558.606 636.556,550.462 637.021,544.481C637.599,537.054 640.896,533.695 641.016,530.475C641.396,520.275 642.028,520.355 641.949,519.475C640.55,503.788 640.031,503.859 639.972,502.492C639.284,486.58 639.716,486.236 630.002,466.751C625.433,457.585 610.725,441.086 605.436,439.984C600.769,439.011 587.22,426.592 564.486,424.254C561.33,423.929 555.994,444.788 551.227,448.131C540.641,455.554 543.089,458.908 516.444,473.402C508.733,477.596 509.299,478.773 508.913,487.557C508.805,490.027 504.349,498.085 502.498,496.502C499.533,493.967 512.133,472.853 493.395,482.324C490.137,483.971 499.883,496.345 486.229,505.106C477.733,510.558 472.269,508.752 475.228,517.584C482.002,537.81 497.011,497.654 497.334,509.51C497.523,516.455 485.393,524.957 483.68,526.673C475.832,534.536 487.942,540.69 513.405,554.673C518.173,557.292 518.934,554.422 521.443,554.083C527.415,553.275 528.598,561.141 552.409,550.306C569.828,542.379 581.234,540.007 583.06,510.462C583.417,504.683 584.771,504.674 582.876,494.425C580.617,482.207 564.855,475.121 562.472,474.987C549.422,474.255 535.811,470.18 524.645,481.652C513.847,492.745 518.018,497.046 518.004,498.525C517.972,502.094 513.046,504.317 524.521,515.478C532.308,523.053 541.879,521.313 535.848,512.243C525.933,497.33 531.056,482.698 546.339,491.742C551.682,494.904 552.902,507.442 551.76,511.583C548.119,524.782 545.333,530.287 530.42,525.845C514.734,521.172 514.923,514.995 511.238,502.587C510.898,501.442 508.592,493.676 512.828,487.742C527.064,467.802 530.953,466.748 557.522,467.046C562.031,467.097 561.698,468.835 567.526,469.049C574.205,469.294 585.763,487.48 587.78,490.259C591.988,496.057 591,486.374 604.426,480.318C607.374,478.988 613.333,480.631 612.617,483.544C612.179,485.327 587.65,494.147 604.561,500.354C613.351,503.58 613.085,515.541 611.399,519.451C606.562,530.664 596.356,528.885 591.493,528.89C587.231,528.895 586.693,534.711 585.219,536.26C568.7,553.619 568.933,555.223 535.588,564.784C522.603,568.507 519.621,565.106 517.488,564.974C497.124,563.718 478.895,534.643 471.531,535.656C465.245,536.522 465.807,533.187 459.479,532.982C441.107,532.386 433.398,525.25 421.456,516.657ZM516.966,393.5C516.889,392.181 516.226,380.746 507.462,379.995C500.052,379.36 500.141,378.957 499.498,378.966C498.475,378.981 476.522,379.307 490.273,387.821C506.987,398.169 490.089,412.375 483.482,409.542C465.62,401.883 468.547,394.665 470.684,388.576C481.891,356.648 511.227,371.51 523.257,383.721C535.523,396.171 512.54,422.586 527.58,417.73C541.687,413.177 543.084,414.073 550.528,413.95C558.406,413.819 557.136,405.796 557.24,405.417C560.118,394.959 558.09,394.847 557.986,392.474C557.137,373.129 552.546,373.885 545.608,356.454C542.543,348.754 529.69,337.133 525.463,336.97C517.346,336.658 525.768,341.813 532.06,351.776C542.315,368.014 518.864,381.31 513.195,359.578C511.716,353.911 521.459,356.292 521.314,352.516C520.942,342.834 506.425,347.854 502.431,346.704C497.624,345.32 496.279,347.836 494.492,347.605C490,347.024 490.107,347.049 485.47,346.948C476.809,346.758 467.287,337.496 461.746,342.777C449.818,354.145 437.98,361.01 438.034,389.5C438.111,429.707 464.763,429.173 477.549,433.38C487.328,436.597 493.661,429.523 496.413,428.309C500.668,426.432 499.988,425.606 503.813,422.935C522.322,410.011 517.68,405.056 516.966,393.5ZM624.966,170.5C624.964,150.319 624.059,147.383 609.939,120.255C605.739,112.184 605.545,112.425 599.211,105.754C588.366,94.333 589.125,93.816 588.098,92.927C575.442,81.971 556.976,78.395 556.58,78.27C555.817,78.028 523.597,74.114 519.421,75.163C512.956,76.786 512.816,73.544 506.42,75.164C505.087,75.502 497.455,77.435 489.47,78.011C483.189,78.464 483.433,79.231 477.428,81.325C475.097,82.138 453.18,89.781 449.548,94.535C445.265,100.141 455.967,99.521 455.965,119.5C455.963,144.802 446.304,140.707 437.834,152.761C433.906,158.353 432.62,157.133 428.972,162.784C423.075,171.916 437.198,160.341 437.771,159.871C450.984,149.041 461.557,155.637 470.258,147.238C484.801,133.2 486.899,136.564 500.404,130.302C506.902,127.29 524.899,127.828 526.562,128.338C540.294,132.554 540.875,129.861 545.322,131.904C563.058,140.053 569.231,156.255 577.571,153.692C590.819,149.62 600.867,160.787 601.863,165.425C603.549,173.272 603.147,173.647 597.973,179.9C592.05,187.057 606.843,186.717 607.656,189.429C609.94,197.054 590.866,189.995 589.504,189.491C583.511,187.273 583.921,190.319 582.162,196.416C576.406,216.379 560.314,220.343 553.327,223.109C548.938,224.846 555.881,227.142 562.247,233.739C565.358,236.965 572.62,252.926 572.883,254.428C574.035,260.992 576.875,260.225 582.232,256.144C609.824,235.126 612.875,220.248 614.694,215.588C616.038,212.141 624.316,190.921 624.966,170.5ZM381.246,178.155C381.29,177.941 381.688,176.019 381.709,175.463C382.055,166.083 383.728,166.249 384.01,162.483C384.977,149.574 395.738,125.963 395.838,125.576C396.473,123.107 380.111,102.793 407.561,99.921C412.644,99.389 406.51,82.631 415.896,90.034C421.676,94.593 422.021,90.308 424.509,83.504C424.721,82.924 427.454,75.45 422.464,76.064C413.139,77.211 400.888,85.846 399.207,87.031C397.693,88.098 392.11,92.033 388.244,107.417C386.012,116.302 383.196,115.375 382.974,121.512C382.597,131.935 381.049,135.909 380.979,137.518C380.367,151.508 379.023,151.291 379.034,152.499C379.246,175.144 375.229,183.199 381.246,178.155ZM389.832,288.008C394.644,283.136 393.048,280.425 394.282,276.421C402.892,248.465 413.368,235.77 415.848,232.766C424.678,222.065 423.474,221.128 433.369,211.389C436.818,207.994 436.708,199.297 437.416,197.466C443.044,182.89 451.152,182.441 452.817,176.585C455.285,167.904 463.794,154.914 454.484,158.46C434.232,166.175 435.746,170.824 436.316,172.574C438.374,178.895 437.407,178.962 436.936,185.543C436.579,190.537 422.643,214.345 422.019,215.022C417.758,219.637 418.858,220.303 415.111,225.222C402.904,241.243 400.52,251.897 396.056,258.215C387.579,270.214 389.421,287.087 389.832,288.008ZM261.501,110.967C269.501,111.976 272.994,117.2 271.729,112.484C269.497,104.166 267.924,104.78 265.998,96.421C263.402,85.157 258.795,89.272 224.555,76.364C213.28,72.113 235.359,102.229 238.335,107.59C242.414,114.937 244.728,105.572 245.304,104.402C247.851,99.229 252.864,99.947 251.198,105.405C248.219,115.164 259.683,111.115 261.501,110.967ZM278.968,201.5C278.881,196.837 279.456,196.877 278.218,192.583C277.953,191.666 277.901,184.677 277.836,184.42C275.215,174.071 280.457,173.769 277.836,163.42C275.09,152.579 276.953,136.965 274.205,125.583C271.678,115.123 271.887,132.59 261.421,135.002C255.623,136.338 256.916,138.335 258.654,142.431C263.007,152.686 261.301,153.194 265.533,163.486C268.309,170.234 267.756,170.325 269.74,177.417C272.108,185.882 270.844,186.074 273.002,194.568C276.177,207.059 275.129,207.367 275.814,208.25C278.796,212.091 278.958,202.096 278.968,201.5ZM487.5,241.034C480.001,240.62 480.144,240.054 479.5,240.055C464.673,240.073 499.39,260.289 500.752,261.166C512.368,268.643 513.218,266.536 518.548,268.382C535.41,274.223 520.727,254.962 518.015,250.802C514.554,245.491 491.774,241.17 487.5,241.034ZM234.5,632.034C223.969,632.65 225.921,639.301 234.789,645.026C246.639,652.675 247.772,649.191 251.583,650.218C262.596,653.187 253.534,643.262 257.922,636.774C264.554,626.97 250.655,632.151 234.5,632.034ZM471.5,452.034C468.921,452.103 460.866,449.505 451.814,461.749C447.734,467.268 446.618,470.728 453.518,471.021C464.857,471.502 464.557,473.085 465.532,473.075C467.235,473.057 468.663,473.042 477.668,455.575C479.419,452.177 472.069,452.045 471.5,452.034ZM390.033,244.476C390.016,244.558 385.184,255.91 388.561,258.418C392.598,261.416 397.373,225.095 413.327,194.414C416.319,188.66 423.244,169.794 415.112,181.217C403.502,197.525 390.234,243.031 390.033,244.476ZM429.966,276.5C430.062,275.855 431.073,269.067 430.968,268.408C429.978,262.232 420.314,278.92 418.228,281.258C410.868,289.509 411.949,290.255 404.781,298.734C401.155,303.022 413.813,303.387 413.891,299.551C414.16,286.429 423.222,297.367 427.579,295.656C429.776,294.793 429.95,278.044 429.966,276.5ZM463.966,496.5C464.75,486.918 470.231,478.683 456.482,477.979C451.895,477.744 452.163,476.81 447.564,476.118C442.294,475.324 446.529,485.665 446.719,486.421C447.117,488.003 449.008,495.526 459.778,502.094C465.374,505.507 464.245,499.451 463.966,496.5ZM384.966,197.5C385.491,188.23 387.813,182.165 388.017,180.472C390.396,160.743 393.582,158.674 398.31,146.416C403.041,134.148 415.018,119.15 410.465,121.054C408.56,121.85 400.65,133.615 399.876,134.765C398.12,137.378 387.184,153.642 385.867,171.54C385.554,175.805 383.43,175.163 383.113,179.527C382.663,185.721 381.834,185.481 380.99,191.534C380.205,197.171 376.542,206.527 381.523,204.557C385.699,202.906 384.905,201.94 384.966,197.5ZM443.963,239.498C443.59,247.249 432.856,259.203 438.525,255.543C439.332,255.022 438.274,254.032 446.741,246.781C451.725,242.512 464.413,243.317 457.67,231.405C454.453,225.723 451.736,227.231 446.427,224.647C439.283,221.169 439.036,219.946 437.488,221.488C435.299,223.667 443.464,233.073 443.963,239.498ZM477.5,206.034C471.89,206.213 472.031,206.885 466.472,207.05C459.761,207.25 461.183,210.258 463.333,216.569C468.086,230.517 491.99,214.682 490.926,208.418C490.508,205.958 478.591,206.028 477.5,206.034ZM415.5,66.966C423.936,66.84 424.959,68.64 426.525,65.516C427.167,64.235 425.196,59.8 424.989,59.335C419.383,46.728 408.749,49.483 408.864,52.473C409.139,59.668 408.561,59.639 404.896,64.732C402.666,67.831 412.153,67.118 415.5,66.966ZM398.495,333.037C387.726,334.665 391.84,354.424 398.265,349.216C398.831,348.757 412.219,341.566 404.26,334.781C401.872,332.746 401.621,333.439 398.495,333.037ZM494.5,333.032C491.566,333.177 454.74,337.331 486.49,341.616C490.364,342.138 489.722,337.939 494.428,337.117C495.814,336.875 501.629,336.22 501.569,334.495C501.52,333.11 495.077,333.039 494.5,333.032ZM449.966,196.5C451.106,177.754 443.867,199.048 443.687,199.577C443.503,200.117 440.646,208.521 447.536,205.571C449.891,204.562 449.959,197.251 449.966,196.5ZM391.048,299.5C390.09,279.573 385.591,307.263 388.714,309.213C392.999,311.889 391.059,299.792 391.048,299.5ZM452.958,216.496C452.86,216.119 451.941,212.587 449.408,213.168C445.242,214.124 451.503,222.938 452.958,216.496ZM276.033,283.5C276.345,295.604 276.965,295.47 276.965,307.5C276.966,313.59 276.208,313.573 277.782,319.417C279.888,327.236 276.652,327.508 278.782,335.417C279.116,336.658 278.72,336.565 279.796,351.455C280.394,359.721 277.263,362.065 279.782,371.417C282.158,380.238 277.39,380.537 279.782,389.417C280.18,390.895 279.8,411.478 280.033,420.498C280.06,421.539 279.372,421.458 279.014,433.474C278.998,434.014 278.065,436.414 278.05,437.472C277.691,462.592 275.315,480.875 274.164,485.42C273.925,486.363 274.76,486.461 272.206,497.416C269.622,508.502 259.609,535.212 258.393,538.456C253.808,550.687 220.642,600.727 197.232,615.107C179.308,626.116 179.324,626.168 177.578,626.698C170.601,628.816 170.821,629.542 163.534,629.992C163.078,630.021 154.806,633.449 145.559,632.102C141.096,631.452 139.387,634.532 132.567,632.329C132.479,632.301 119.255,632.346 110.416,629.782C96.032,625.609 96.134,625.62 82.411,619.693C81.331,619.226 58.564,603.629 49.877,592.219C48.563,590.494 30.154,569.901 26.117,545.57C25.636,542.668 27.749,538.758 26.836,535.42C25.47,530.428 25.043,509.03 28.352,501.437C31.579,494.031 32.258,494.312 33.117,488.43C34.445,479.337 52.746,460.282 52.811,459.539C53.127,455.909 37.852,455.049 37.971,438.508C37.992,435.508 41.026,432.82 43.296,437.604C50.442,452.662 58.634,448.953 58.02,442.53C57.555,437.677 55.495,434.761 66.465,430.415C74.581,427.201 84.623,445.581 85.922,436.565C86.66,431.443 72.831,415.393 76.836,399.58C77.935,395.241 74.499,394.629 79.693,381.588C81.095,378.069 81.016,373.869 86.989,364.785C93.179,355.37 97.958,348.83 93.451,349.229C92.135,349.345 90.054,366.218 73.961,353.115C70.307,350.14 79.329,343.414 83.47,343.788C86.502,344.062 88.447,343.893 86.671,341.403C81.252,333.805 69.886,322.459 69.968,293.505C69.969,293.138 74.413,274.269 76.301,270.402C80.317,262.174 80.272,262.193 86.16,255.239C90.408,250.223 77.478,245.889 76.351,249.42C70.541,267.615 54.758,263.009 54.031,248.506C53.957,247.027 49.125,236.453 43.107,249.332C39.59,256.86 35.622,243.262 44.751,236.805C51.853,231.782 55.317,231.954 52.241,228.737C44.214,220.343 41.149,220.749 34.607,203.456C29.392,189.673 25.82,190.125 27.893,175.567C30.999,153.762 25.814,152.564 38.305,123.409C41.109,116.863 40.493,116.534 45.182,111.248C46.154,110.152 45.801,103.285 47.783,101.776C55.877,95.617 63.574,83.987 70.748,78.806C81.256,71.217 82.452,73.455 93.391,66.326C94.858,65.371 95.177,66.313 114.438,60.338C120.117,58.577 127.181,62.975 137.417,60.218C142.392,58.878 151.11,62.921 151.452,62.931C158.701,63.152 158.754,62.821 165.445,65.633C171.208,68.055 172.082,65.923 192.348,76.764C213.442,88.048 210.348,92.082 217.784,97.026C229.491,104.81 227.037,107.453 242.094,128.8C251.013,141.446 257.301,163.424 258.205,166.583C259.754,171.999 266.487,201.424 266.923,205.482C267.682,212.533 268.57,212.3 268.993,219.467C269.023,219.979 269.922,222.336 269.938,223.475C269.975,226.15 269.953,228.825 269.963,231.5C270.008,244.084 271.921,243.895 271.965,256.5C271.989,263.146 275.567,276.537 276.033,283.5ZM193.966,511.5C193.957,499.873 194.247,496.595 191.196,487.586C187.834,477.656 173.268,489.599 160.579,486.162C156.813,485.143 152.778,489.529 154.885,492.228C163.114,502.766 161.825,506.135 165.524,509.474C169.109,512.711 181.272,519.779 181.392,519.826C190.913,523.54 193.828,521.701 193.966,511.5ZM253.772,426.835C252.911,428.823 249.759,436.104 240.068,450.193C229.706,465.256 212.902,470.945 210.74,472.772C199.149,482.569 199.125,483.161 199.072,484.483C199.036,485.369 199.857,485.194 200.05,495.528C200.07,496.609 200.995,498.974 201.014,499.526C201.066,501.097 201.012,519.938 204.441,520.703C208.177,521.535 208.671,518.324 218.581,514.709C225.49,512.188 229.657,508.359 222.543,506.394C203.811,501.218 212.088,480.463 223.397,474.33C234.777,468.159 245.611,452.564 247.381,449.431C248.321,447.767 257.461,431.59 255.036,426.805C254.724,426.188 254.565,426.192 254.5,426.193C253.935,426.207 254.409,426.82 253.772,426.835ZM132.5,444.034C118.013,443.331 117.488,439.13 104.35,445.157C100.329,447.001 102.948,454.078 104.694,455.153C112.458,459.929 111.263,461.581 119.405,465.684C137.517,474.812 149.579,483.709 150.046,465.478C150.19,459.87 158.265,454.27 156.654,450.419C156.201,449.337 140.94,444.303 132.5,444.034ZM153.034,177.5C153.025,189.253 154.359,190.248 143.945,202.861C136.872,211.427 147.374,207.747 166.497,208.033C174.209,208.149 165.2,199.598 173.772,193.87C178.013,191.035 184.606,190.639 184.025,183.514C183.368,175.445 186.642,175.544 185.009,167.538C183.737,161.303 182.152,161.851 181.013,155.552C180.019,150.058 169.003,156.969 159.414,160.248C150.544,163.281 150.904,166.582 151,167.463C151.562,172.621 152.687,172.327 153.034,177.5ZM120.966,178.5C121.097,175.578 120.501,175.572 121.858,170.581C127.368,150.313 144.176,163.743 146.024,153.446C146.247,152.199 147.761,143.764 160.583,147.218C165.524,148.549 165.528,147.675 170.534,146.984C186.938,144.719 158.997,126.658 153.471,125.978C143.483,124.75 133.957,118.182 110.456,126.395C92.492,132.673 84.908,163.919 86.164,171.58C88.43,185.406 87.319,189.701 98.782,199.154C116.418,213.699 128.689,195.919 126.416,191.541C123.051,185.058 121.268,185.701 120.966,178.5ZM97.541,243.577C108.495,242.455 112.137,250.36 137.419,243.261C141.904,242.001 142.116,243.011 146.263,241.032C150.842,238.847 153.773,238.344 150.249,234.739C144.024,228.373 145.042,227.551 138.261,221.775C134.437,218.518 112.593,230.447 101.246,240.227C99.791,241.481 99.688,241.141 97.748,241.294C96.908,239.629 96.59,239.773 96.781,238.523C98.217,229.123 104.823,230.692 110.219,227.073C129.467,214.162 129.865,214.722 131.251,213.262C132.533,211.911 132.15,208.606 127.395,211.317C120.614,215.186 120.198,213.438 112.462,212.94C89.905,211.49 80.375,185.019 77.56,184.335C74.987,183.71 75.62,185.235 73.107,189.223C67.281,198.468 54.806,192.521 55.076,188.457C55.212,186.419 78.551,185.872 64.794,177.007C49.633,167.237 58.054,150.564 61.776,147.895C70.795,141.429 81.498,149.938 85.197,143.325C90.648,133.585 94.196,132.57 105.627,121.628C117.201,110.548 122.269,115.194 131.58,112.836C154.383,107.061 178.122,130.773 181.978,136.134C190.821,148.43 198.329,146.822 207.438,156.562C236.079,187.188 238.733,212.457 241.393,219.544C253.415,251.57 251.982,251.979 253.31,254.63C256.201,260.402 256.774,252.751 252.712,240.42C248.525,227.707 250.099,227.504 249.73,226.42C245.37,213.585 246.369,213.408 242.212,200.593C232.487,170.607 226.454,162.848 219.208,157.911C176.155,128.578 193.235,103.148 196.682,95.574C199.268,89.891 176.395,83.653 163.55,78.387C151.759,73.553 139.864,73.902 139.417,73.782C132.947,72.039 127.586,73.333 125.429,72.854C121.003,71.869 121.035,72.842 116.474,73.014C93.807,73.869 87.408,79.717 75.746,87.814C60.554,98.364 56.482,112.209 54.815,114.743C44.797,129.963 46.478,130.694 44.676,135.573C41.251,144.852 42.251,145.012 39.27,154.42C38.008,158.4 39.864,158.57 38.782,162.583C37.097,168.836 40.289,168.991 38.782,174.583C36.963,181.333 40.765,185.297 41.011,189.53C41.62,200.016 42.069,200.132 54.834,218.244C61.366,227.511 73.053,234.619 73.39,234.765C94.903,244.042 95.515,243.934 97.541,243.577ZM207.033,314.5C205.451,338.132 193.438,341.006 198.718,346.283C206.725,354.284 207.025,354.087 211.695,364.409C211.932,364.932 214.456,370.512 216.568,369.688C222.306,367.448 222.512,368.048 227.562,364.605C229.112,363.548 241.217,365.51 234.145,356.781C230.695,352.522 230.432,352.746 228.75,347.414C226.739,341.045 207.773,338.603 224.641,329.756C232.964,325.391 231.119,323.489 237.219,316.257C242.205,310.346 235.073,302.781 229.011,312.21C225.124,318.256 206.347,319.653 213.218,311.264C216.83,306.853 210.424,297.666 223.544,292.606C237.004,287.415 201.815,279.791 214.78,255.674C216.984,251.574 225.091,248.693 213.421,240.616C208.404,237.143 208.733,242.1 199.496,245.492C195.518,246.952 196.457,251.643 186.579,249.163C186.236,249.077 179.913,249.023 179.425,248.863C166.368,244.584 163.967,240.884 156.702,244.84C138.564,254.715 121.853,252.824 114.583,254.782C105.37,257.264 94.158,247.812 89.981,256.708C83.038,271.49 84.111,271.823 82.883,276.57C80.611,285.347 74.758,299.544 86.878,326.341C93.416,340.797 106.067,348.69 105.151,337.571C104.358,327.956 96.588,309.905 112.492,309.971C120.154,310.003 126.38,320.777 119.394,324.295C118.792,324.598 112.979,327.525 112.794,329.518C111.913,338.986 132.009,330.156 134.454,330.068C145.039,329.687 144.843,328.128 155.5,328.035C160.825,327.988 178.072,331.616 182.578,333.315C186.7,334.87 191.143,338.062 194.217,327.414C195.459,323.112 196.134,300.751 192.116,294.763C184.722,283.742 185.297,274.304 159.538,269.279C152.976,267.999 123.444,278.526 134.79,301.349C137.554,306.91 143.079,308.051 143.984,301.534C144.666,296.615 151.925,285.485 165.596,292.336C166.556,292.817 178.87,303.165 169.253,312.253C158.668,322.257 155.335,318.962 148.583,320.782C130.564,325.638 116.945,295.572 125.048,282.224C128.838,275.981 126.485,274.041 133.39,270.304C139.545,266.973 139.304,266.789 145.4,263.325C154.104,258.379 166.976,258.82 171.268,260.958C177.947,264.285 187.975,265.941 193.974,275.211C195.297,277.256 201.412,283.191 204.743,293.412C208.062,303.597 206.967,303.717 207.033,314.5ZM92.034,533.5C92.41,551.215 96.326,557.938 131.42,566.836C132.396,567.083 152.361,566.571 157.777,562.917C169.541,554.979 171.122,556.562 178.87,544.772C179,544.574 184.274,541.009 186.709,531.554C188.361,525.137 168.539,523.863 162.848,515.234C157.207,506.682 152.447,503.079 150.902,491.443C149.472,480.674 139.848,487.089 126.39,479.702C106.221,468.631 107.785,466.648 98.492,455.508C92.517,448.345 91.329,446.368 83.297,451.189C55.609,467.809 49.747,479.715 41.27,505.42C40.871,506.628 39.097,534.336 39.164,534.58C40.518,539.527 40.536,539.414 40.998,544.459C41.108,545.658 42.248,545.222 46.206,558.583C50.069,571.622 54.387,570.925 63.15,581.774C69.689,589.869 85.03,603.397 92.515,606.467C110.37,613.79 110.984,611.303 117.584,613.218C118.59,613.51 118.711,612.869 130.42,615.836C131.657,616.149 147.621,616.349 151.574,614.681C156.141,612.756 155.611,611.43 160.481,611.021C163.081,610.803 176.677,609.661 191.223,600.12C196.581,596.606 182.588,590.784 186.382,579.452C192.699,560.587 193.9,561.143 196.567,556.541C204.141,543.472 204.425,543.647 215.74,533.756C234.44,517.409 231.269,512.69 229.664,513.793C227.976,514.953 223.176,523.625 215.553,524.977C212.051,525.598 209.675,527.716 200.435,529.09C196.177,529.723 195.102,541.375 191.253,545.261C185.157,551.416 184.678,550.946 180.011,558.21C173.565,568.243 130.097,585.835 104.397,571.668C97.828,568.046 88.125,556.681 86.877,555.219C79.277,546.317 82.03,540.604 77.576,540.127C62.895,538.552 64.377,520.784 73.448,516.393C74.812,515.733 82.264,514.551 76.296,509.765C75.385,509.034 61.762,504.763 71.452,501.384C81.283,497.956 88.111,507.232 91.481,507.04C95.371,506.819 107.973,495.953 126.587,501.195C156.411,509.594 146.141,537.155 143.227,539.131C129.574,548.388 124.092,544.127 122.776,543.104C102.52,527.36 125.9,522.316 123.511,516.495C119.616,507 112.923,510.249 102.546,511.996C97.008,512.929 94.259,517.919 93.835,518.689C92.253,521.561 92.056,532.307 92.034,533.5ZM135.966,405.5C135.632,394.997 132.281,388.507 145.23,380.098C164.104,367.841 181.117,390.45 164.567,400.613C155.331,406.286 147.288,398.039 148.057,408.536C149.149,423.434 166.721,419.971 169.504,419.964C176.477,419.947 187.246,411.492 189.423,410.352C195.565,407.137 195.228,406.595 199.693,396.588C206.558,381.201 197.254,352.791 188.453,354.063C186.29,354.375 166.566,373.182 154.415,369.896C147.728,368.088 142.275,372.538 124.53,365.427C120.859,363.956 111.4,368.759 117.78,373.099C130.295,381.613 118.079,390.211 111.466,387.584C94.143,380.705 112.596,362.345 110.473,359.518C100.193,345.83 86.215,388.835 88.164,400.58C89.674,409.677 87.162,409.959 90.196,418.6C91.768,423.078 90.979,423.129 92.206,427.583C96.331,442.56 106.189,430.509 117.58,433.187C121.068,434.007 120.972,432.877 124.502,432.967C146.526,433.526 162.543,446.996 176.593,440.694C183.751,437.483 183.782,436.978 191.557,438.079C203.601,439.785 208.933,456.649 192.474,455.951C183.495,455.57 189.07,443.449 178.424,445.193C165.893,447.247 179.43,451.553 181.608,455.434C185.851,462.994 188.654,460.797 192.648,468.423C196.679,476.121 199.082,472.077 206.211,467.026C208.062,465.715 222.502,455.484 228.488,449.488C235.216,442.749 229.094,442 223.821,433.273C222.258,430.686 215.232,419.057 235.208,397.254C239.379,392.701 244.712,372.212 238.979,379.902C233.336,387.472 233.378,389.144 225.51,388.214C220.815,387.659 223.492,397.4 218.379,395.877C213.266,394.353 212.634,398.655 210.391,404.454C206.809,413.71 204.451,412.21 198.911,416.954C192.719,422.258 192.767,422.291 180.603,427.732C175.778,429.89 171.792,428.817 170.42,429.164C152.165,433.788 136.474,423.572 135.966,405.5ZM139.5,360.966C146.329,360.883 146.527,361.901 152.73,358.98C157.396,356.783 157.741,359.182 162.588,357.797C170.243,355.608 171.02,357.353 177.135,352.091C194.037,337.546 173.436,340.573 157.584,336.247C150.231,334.24 150.252,335.772 147.474,336.014C130.518,337.488 122.598,341.052 122.451,342.49C121.818,348.709 143.796,344.859 147.495,346.51C156.2,350.399 134.756,353.343 131.704,355.769C125.716,360.527 138.751,360.942 139.5,360.966ZM193.034,194.5C193.755,211.621 201.306,199.257 201.639,198.572C202.292,197.229 202.799,195.82 203.411,194.459C205.189,190.508 214.898,177.986 214.909,177.509C214.978,174.533 186.598,146.642 191.124,165.575C194.274,178.752 193.625,181.113 193.265,182.423C192.27,186.047 192.991,193.946 193.034,194.5ZM219.035,223.497C219.72,230.189 222.705,228.62 232.855,242.232C246.753,260.873 250.156,270.157 249.086,262.482C247.926,254.17 231.282,226.675 216.994,210.104C212.646,205.061 210.052,192.407 207.72,199.591C204.163,210.547 193.046,211.946 202.776,218.068C208.985,221.975 206.994,209.238 213.546,212.39C219.902,215.449 219.394,219.505 219.035,223.497ZM189.5,241.966C197.528,241.412 212.867,236.041 197.715,226.184C186.473,218.87 183.323,217.822 180.759,222.637C177.135,229.441 177.147,229.361 171.755,234.741C164.965,241.516 187.968,241.938 189.5,241.966ZM165.5,477.966C174.265,478.976 174.315,479.447 182.581,476.708C189.793,474.318 181.281,466.532 173.26,458.78C168.617,454.295 159.961,455.504 156.784,466.588C152.731,480.728 161.137,477.897 165.5,477.966ZM163.5,215.034C153.289,214.68 153.37,214.004 152.485,213.976C136.043,213.47 154.556,226.54 160.574,232.424C161.616,233.443 163.794,235.162 174.093,220.223C178.711,213.524 164.672,215.051 163.5,215.034ZM259.965,336.5C258.845,326.222 249.939,329.415 246.741,331.776C236.695,339.19 258.415,351.612 259.965,336.5ZM113.308,352.764C118.845,356.498 122.141,352.684 119.235,350.846C118.741,350.534 114.383,347.779 112.417,348.213C109.118,348.94 110.839,350.335 113.308,352.764ZM244.462,496.355C251.281,488.132 251.538,478.919 248.861,483.795C248.123,485.139 243.519,495.433 243.544,495.494C243.698,495.884 244.307,495.965 244.462,496.355ZM558.495,335.047C573.125,337.11 563.681,347.619 563.605,347.662C553.619,353.216 546.949,337.114 558.495,335.047ZM380.755,498.295C384.808,506.962 380.263,506.498 379.751,506.128C378.3,505.081 376.538,498.799 380.755,498.295Z"/>
        </g>
    </g>
</svg>
