<?xml version="1.0" encoding="UTF-8" standalone="no"?>
<!DOCTYPE svg PUBLIC "-//W3C//DTD SVG 1.1//EN" "http://www.w3.org/Graphics/SVG/1.1/DTD/svg11.dtd">
<svg width="100%" height="100%" viewBox="0 0 277 259" version="1.1" xmlns="http://www.w3.org/2000/svg" xmlns:xlink="http://www.w3.org/1999/xlink" xml:space="preserve" xmlns:serif="http://www.serif.com/" style="fill-rule:evenodd;clip-rule:evenodd;stroke-linejoin:round;stroke-miterlimit:2;">
    <g transform="matrix(1,0,0,1,-778.295215,-670.688353)">
        <g transform="matrix(1,0,0,1.010139,337.809651,-37.738845)">
            <path d="M464.108,768.948L452.546,774.671C449.962,775.95 446.895,775.813 444.438,774.31C441.981,772.807 440.486,770.151 440.486,767.292L440.486,710.525C440.486,707.666 441.981,705.01 444.438,703.507C446.895,702.004 449.962,701.867 452.546,703.146L508.129,730.659L519.685,730.659C519.685,730.659 575.262,730.659 575.262,785.678L575.262,879.218C575.262,879.238 575.272,917.738 614.173,917.738L654.183,917.738C657.121,906.958 665.677,898.449 676.544,895.486L676.544,848.703L672.182,851.712C668.409,854.315 663.21,853.396 660.581,849.661C657.951,845.925 658.879,840.779 662.653,838.176L676.544,828.592L676.544,821.87L672.182,824.879C668.409,827.482 663.21,826.563 660.581,822.828C657.951,819.092 658.879,813.946 662.653,811.343L676.544,801.759L676.544,764.586L659.976,764.586C655.373,764.586 651.642,760.892 651.642,756.336L651.642,709.566C651.642,705.01 655.373,701.317 659.976,701.317L707.22,701.317C711.822,701.317 715.553,705.01 715.553,709.566L715.553,756.336C715.553,760.892 711.822,764.586 707.22,764.586L693.535,764.586L693.535,790.036L698.725,786.456C702.498,783.852 707.696,784.772 710.326,788.507C712.956,792.243 712.027,797.389 708.254,799.992L693.535,810.147L693.535,816.869L698.725,813.289C702.498,810.685 707.696,811.605 710.326,815.34C712.956,819.075 712.027,824.222 708.254,826.825L693.535,836.98L693.535,895.486C707.053,899.173 716.995,911.44 716.995,925.988C716.995,943.448 702.676,957.623 685.039,957.623C670.285,957.623 657.853,947.702 654.183,934.238L614.173,934.238C558.596,934.238 558.596,879.218 558.596,879.218L558.596,785.678C558.596,747.168 519.705,747.158 519.685,747.158L508.129,747.158L480.774,760.698L480.774,894.354L496.063,894.354C500.665,894.354 504.396,898.047 504.396,902.603L504.396,949.373C504.396,953.929 500.665,957.623 496.063,957.623L448.819,957.623C444.217,957.623 440.486,953.929 440.486,949.373L440.486,902.603C440.486,898.047 444.217,894.354 448.819,894.354L464.108,894.354L464.108,768.948ZM686.699,748.087L698.886,748.087L698.886,717.816L668.309,717.816L668.309,748.087L683.38,748.087C683.917,747.981 684.472,747.926 685.039,747.926C685.607,747.926 686.162,747.981 686.699,748.087ZM487.528,738.909L457.152,723.873L457.152,753.944L487.528,738.909ZM685.039,910.853C676.601,910.853 669.751,917.635 669.751,925.988C669.751,934.342 676.601,941.123 685.039,941.123C693.477,941.123 700.328,934.342 700.328,925.988C700.328,917.635 693.477,910.853 685.039,910.853ZM487.73,910.853L457.152,910.853L457.152,941.123L487.73,941.123L487.73,910.853Z"/>
        </g>
    </g>
</svg>
